G75*
%MOIN*%
%OFA0B0*%
%FSLAX25Y25*%
%IPPOS*%
%LPD*%
%AMOC8*
5,1,8,0,0,1.08239X$1,22.5*
%
%ADD10C,0.00000*%
%ADD11C,0.10000*%
%ADD12OC8,0.10000*%
%ADD13OC8,0.05200*%
%ADD14OC8,0.06300*%
%ADD15C,0.06300*%
%ADD16C,0.06600*%
%ADD17C,0.05200*%
%ADD18C,0.06000*%
%ADD19R,0.05150X0.05150*%
%ADD20C,0.07200*%
%ADD21C,0.07050*%
%ADD22C,0.00600*%
D10*
X0001600Y0001600D02*
X0001600Y0151600D01*
X0481600Y0151600D01*
X0481600Y0001600D01*
X0001600Y0001600D01*
X0012650Y0019100D02*
X0012652Y0019260D01*
X0012658Y0019420D01*
X0012668Y0019580D01*
X0012682Y0019740D01*
X0012700Y0019899D01*
X0012721Y0020058D01*
X0012747Y0020216D01*
X0012777Y0020373D01*
X0012810Y0020530D01*
X0012848Y0020685D01*
X0012889Y0020840D01*
X0012934Y0020994D01*
X0012983Y0021146D01*
X0013036Y0021298D01*
X0013092Y0021448D01*
X0013153Y0021596D01*
X0013216Y0021743D01*
X0013284Y0021888D01*
X0013355Y0022032D01*
X0013429Y0022174D01*
X0013507Y0022313D01*
X0013589Y0022451D01*
X0013674Y0022587D01*
X0013762Y0022721D01*
X0013854Y0022852D01*
X0013949Y0022981D01*
X0014047Y0023108D01*
X0014148Y0023232D01*
X0014252Y0023354D01*
X0014359Y0023473D01*
X0014469Y0023590D01*
X0014582Y0023703D01*
X0014698Y0023814D01*
X0014816Y0023922D01*
X0014937Y0024027D01*
X0015061Y0024129D01*
X0015187Y0024227D01*
X0015315Y0024323D01*
X0015446Y0024415D01*
X0015579Y0024504D01*
X0015715Y0024590D01*
X0015852Y0024672D01*
X0015991Y0024751D01*
X0016133Y0024827D01*
X0016276Y0024899D01*
X0016421Y0024967D01*
X0016567Y0025032D01*
X0016715Y0025093D01*
X0016865Y0025150D01*
X0017016Y0025204D01*
X0017168Y0025254D01*
X0017321Y0025300D01*
X0017476Y0025342D01*
X0017631Y0025381D01*
X0017788Y0025415D01*
X0017945Y0025446D01*
X0018103Y0025472D01*
X0018261Y0025495D01*
X0018420Y0025514D01*
X0018580Y0025529D01*
X0018740Y0025540D01*
X0018900Y0025547D01*
X0019060Y0025550D01*
X0019220Y0025549D01*
X0019380Y0025544D01*
X0019540Y0025535D01*
X0019700Y0025522D01*
X0019859Y0025505D01*
X0020018Y0025484D01*
X0020176Y0025460D01*
X0020334Y0025431D01*
X0020491Y0025398D01*
X0020647Y0025362D01*
X0020802Y0025322D01*
X0020956Y0025277D01*
X0021108Y0025229D01*
X0021260Y0025178D01*
X0021410Y0025122D01*
X0021559Y0025063D01*
X0021706Y0025000D01*
X0021852Y0024933D01*
X0021996Y0024863D01*
X0022138Y0024790D01*
X0022279Y0024712D01*
X0022417Y0024632D01*
X0022553Y0024548D01*
X0022688Y0024460D01*
X0022820Y0024369D01*
X0022949Y0024275D01*
X0023077Y0024178D01*
X0023202Y0024078D01*
X0023324Y0023975D01*
X0023444Y0023868D01*
X0023561Y0023759D01*
X0023675Y0023647D01*
X0023786Y0023532D01*
X0023895Y0023414D01*
X0024001Y0023294D01*
X0024103Y0023171D01*
X0024203Y0023045D01*
X0024299Y0022917D01*
X0024392Y0022787D01*
X0024482Y0022654D01*
X0024569Y0022519D01*
X0024652Y0022383D01*
X0024732Y0022244D01*
X0024808Y0022103D01*
X0024881Y0021960D01*
X0024950Y0021816D01*
X0025016Y0021670D01*
X0025078Y0021522D01*
X0025136Y0021373D01*
X0025191Y0021222D01*
X0025242Y0021070D01*
X0025289Y0020917D01*
X0025332Y0020763D01*
X0025371Y0020608D01*
X0025407Y0020451D01*
X0025438Y0020294D01*
X0025466Y0020137D01*
X0025490Y0019978D01*
X0025510Y0019819D01*
X0025526Y0019660D01*
X0025538Y0019500D01*
X0025546Y0019340D01*
X0025550Y0019180D01*
X0025550Y0019020D01*
X0025546Y0018860D01*
X0025538Y0018700D01*
X0025526Y0018540D01*
X0025510Y0018381D01*
X0025490Y0018222D01*
X0025466Y0018063D01*
X0025438Y0017906D01*
X0025407Y0017749D01*
X0025371Y0017592D01*
X0025332Y0017437D01*
X0025289Y0017283D01*
X0025242Y0017130D01*
X0025191Y0016978D01*
X0025136Y0016827D01*
X0025078Y0016678D01*
X0025016Y0016530D01*
X0024950Y0016384D01*
X0024881Y0016240D01*
X0024808Y0016097D01*
X0024732Y0015956D01*
X0024652Y0015817D01*
X0024569Y0015681D01*
X0024482Y0015546D01*
X0024392Y0015413D01*
X0024299Y0015283D01*
X0024203Y0015155D01*
X0024103Y0015029D01*
X0024001Y0014906D01*
X0023895Y0014786D01*
X0023786Y0014668D01*
X0023675Y0014553D01*
X0023561Y0014441D01*
X0023444Y0014332D01*
X0023324Y0014225D01*
X0023202Y0014122D01*
X0023077Y0014022D01*
X0022949Y0013925D01*
X0022820Y0013831D01*
X0022688Y0013740D01*
X0022553Y0013652D01*
X0022417Y0013568D01*
X0022279Y0013488D01*
X0022138Y0013410D01*
X0021996Y0013337D01*
X0021852Y0013267D01*
X0021706Y0013200D01*
X0021559Y0013137D01*
X0021410Y0013078D01*
X0021260Y0013022D01*
X0021108Y0012971D01*
X0020956Y0012923D01*
X0020802Y0012878D01*
X0020647Y0012838D01*
X0020491Y0012802D01*
X0020334Y0012769D01*
X0020176Y0012740D01*
X0020018Y0012716D01*
X0019859Y0012695D01*
X0019700Y0012678D01*
X0019540Y0012665D01*
X0019380Y0012656D01*
X0019220Y0012651D01*
X0019060Y0012650D01*
X0018900Y0012653D01*
X0018740Y0012660D01*
X0018580Y0012671D01*
X0018420Y0012686D01*
X0018261Y0012705D01*
X0018103Y0012728D01*
X0017945Y0012754D01*
X0017788Y0012785D01*
X0017631Y0012819D01*
X0017476Y0012858D01*
X0017321Y0012900D01*
X0017168Y0012946D01*
X0017016Y0012996D01*
X0016865Y0013050D01*
X0016715Y0013107D01*
X0016567Y0013168D01*
X0016421Y0013233D01*
X0016276Y0013301D01*
X0016133Y0013373D01*
X0015991Y0013449D01*
X0015852Y0013528D01*
X0015715Y0013610D01*
X0015579Y0013696D01*
X0015446Y0013785D01*
X0015315Y0013877D01*
X0015187Y0013973D01*
X0015061Y0014071D01*
X0014937Y0014173D01*
X0014816Y0014278D01*
X0014698Y0014386D01*
X0014582Y0014497D01*
X0014469Y0014610D01*
X0014359Y0014727D01*
X0014252Y0014846D01*
X0014148Y0014968D01*
X0014047Y0015092D01*
X0013949Y0015219D01*
X0013854Y0015348D01*
X0013762Y0015479D01*
X0013674Y0015613D01*
X0013589Y0015749D01*
X0013507Y0015887D01*
X0013429Y0016026D01*
X0013355Y0016168D01*
X0013284Y0016312D01*
X0013216Y0016457D01*
X0013153Y0016604D01*
X0013092Y0016752D01*
X0013036Y0016902D01*
X0012983Y0017054D01*
X0012934Y0017206D01*
X0012889Y0017360D01*
X0012848Y0017515D01*
X0012810Y0017670D01*
X0012777Y0017827D01*
X0012747Y0017984D01*
X0012721Y0018142D01*
X0012700Y0018301D01*
X0012682Y0018460D01*
X0012668Y0018620D01*
X0012658Y0018780D01*
X0012652Y0018940D01*
X0012650Y0019100D01*
X0012650Y0139100D02*
X0012652Y0139260D01*
X0012658Y0139420D01*
X0012668Y0139580D01*
X0012682Y0139740D01*
X0012700Y0139899D01*
X0012721Y0140058D01*
X0012747Y0140216D01*
X0012777Y0140373D01*
X0012810Y0140530D01*
X0012848Y0140685D01*
X0012889Y0140840D01*
X0012934Y0140994D01*
X0012983Y0141146D01*
X0013036Y0141298D01*
X0013092Y0141448D01*
X0013153Y0141596D01*
X0013216Y0141743D01*
X0013284Y0141888D01*
X0013355Y0142032D01*
X0013429Y0142174D01*
X0013507Y0142313D01*
X0013589Y0142451D01*
X0013674Y0142587D01*
X0013762Y0142721D01*
X0013854Y0142852D01*
X0013949Y0142981D01*
X0014047Y0143108D01*
X0014148Y0143232D01*
X0014252Y0143354D01*
X0014359Y0143473D01*
X0014469Y0143590D01*
X0014582Y0143703D01*
X0014698Y0143814D01*
X0014816Y0143922D01*
X0014937Y0144027D01*
X0015061Y0144129D01*
X0015187Y0144227D01*
X0015315Y0144323D01*
X0015446Y0144415D01*
X0015579Y0144504D01*
X0015715Y0144590D01*
X0015852Y0144672D01*
X0015991Y0144751D01*
X0016133Y0144827D01*
X0016276Y0144899D01*
X0016421Y0144967D01*
X0016567Y0145032D01*
X0016715Y0145093D01*
X0016865Y0145150D01*
X0017016Y0145204D01*
X0017168Y0145254D01*
X0017321Y0145300D01*
X0017476Y0145342D01*
X0017631Y0145381D01*
X0017788Y0145415D01*
X0017945Y0145446D01*
X0018103Y0145472D01*
X0018261Y0145495D01*
X0018420Y0145514D01*
X0018580Y0145529D01*
X0018740Y0145540D01*
X0018900Y0145547D01*
X0019060Y0145550D01*
X0019220Y0145549D01*
X0019380Y0145544D01*
X0019540Y0145535D01*
X0019700Y0145522D01*
X0019859Y0145505D01*
X0020018Y0145484D01*
X0020176Y0145460D01*
X0020334Y0145431D01*
X0020491Y0145398D01*
X0020647Y0145362D01*
X0020802Y0145322D01*
X0020956Y0145277D01*
X0021108Y0145229D01*
X0021260Y0145178D01*
X0021410Y0145122D01*
X0021559Y0145063D01*
X0021706Y0145000D01*
X0021852Y0144933D01*
X0021996Y0144863D01*
X0022138Y0144790D01*
X0022279Y0144712D01*
X0022417Y0144632D01*
X0022553Y0144548D01*
X0022688Y0144460D01*
X0022820Y0144369D01*
X0022949Y0144275D01*
X0023077Y0144178D01*
X0023202Y0144078D01*
X0023324Y0143975D01*
X0023444Y0143868D01*
X0023561Y0143759D01*
X0023675Y0143647D01*
X0023786Y0143532D01*
X0023895Y0143414D01*
X0024001Y0143294D01*
X0024103Y0143171D01*
X0024203Y0143045D01*
X0024299Y0142917D01*
X0024392Y0142787D01*
X0024482Y0142654D01*
X0024569Y0142519D01*
X0024652Y0142383D01*
X0024732Y0142244D01*
X0024808Y0142103D01*
X0024881Y0141960D01*
X0024950Y0141816D01*
X0025016Y0141670D01*
X0025078Y0141522D01*
X0025136Y0141373D01*
X0025191Y0141222D01*
X0025242Y0141070D01*
X0025289Y0140917D01*
X0025332Y0140763D01*
X0025371Y0140608D01*
X0025407Y0140451D01*
X0025438Y0140294D01*
X0025466Y0140137D01*
X0025490Y0139978D01*
X0025510Y0139819D01*
X0025526Y0139660D01*
X0025538Y0139500D01*
X0025546Y0139340D01*
X0025550Y0139180D01*
X0025550Y0139020D01*
X0025546Y0138860D01*
X0025538Y0138700D01*
X0025526Y0138540D01*
X0025510Y0138381D01*
X0025490Y0138222D01*
X0025466Y0138063D01*
X0025438Y0137906D01*
X0025407Y0137749D01*
X0025371Y0137592D01*
X0025332Y0137437D01*
X0025289Y0137283D01*
X0025242Y0137130D01*
X0025191Y0136978D01*
X0025136Y0136827D01*
X0025078Y0136678D01*
X0025016Y0136530D01*
X0024950Y0136384D01*
X0024881Y0136240D01*
X0024808Y0136097D01*
X0024732Y0135956D01*
X0024652Y0135817D01*
X0024569Y0135681D01*
X0024482Y0135546D01*
X0024392Y0135413D01*
X0024299Y0135283D01*
X0024203Y0135155D01*
X0024103Y0135029D01*
X0024001Y0134906D01*
X0023895Y0134786D01*
X0023786Y0134668D01*
X0023675Y0134553D01*
X0023561Y0134441D01*
X0023444Y0134332D01*
X0023324Y0134225D01*
X0023202Y0134122D01*
X0023077Y0134022D01*
X0022949Y0133925D01*
X0022820Y0133831D01*
X0022688Y0133740D01*
X0022553Y0133652D01*
X0022417Y0133568D01*
X0022279Y0133488D01*
X0022138Y0133410D01*
X0021996Y0133337D01*
X0021852Y0133267D01*
X0021706Y0133200D01*
X0021559Y0133137D01*
X0021410Y0133078D01*
X0021260Y0133022D01*
X0021108Y0132971D01*
X0020956Y0132923D01*
X0020802Y0132878D01*
X0020647Y0132838D01*
X0020491Y0132802D01*
X0020334Y0132769D01*
X0020176Y0132740D01*
X0020018Y0132716D01*
X0019859Y0132695D01*
X0019700Y0132678D01*
X0019540Y0132665D01*
X0019380Y0132656D01*
X0019220Y0132651D01*
X0019060Y0132650D01*
X0018900Y0132653D01*
X0018740Y0132660D01*
X0018580Y0132671D01*
X0018420Y0132686D01*
X0018261Y0132705D01*
X0018103Y0132728D01*
X0017945Y0132754D01*
X0017788Y0132785D01*
X0017631Y0132819D01*
X0017476Y0132858D01*
X0017321Y0132900D01*
X0017168Y0132946D01*
X0017016Y0132996D01*
X0016865Y0133050D01*
X0016715Y0133107D01*
X0016567Y0133168D01*
X0016421Y0133233D01*
X0016276Y0133301D01*
X0016133Y0133373D01*
X0015991Y0133449D01*
X0015852Y0133528D01*
X0015715Y0133610D01*
X0015579Y0133696D01*
X0015446Y0133785D01*
X0015315Y0133877D01*
X0015187Y0133973D01*
X0015061Y0134071D01*
X0014937Y0134173D01*
X0014816Y0134278D01*
X0014698Y0134386D01*
X0014582Y0134497D01*
X0014469Y0134610D01*
X0014359Y0134727D01*
X0014252Y0134846D01*
X0014148Y0134968D01*
X0014047Y0135092D01*
X0013949Y0135219D01*
X0013854Y0135348D01*
X0013762Y0135479D01*
X0013674Y0135613D01*
X0013589Y0135749D01*
X0013507Y0135887D01*
X0013429Y0136026D01*
X0013355Y0136168D01*
X0013284Y0136312D01*
X0013216Y0136457D01*
X0013153Y0136604D01*
X0013092Y0136752D01*
X0013036Y0136902D01*
X0012983Y0137054D01*
X0012934Y0137206D01*
X0012889Y0137360D01*
X0012848Y0137515D01*
X0012810Y0137670D01*
X0012777Y0137827D01*
X0012747Y0137984D01*
X0012721Y0138142D01*
X0012700Y0138301D01*
X0012682Y0138460D01*
X0012668Y0138620D01*
X0012658Y0138780D01*
X0012652Y0138940D01*
X0012650Y0139100D01*
X0457650Y0139100D02*
X0457652Y0139260D01*
X0457658Y0139420D01*
X0457668Y0139580D01*
X0457682Y0139740D01*
X0457700Y0139899D01*
X0457721Y0140058D01*
X0457747Y0140216D01*
X0457777Y0140373D01*
X0457810Y0140530D01*
X0457848Y0140685D01*
X0457889Y0140840D01*
X0457934Y0140994D01*
X0457983Y0141146D01*
X0458036Y0141298D01*
X0458092Y0141448D01*
X0458153Y0141596D01*
X0458216Y0141743D01*
X0458284Y0141888D01*
X0458355Y0142032D01*
X0458429Y0142174D01*
X0458507Y0142313D01*
X0458589Y0142451D01*
X0458674Y0142587D01*
X0458762Y0142721D01*
X0458854Y0142852D01*
X0458949Y0142981D01*
X0459047Y0143108D01*
X0459148Y0143232D01*
X0459252Y0143354D01*
X0459359Y0143473D01*
X0459469Y0143590D01*
X0459582Y0143703D01*
X0459698Y0143814D01*
X0459816Y0143922D01*
X0459937Y0144027D01*
X0460061Y0144129D01*
X0460187Y0144227D01*
X0460315Y0144323D01*
X0460446Y0144415D01*
X0460579Y0144504D01*
X0460715Y0144590D01*
X0460852Y0144672D01*
X0460991Y0144751D01*
X0461133Y0144827D01*
X0461276Y0144899D01*
X0461421Y0144967D01*
X0461567Y0145032D01*
X0461715Y0145093D01*
X0461865Y0145150D01*
X0462016Y0145204D01*
X0462168Y0145254D01*
X0462321Y0145300D01*
X0462476Y0145342D01*
X0462631Y0145381D01*
X0462788Y0145415D01*
X0462945Y0145446D01*
X0463103Y0145472D01*
X0463261Y0145495D01*
X0463420Y0145514D01*
X0463580Y0145529D01*
X0463740Y0145540D01*
X0463900Y0145547D01*
X0464060Y0145550D01*
X0464220Y0145549D01*
X0464380Y0145544D01*
X0464540Y0145535D01*
X0464700Y0145522D01*
X0464859Y0145505D01*
X0465018Y0145484D01*
X0465176Y0145460D01*
X0465334Y0145431D01*
X0465491Y0145398D01*
X0465647Y0145362D01*
X0465802Y0145322D01*
X0465956Y0145277D01*
X0466108Y0145229D01*
X0466260Y0145178D01*
X0466410Y0145122D01*
X0466559Y0145063D01*
X0466706Y0145000D01*
X0466852Y0144933D01*
X0466996Y0144863D01*
X0467138Y0144790D01*
X0467279Y0144712D01*
X0467417Y0144632D01*
X0467553Y0144548D01*
X0467688Y0144460D01*
X0467820Y0144369D01*
X0467949Y0144275D01*
X0468077Y0144178D01*
X0468202Y0144078D01*
X0468324Y0143975D01*
X0468444Y0143868D01*
X0468561Y0143759D01*
X0468675Y0143647D01*
X0468786Y0143532D01*
X0468895Y0143414D01*
X0469001Y0143294D01*
X0469103Y0143171D01*
X0469203Y0143045D01*
X0469299Y0142917D01*
X0469392Y0142787D01*
X0469482Y0142654D01*
X0469569Y0142519D01*
X0469652Y0142383D01*
X0469732Y0142244D01*
X0469808Y0142103D01*
X0469881Y0141960D01*
X0469950Y0141816D01*
X0470016Y0141670D01*
X0470078Y0141522D01*
X0470136Y0141373D01*
X0470191Y0141222D01*
X0470242Y0141070D01*
X0470289Y0140917D01*
X0470332Y0140763D01*
X0470371Y0140608D01*
X0470407Y0140451D01*
X0470438Y0140294D01*
X0470466Y0140137D01*
X0470490Y0139978D01*
X0470510Y0139819D01*
X0470526Y0139660D01*
X0470538Y0139500D01*
X0470546Y0139340D01*
X0470550Y0139180D01*
X0470550Y0139020D01*
X0470546Y0138860D01*
X0470538Y0138700D01*
X0470526Y0138540D01*
X0470510Y0138381D01*
X0470490Y0138222D01*
X0470466Y0138063D01*
X0470438Y0137906D01*
X0470407Y0137749D01*
X0470371Y0137592D01*
X0470332Y0137437D01*
X0470289Y0137283D01*
X0470242Y0137130D01*
X0470191Y0136978D01*
X0470136Y0136827D01*
X0470078Y0136678D01*
X0470016Y0136530D01*
X0469950Y0136384D01*
X0469881Y0136240D01*
X0469808Y0136097D01*
X0469732Y0135956D01*
X0469652Y0135817D01*
X0469569Y0135681D01*
X0469482Y0135546D01*
X0469392Y0135413D01*
X0469299Y0135283D01*
X0469203Y0135155D01*
X0469103Y0135029D01*
X0469001Y0134906D01*
X0468895Y0134786D01*
X0468786Y0134668D01*
X0468675Y0134553D01*
X0468561Y0134441D01*
X0468444Y0134332D01*
X0468324Y0134225D01*
X0468202Y0134122D01*
X0468077Y0134022D01*
X0467949Y0133925D01*
X0467820Y0133831D01*
X0467688Y0133740D01*
X0467553Y0133652D01*
X0467417Y0133568D01*
X0467279Y0133488D01*
X0467138Y0133410D01*
X0466996Y0133337D01*
X0466852Y0133267D01*
X0466706Y0133200D01*
X0466559Y0133137D01*
X0466410Y0133078D01*
X0466260Y0133022D01*
X0466108Y0132971D01*
X0465956Y0132923D01*
X0465802Y0132878D01*
X0465647Y0132838D01*
X0465491Y0132802D01*
X0465334Y0132769D01*
X0465176Y0132740D01*
X0465018Y0132716D01*
X0464859Y0132695D01*
X0464700Y0132678D01*
X0464540Y0132665D01*
X0464380Y0132656D01*
X0464220Y0132651D01*
X0464060Y0132650D01*
X0463900Y0132653D01*
X0463740Y0132660D01*
X0463580Y0132671D01*
X0463420Y0132686D01*
X0463261Y0132705D01*
X0463103Y0132728D01*
X0462945Y0132754D01*
X0462788Y0132785D01*
X0462631Y0132819D01*
X0462476Y0132858D01*
X0462321Y0132900D01*
X0462168Y0132946D01*
X0462016Y0132996D01*
X0461865Y0133050D01*
X0461715Y0133107D01*
X0461567Y0133168D01*
X0461421Y0133233D01*
X0461276Y0133301D01*
X0461133Y0133373D01*
X0460991Y0133449D01*
X0460852Y0133528D01*
X0460715Y0133610D01*
X0460579Y0133696D01*
X0460446Y0133785D01*
X0460315Y0133877D01*
X0460187Y0133973D01*
X0460061Y0134071D01*
X0459937Y0134173D01*
X0459816Y0134278D01*
X0459698Y0134386D01*
X0459582Y0134497D01*
X0459469Y0134610D01*
X0459359Y0134727D01*
X0459252Y0134846D01*
X0459148Y0134968D01*
X0459047Y0135092D01*
X0458949Y0135219D01*
X0458854Y0135348D01*
X0458762Y0135479D01*
X0458674Y0135613D01*
X0458589Y0135749D01*
X0458507Y0135887D01*
X0458429Y0136026D01*
X0458355Y0136168D01*
X0458284Y0136312D01*
X0458216Y0136457D01*
X0458153Y0136604D01*
X0458092Y0136752D01*
X0458036Y0136902D01*
X0457983Y0137054D01*
X0457934Y0137206D01*
X0457889Y0137360D01*
X0457848Y0137515D01*
X0457810Y0137670D01*
X0457777Y0137827D01*
X0457747Y0137984D01*
X0457721Y0138142D01*
X0457700Y0138301D01*
X0457682Y0138460D01*
X0457668Y0138620D01*
X0457658Y0138780D01*
X0457652Y0138940D01*
X0457650Y0139100D01*
X0457650Y0019100D02*
X0457652Y0019260D01*
X0457658Y0019420D01*
X0457668Y0019580D01*
X0457682Y0019740D01*
X0457700Y0019899D01*
X0457721Y0020058D01*
X0457747Y0020216D01*
X0457777Y0020373D01*
X0457810Y0020530D01*
X0457848Y0020685D01*
X0457889Y0020840D01*
X0457934Y0020994D01*
X0457983Y0021146D01*
X0458036Y0021298D01*
X0458092Y0021448D01*
X0458153Y0021596D01*
X0458216Y0021743D01*
X0458284Y0021888D01*
X0458355Y0022032D01*
X0458429Y0022174D01*
X0458507Y0022313D01*
X0458589Y0022451D01*
X0458674Y0022587D01*
X0458762Y0022721D01*
X0458854Y0022852D01*
X0458949Y0022981D01*
X0459047Y0023108D01*
X0459148Y0023232D01*
X0459252Y0023354D01*
X0459359Y0023473D01*
X0459469Y0023590D01*
X0459582Y0023703D01*
X0459698Y0023814D01*
X0459816Y0023922D01*
X0459937Y0024027D01*
X0460061Y0024129D01*
X0460187Y0024227D01*
X0460315Y0024323D01*
X0460446Y0024415D01*
X0460579Y0024504D01*
X0460715Y0024590D01*
X0460852Y0024672D01*
X0460991Y0024751D01*
X0461133Y0024827D01*
X0461276Y0024899D01*
X0461421Y0024967D01*
X0461567Y0025032D01*
X0461715Y0025093D01*
X0461865Y0025150D01*
X0462016Y0025204D01*
X0462168Y0025254D01*
X0462321Y0025300D01*
X0462476Y0025342D01*
X0462631Y0025381D01*
X0462788Y0025415D01*
X0462945Y0025446D01*
X0463103Y0025472D01*
X0463261Y0025495D01*
X0463420Y0025514D01*
X0463580Y0025529D01*
X0463740Y0025540D01*
X0463900Y0025547D01*
X0464060Y0025550D01*
X0464220Y0025549D01*
X0464380Y0025544D01*
X0464540Y0025535D01*
X0464700Y0025522D01*
X0464859Y0025505D01*
X0465018Y0025484D01*
X0465176Y0025460D01*
X0465334Y0025431D01*
X0465491Y0025398D01*
X0465647Y0025362D01*
X0465802Y0025322D01*
X0465956Y0025277D01*
X0466108Y0025229D01*
X0466260Y0025178D01*
X0466410Y0025122D01*
X0466559Y0025063D01*
X0466706Y0025000D01*
X0466852Y0024933D01*
X0466996Y0024863D01*
X0467138Y0024790D01*
X0467279Y0024712D01*
X0467417Y0024632D01*
X0467553Y0024548D01*
X0467688Y0024460D01*
X0467820Y0024369D01*
X0467949Y0024275D01*
X0468077Y0024178D01*
X0468202Y0024078D01*
X0468324Y0023975D01*
X0468444Y0023868D01*
X0468561Y0023759D01*
X0468675Y0023647D01*
X0468786Y0023532D01*
X0468895Y0023414D01*
X0469001Y0023294D01*
X0469103Y0023171D01*
X0469203Y0023045D01*
X0469299Y0022917D01*
X0469392Y0022787D01*
X0469482Y0022654D01*
X0469569Y0022519D01*
X0469652Y0022383D01*
X0469732Y0022244D01*
X0469808Y0022103D01*
X0469881Y0021960D01*
X0469950Y0021816D01*
X0470016Y0021670D01*
X0470078Y0021522D01*
X0470136Y0021373D01*
X0470191Y0021222D01*
X0470242Y0021070D01*
X0470289Y0020917D01*
X0470332Y0020763D01*
X0470371Y0020608D01*
X0470407Y0020451D01*
X0470438Y0020294D01*
X0470466Y0020137D01*
X0470490Y0019978D01*
X0470510Y0019819D01*
X0470526Y0019660D01*
X0470538Y0019500D01*
X0470546Y0019340D01*
X0470550Y0019180D01*
X0470550Y0019020D01*
X0470546Y0018860D01*
X0470538Y0018700D01*
X0470526Y0018540D01*
X0470510Y0018381D01*
X0470490Y0018222D01*
X0470466Y0018063D01*
X0470438Y0017906D01*
X0470407Y0017749D01*
X0470371Y0017592D01*
X0470332Y0017437D01*
X0470289Y0017283D01*
X0470242Y0017130D01*
X0470191Y0016978D01*
X0470136Y0016827D01*
X0470078Y0016678D01*
X0470016Y0016530D01*
X0469950Y0016384D01*
X0469881Y0016240D01*
X0469808Y0016097D01*
X0469732Y0015956D01*
X0469652Y0015817D01*
X0469569Y0015681D01*
X0469482Y0015546D01*
X0469392Y0015413D01*
X0469299Y0015283D01*
X0469203Y0015155D01*
X0469103Y0015029D01*
X0469001Y0014906D01*
X0468895Y0014786D01*
X0468786Y0014668D01*
X0468675Y0014553D01*
X0468561Y0014441D01*
X0468444Y0014332D01*
X0468324Y0014225D01*
X0468202Y0014122D01*
X0468077Y0014022D01*
X0467949Y0013925D01*
X0467820Y0013831D01*
X0467688Y0013740D01*
X0467553Y0013652D01*
X0467417Y0013568D01*
X0467279Y0013488D01*
X0467138Y0013410D01*
X0466996Y0013337D01*
X0466852Y0013267D01*
X0466706Y0013200D01*
X0466559Y0013137D01*
X0466410Y0013078D01*
X0466260Y0013022D01*
X0466108Y0012971D01*
X0465956Y0012923D01*
X0465802Y0012878D01*
X0465647Y0012838D01*
X0465491Y0012802D01*
X0465334Y0012769D01*
X0465176Y0012740D01*
X0465018Y0012716D01*
X0464859Y0012695D01*
X0464700Y0012678D01*
X0464540Y0012665D01*
X0464380Y0012656D01*
X0464220Y0012651D01*
X0464060Y0012650D01*
X0463900Y0012653D01*
X0463740Y0012660D01*
X0463580Y0012671D01*
X0463420Y0012686D01*
X0463261Y0012705D01*
X0463103Y0012728D01*
X0462945Y0012754D01*
X0462788Y0012785D01*
X0462631Y0012819D01*
X0462476Y0012858D01*
X0462321Y0012900D01*
X0462168Y0012946D01*
X0462016Y0012996D01*
X0461865Y0013050D01*
X0461715Y0013107D01*
X0461567Y0013168D01*
X0461421Y0013233D01*
X0461276Y0013301D01*
X0461133Y0013373D01*
X0460991Y0013449D01*
X0460852Y0013528D01*
X0460715Y0013610D01*
X0460579Y0013696D01*
X0460446Y0013785D01*
X0460315Y0013877D01*
X0460187Y0013973D01*
X0460061Y0014071D01*
X0459937Y0014173D01*
X0459816Y0014278D01*
X0459698Y0014386D01*
X0459582Y0014497D01*
X0459469Y0014610D01*
X0459359Y0014727D01*
X0459252Y0014846D01*
X0459148Y0014968D01*
X0459047Y0015092D01*
X0458949Y0015219D01*
X0458854Y0015348D01*
X0458762Y0015479D01*
X0458674Y0015613D01*
X0458589Y0015749D01*
X0458507Y0015887D01*
X0458429Y0016026D01*
X0458355Y0016168D01*
X0458284Y0016312D01*
X0458216Y0016457D01*
X0458153Y0016604D01*
X0458092Y0016752D01*
X0458036Y0016902D01*
X0457983Y0017054D01*
X0457934Y0017206D01*
X0457889Y0017360D01*
X0457848Y0017515D01*
X0457810Y0017670D01*
X0457777Y0017827D01*
X0457747Y0017984D01*
X0457721Y0018142D01*
X0457700Y0018301D01*
X0457682Y0018460D01*
X0457668Y0018620D01*
X0457658Y0018780D01*
X0457652Y0018940D01*
X0457650Y0019100D01*
D11*
X0336600Y0081600D03*
D12*
X0336600Y0101600D03*
D13*
X0301600Y0106600D03*
X0371600Y0106600D03*
X0386600Y0116600D03*
X0371600Y0086600D03*
X0386600Y0076600D03*
X0381600Y0066600D03*
X0381600Y0056600D03*
X0371600Y0046600D03*
X0349100Y0041600D03*
X0341600Y0046600D03*
X0316600Y0056600D03*
X0301600Y0056600D03*
X0301600Y0066600D03*
X0341600Y0036600D03*
X0381600Y0036600D03*
X0381600Y0021600D03*
X0341600Y0021600D03*
X0316600Y0016600D03*
X0301600Y0016600D03*
X0281600Y0026600D03*
X0261600Y0026600D03*
X0186600Y0051600D03*
X0171600Y0051600D03*
X0171600Y0091600D03*
X0186600Y0091600D03*
X0171600Y0101600D03*
X0171600Y0141600D03*
X0421600Y0066600D03*
D14*
X0409600Y0036600D03*
D15*
X0423600Y0036600D03*
D16*
X0436600Y0066600D03*
X0436600Y0106600D03*
D17*
X0289200Y0076600D02*
X0284000Y0076600D01*
X0259200Y0076600D02*
X0254000Y0076600D01*
X0254000Y0066600D02*
X0259200Y0066600D01*
X0284000Y0066600D02*
X0289200Y0066600D01*
X0289200Y0056600D02*
X0284000Y0056600D01*
X0259200Y0056600D02*
X0254000Y0056600D01*
X0254000Y0046600D02*
X0259200Y0046600D01*
X0284000Y0046600D02*
X0289200Y0046600D01*
D18*
X0214600Y0061600D02*
X0208600Y0061600D01*
X0208600Y0071600D02*
X0214600Y0071600D01*
X0214600Y0081600D02*
X0208600Y0081600D01*
X0215500Y0100800D02*
X0215500Y0106800D01*
X0197700Y0106800D02*
X0197700Y0100800D01*
X0253600Y0101600D02*
X0259600Y0101600D01*
X0259600Y0111600D02*
X0253600Y0111600D01*
X0253600Y0121600D02*
X0259600Y0121600D01*
X0215500Y0126400D02*
X0215500Y0132400D01*
X0197700Y0132400D02*
X0197700Y0126400D01*
X0024600Y0111600D02*
X0018600Y0111600D01*
X0018600Y0101600D02*
X0024600Y0101600D01*
X0024600Y0091600D02*
X0018600Y0091600D01*
X0018600Y0081600D02*
X0024600Y0081600D01*
X0024600Y0071600D02*
X0018600Y0071600D01*
X0018600Y0061600D02*
X0024600Y0061600D01*
X0024600Y0051600D02*
X0018600Y0051600D01*
X0458600Y0051600D02*
X0464600Y0051600D01*
X0464600Y0061600D02*
X0458600Y0061600D01*
X0458600Y0071600D02*
X0464600Y0071600D01*
X0464600Y0081600D02*
X0458600Y0081600D01*
X0458600Y0091600D02*
X0464600Y0091600D01*
X0464600Y0101600D02*
X0458600Y0101600D01*
X0458600Y0111600D02*
X0464600Y0111600D01*
D19*
X0421443Y0096600D03*
X0401757Y0096600D03*
D20*
X0155200Y0091600D02*
X0148000Y0091600D01*
X0148000Y0081600D02*
X0155200Y0081600D01*
X0155200Y0071600D02*
X0148000Y0071600D01*
X0148000Y0061600D02*
X0155200Y0061600D01*
X0155200Y0051600D02*
X0148000Y0051600D01*
X0148000Y0041600D02*
X0155200Y0041600D01*
X0065200Y0041600D02*
X0058000Y0041600D01*
X0058000Y0051600D02*
X0065200Y0051600D01*
X0065200Y0061600D02*
X0058000Y0061600D01*
X0058000Y0071600D02*
X0065200Y0071600D01*
X0065200Y0081600D02*
X0058000Y0081600D01*
X0058000Y0091600D02*
X0065200Y0091600D01*
X0065200Y0101600D02*
X0058000Y0101600D01*
X0058000Y0111600D02*
X0065200Y0111600D01*
X0148000Y0111600D02*
X0155200Y0111600D01*
X0155200Y0101600D02*
X0148000Y0101600D01*
D21*
X0191600Y0027625D02*
X0191600Y0020575D01*
X0211600Y0020575D02*
X0211600Y0027625D01*
D22*
X0416600Y0031600D02*
X0416600Y0086600D01*
X0455776Y0086600D01*
X0457466Y0085900D01*
X0465734Y0085900D01*
X0466600Y0086259D01*
X0466600Y0085407D01*
X0466251Y0085585D01*
X0465607Y0085794D01*
X0464938Y0085900D01*
X0461900Y0085900D01*
X0461900Y0081900D01*
X0461300Y0081900D01*
X0461300Y0085900D01*
X0458262Y0085900D01*
X0457593Y0085794D01*
X0456949Y0085585D01*
X0456346Y0085278D01*
X0455799Y0084880D01*
X0455320Y0084401D01*
X0454922Y0083854D01*
X0454615Y0083251D01*
X0454406Y0082607D01*
X0454300Y0081938D01*
X0454300Y0081900D01*
X0461300Y0081900D01*
X0461300Y0081300D01*
X0461900Y0081300D01*
X0461900Y0077300D01*
X0464938Y0077300D01*
X0465607Y0077406D01*
X0466251Y0077615D01*
X0466600Y0077793D01*
X0466600Y0075407D01*
X0466251Y0075585D01*
X0465607Y0075794D01*
X0464938Y0075900D01*
X0461900Y0075900D01*
X0461900Y0071900D01*
X0461300Y0071900D01*
X0461300Y0075900D01*
X0458262Y0075900D01*
X0457593Y0075794D01*
X0456949Y0075585D01*
X0456346Y0075278D01*
X0455799Y0074880D01*
X0455320Y0074401D01*
X0454922Y0073854D01*
X0454615Y0073251D01*
X0454406Y0072607D01*
X0454300Y0071938D01*
X0454300Y0071900D01*
X0461300Y0071900D01*
X0461300Y0071300D01*
X0461900Y0071300D01*
X0461900Y0067300D01*
X0464938Y0067300D01*
X0465607Y0067406D01*
X0466251Y0067615D01*
X0466600Y0067793D01*
X0466600Y0065407D01*
X0466251Y0065585D01*
X0465607Y0065794D01*
X0464938Y0065900D01*
X0461900Y0065900D01*
X0461900Y0061900D01*
X0461300Y0061900D01*
X0461300Y0065900D01*
X0458262Y0065900D01*
X0457593Y0065794D01*
X0456949Y0065585D01*
X0456346Y0065278D01*
X0455799Y0064880D01*
X0455320Y0064401D01*
X0454922Y0063854D01*
X0454615Y0063251D01*
X0454406Y0062607D01*
X0454300Y0061938D01*
X0454300Y0061900D01*
X0461300Y0061900D01*
X0461300Y0061300D01*
X0461900Y0061300D01*
X0461900Y0057300D01*
X0464938Y0057300D01*
X0465607Y0057406D01*
X0466251Y0057615D01*
X0466600Y0057793D01*
X0466600Y0055407D01*
X0466251Y0055585D01*
X0465607Y0055794D01*
X0464938Y0055900D01*
X0461900Y0055900D01*
X0461900Y0051900D01*
X0461300Y0051900D01*
X0461300Y0055900D01*
X0458262Y0055900D01*
X0457593Y0055794D01*
X0456949Y0055585D01*
X0456346Y0055278D01*
X0455799Y0054880D01*
X0455320Y0054401D01*
X0454922Y0053854D01*
X0454615Y0053251D01*
X0454406Y0052607D01*
X0454300Y0051938D01*
X0454300Y0051900D01*
X0461300Y0051900D01*
X0461300Y0051300D01*
X0461900Y0051300D01*
X0461900Y0047300D01*
X0464938Y0047300D01*
X0465607Y0047406D01*
X0466251Y0047615D01*
X0466600Y0047793D01*
X0466600Y0046600D01*
X0436600Y0046600D01*
X0436600Y0031600D01*
X0416600Y0031600D01*
X0416600Y0032124D02*
X0436600Y0032124D01*
X0436600Y0032723D02*
X0425792Y0032723D01*
X0425932Y0032794D02*
X0426499Y0033206D01*
X0426994Y0033701D01*
X0427406Y0034268D01*
X0427724Y0034892D01*
X0427940Y0035558D01*
X0428050Y0036250D01*
X0428050Y0036300D01*
X0423900Y0036300D01*
X0423900Y0036900D01*
X0428050Y0036900D01*
X0428050Y0036950D01*
X0427940Y0037642D01*
X0427724Y0038308D01*
X0427406Y0038932D01*
X0426994Y0039499D01*
X0426499Y0039994D01*
X0425932Y0040406D01*
X0425308Y0040724D01*
X0424642Y0040940D01*
X0423950Y0041050D01*
X0423900Y0041050D01*
X0423900Y0036900D01*
X0423300Y0036900D01*
X0423300Y0041050D01*
X0423250Y0041050D01*
X0422558Y0040940D01*
X0421892Y0040724D01*
X0421268Y0040406D01*
X0420701Y0039994D01*
X0420206Y0039499D01*
X0419794Y0038932D01*
X0419476Y0038308D01*
X0419260Y0037642D01*
X0419150Y0036950D01*
X0419150Y0036900D01*
X0423300Y0036900D01*
X0423300Y0036300D01*
X0423900Y0036300D01*
X0423900Y0032150D01*
X0423950Y0032150D01*
X0424642Y0032260D01*
X0425308Y0032476D01*
X0425932Y0032794D01*
X0426614Y0033321D02*
X0436600Y0033321D01*
X0436600Y0033920D02*
X0427153Y0033920D01*
X0427534Y0034518D02*
X0436600Y0034518D01*
X0436600Y0035117D02*
X0427797Y0035117D01*
X0427965Y0035715D02*
X0436600Y0035715D01*
X0436600Y0036314D02*
X0423900Y0036314D01*
X0423900Y0036912D02*
X0423300Y0036912D01*
X0423300Y0036314D02*
X0416600Y0036314D01*
X0416600Y0036912D02*
X0419150Y0036912D01*
X0419239Y0037511D02*
X0416600Y0037511D01*
X0416600Y0038109D02*
X0419411Y0038109D01*
X0419680Y0038708D02*
X0416600Y0038708D01*
X0416600Y0039306D02*
X0420066Y0039306D01*
X0420611Y0039905D02*
X0416600Y0039905D01*
X0416600Y0040503D02*
X0421459Y0040503D01*
X0423300Y0040503D02*
X0423900Y0040503D01*
X0423900Y0039905D02*
X0423300Y0039905D01*
X0423300Y0039306D02*
X0423900Y0039306D01*
X0423900Y0038708D02*
X0423300Y0038708D01*
X0423300Y0038109D02*
X0423900Y0038109D01*
X0423900Y0037511D02*
X0423300Y0037511D01*
X0423300Y0036300D02*
X0419150Y0036300D01*
X0419150Y0036250D01*
X0419260Y0035558D01*
X0419476Y0034892D01*
X0419794Y0034268D01*
X0420206Y0033701D01*
X0420701Y0033206D01*
X0421268Y0032794D01*
X0421892Y0032476D01*
X0422558Y0032260D01*
X0423250Y0032150D01*
X0423300Y0032150D01*
X0423300Y0036300D01*
X0423300Y0035715D02*
X0423900Y0035715D01*
X0423900Y0035117D02*
X0423300Y0035117D01*
X0423300Y0034518D02*
X0423900Y0034518D01*
X0423900Y0033920D02*
X0423300Y0033920D01*
X0423300Y0033321D02*
X0423900Y0033321D01*
X0423900Y0032723D02*
X0423300Y0032723D01*
X0421408Y0032723D02*
X0416600Y0032723D01*
X0416600Y0033321D02*
X0420586Y0033321D01*
X0420047Y0033920D02*
X0416600Y0033920D01*
X0416600Y0034518D02*
X0419666Y0034518D01*
X0419403Y0035117D02*
X0416600Y0035117D01*
X0416600Y0035715D02*
X0419235Y0035715D01*
X0427134Y0039306D02*
X0436600Y0039306D01*
X0436600Y0038708D02*
X0427520Y0038708D01*
X0427789Y0038109D02*
X0436600Y0038109D01*
X0436600Y0037511D02*
X0427961Y0037511D01*
X0428050Y0036912D02*
X0436600Y0036912D01*
X0436600Y0039905D02*
X0426588Y0039905D01*
X0425741Y0040503D02*
X0436600Y0040503D01*
X0436600Y0041102D02*
X0416600Y0041102D01*
X0416600Y0041700D02*
X0436600Y0041700D01*
X0436600Y0042299D02*
X0416600Y0042299D01*
X0416600Y0042897D02*
X0436600Y0042897D01*
X0436600Y0043496D02*
X0416600Y0043496D01*
X0416600Y0044094D02*
X0436600Y0044094D01*
X0436600Y0044693D02*
X0416600Y0044693D01*
X0416600Y0045291D02*
X0436600Y0045291D01*
X0436600Y0045890D02*
X0416600Y0045890D01*
X0416600Y0046488D02*
X0436600Y0046488D01*
X0454406Y0050593D02*
X0454615Y0049949D01*
X0454922Y0049346D01*
X0455320Y0048799D01*
X0455799Y0048320D01*
X0456346Y0047922D01*
X0456949Y0047615D01*
X0457593Y0047406D01*
X0458262Y0047300D01*
X0461300Y0047300D01*
X0461300Y0051300D01*
X0454300Y0051300D01*
X0454300Y0051262D01*
X0454406Y0050593D01*
X0454392Y0050678D02*
X0416600Y0050678D01*
X0416600Y0051276D02*
X0454300Y0051276D01*
X0454385Y0052473D02*
X0416600Y0052473D01*
X0416600Y0051875D02*
X0461300Y0051875D01*
X0461300Y0052473D02*
X0461900Y0052473D01*
X0461900Y0053072D02*
X0461300Y0053072D01*
X0461300Y0053670D02*
X0461900Y0053670D01*
X0461900Y0054269D02*
X0461300Y0054269D01*
X0461300Y0054868D02*
X0461900Y0054868D01*
X0461900Y0055466D02*
X0461300Y0055466D01*
X0461300Y0057300D02*
X0458262Y0057300D01*
X0457593Y0057406D01*
X0456949Y0057615D01*
X0456346Y0057922D01*
X0455799Y0058320D01*
X0455320Y0058799D01*
X0454922Y0059346D01*
X0454615Y0059949D01*
X0454406Y0060593D01*
X0454300Y0061262D01*
X0454300Y0061300D01*
X0461300Y0061300D01*
X0461300Y0057300D01*
X0461300Y0057860D02*
X0461900Y0057860D01*
X0461900Y0058459D02*
X0461300Y0058459D01*
X0461300Y0059057D02*
X0461900Y0059057D01*
X0461900Y0059656D02*
X0461300Y0059656D01*
X0461300Y0060254D02*
X0461900Y0060254D01*
X0461900Y0060853D02*
X0461300Y0060853D01*
X0461300Y0061451D02*
X0416600Y0061451D01*
X0416600Y0060853D02*
X0454365Y0060853D01*
X0454516Y0060254D02*
X0416600Y0060254D01*
X0416600Y0059656D02*
X0454765Y0059656D01*
X0455132Y0059057D02*
X0416600Y0059057D01*
X0416600Y0058459D02*
X0455660Y0058459D01*
X0456468Y0057860D02*
X0416600Y0057860D01*
X0416600Y0057262D02*
X0466600Y0057262D01*
X0466600Y0056663D02*
X0416600Y0056663D01*
X0416600Y0056065D02*
X0466600Y0056065D01*
X0466600Y0055466D02*
X0466484Y0055466D01*
X0456716Y0055466D02*
X0416600Y0055466D01*
X0416600Y0054868D02*
X0455786Y0054868D01*
X0455224Y0054269D02*
X0416600Y0054269D01*
X0416600Y0053670D02*
X0454829Y0053670D01*
X0454557Y0053072D02*
X0416600Y0053072D01*
X0416600Y0050079D02*
X0454573Y0050079D01*
X0454854Y0049481D02*
X0416600Y0049481D01*
X0416600Y0048882D02*
X0455259Y0048882D01*
X0455849Y0048284D02*
X0416600Y0048284D01*
X0416600Y0047685D02*
X0456811Y0047685D01*
X0461300Y0047685D02*
X0461900Y0047685D01*
X0461900Y0048284D02*
X0461300Y0048284D01*
X0461300Y0048882D02*
X0461900Y0048882D01*
X0461900Y0049481D02*
X0461300Y0049481D01*
X0461300Y0050079D02*
X0461900Y0050079D01*
X0461900Y0050678D02*
X0461300Y0050678D01*
X0461300Y0051276D02*
X0461900Y0051276D01*
X0466389Y0047685D02*
X0466600Y0047685D01*
X0466600Y0047087D02*
X0416600Y0047087D01*
X0416600Y0062050D02*
X0435925Y0062050D01*
X0436238Y0062000D02*
X0435523Y0062113D01*
X0434834Y0062337D01*
X0434189Y0062666D01*
X0433603Y0063091D01*
X0433091Y0063603D01*
X0432666Y0064189D01*
X0432337Y0064834D01*
X0432113Y0065523D01*
X0432000Y0066238D01*
X0432000Y0066300D01*
X0436300Y0066300D01*
X0436300Y0066900D01*
X0436300Y0071200D01*
X0436238Y0071200D01*
X0435523Y0071087D01*
X0434834Y0070863D01*
X0434189Y0070534D01*
X0433603Y0070109D01*
X0433091Y0069597D01*
X0432666Y0069011D01*
X0432337Y0068366D01*
X0432113Y0067677D01*
X0432000Y0066962D01*
X0432000Y0066900D01*
X0436300Y0066900D01*
X0436900Y0066900D01*
X0436900Y0071200D01*
X0436962Y0071200D01*
X0437677Y0071087D01*
X0438366Y0070863D01*
X0439011Y0070534D01*
X0439597Y0070109D01*
X0440109Y0069597D01*
X0440534Y0069011D01*
X0440863Y0068366D01*
X0441087Y0067677D01*
X0441200Y0066962D01*
X0441200Y0066900D01*
X0436900Y0066900D01*
X0436900Y0066300D01*
X0441200Y0066300D01*
X0441200Y0066238D01*
X0441087Y0065523D01*
X0440863Y0064834D01*
X0440534Y0064189D01*
X0440109Y0063603D01*
X0439597Y0063091D01*
X0439011Y0062666D01*
X0438366Y0062337D01*
X0437677Y0062113D01*
X0436962Y0062000D01*
X0436900Y0062000D01*
X0436900Y0066300D01*
X0436300Y0066300D01*
X0436300Y0062000D01*
X0436238Y0062000D01*
X0436300Y0062050D02*
X0436900Y0062050D01*
X0437275Y0062050D02*
X0454318Y0062050D01*
X0454419Y0062648D02*
X0438976Y0062648D01*
X0439752Y0063247D02*
X0454614Y0063247D01*
X0454918Y0063845D02*
X0440284Y0063845D01*
X0440664Y0064444D02*
X0455363Y0064444D01*
X0456022Y0065042D02*
X0440931Y0065042D01*
X0441105Y0065641D02*
X0457121Y0065641D01*
X0457593Y0067406D02*
X0458262Y0067300D01*
X0461300Y0067300D01*
X0461300Y0071300D01*
X0454300Y0071300D01*
X0454300Y0071262D01*
X0454406Y0070593D01*
X0454615Y0069949D01*
X0454922Y0069346D01*
X0455320Y0068799D01*
X0455799Y0068320D01*
X0456346Y0067922D01*
X0456949Y0067615D01*
X0457593Y0067406D01*
X0457500Y0067436D02*
X0441125Y0067436D01*
X0440971Y0068035D02*
X0456192Y0068035D01*
X0455486Y0068633D02*
X0440727Y0068633D01*
X0440374Y0069232D02*
X0455006Y0069232D01*
X0454676Y0069830D02*
X0439875Y0069830D01*
X0439156Y0070429D02*
X0454459Y0070429D01*
X0454337Y0071027D02*
X0437860Y0071027D01*
X0436900Y0071027D02*
X0436300Y0071027D01*
X0436300Y0070429D02*
X0436900Y0070429D01*
X0436900Y0069830D02*
X0436300Y0069830D01*
X0436300Y0069232D02*
X0436900Y0069232D01*
X0436900Y0068633D02*
X0436300Y0068633D01*
X0436300Y0068035D02*
X0436900Y0068035D01*
X0436900Y0067436D02*
X0436300Y0067436D01*
X0436300Y0066838D02*
X0421900Y0066838D01*
X0421900Y0066900D02*
X0425500Y0066900D01*
X0425500Y0068215D01*
X0423215Y0070500D01*
X0421900Y0070500D01*
X0421900Y0066900D01*
X0421900Y0066300D01*
X0425500Y0066300D01*
X0425500Y0064985D01*
X0423215Y0062700D01*
X0421900Y0062700D01*
X0421900Y0066300D01*
X0421300Y0066300D01*
X0421300Y0062700D01*
X0419985Y0062700D01*
X0417700Y0064985D01*
X0417700Y0066300D01*
X0421300Y0066300D01*
X0421300Y0066900D01*
X0421300Y0070500D01*
X0419985Y0070500D01*
X0417700Y0068215D01*
X0417700Y0066900D01*
X0421300Y0066900D01*
X0421900Y0066900D01*
X0421900Y0067436D02*
X0421300Y0067436D01*
X0421300Y0066838D02*
X0416600Y0066838D01*
X0416600Y0067436D02*
X0417700Y0067436D01*
X0417700Y0068035D02*
X0416600Y0068035D01*
X0416600Y0068633D02*
X0418118Y0068633D01*
X0418716Y0069232D02*
X0416600Y0069232D01*
X0416600Y0069830D02*
X0419315Y0069830D01*
X0419913Y0070429D02*
X0416600Y0070429D01*
X0416600Y0071027D02*
X0435340Y0071027D01*
X0434044Y0070429D02*
X0423287Y0070429D01*
X0423885Y0069830D02*
X0433325Y0069830D01*
X0432826Y0069232D02*
X0424484Y0069232D01*
X0425082Y0068633D02*
X0432473Y0068633D01*
X0432229Y0068035D02*
X0425500Y0068035D01*
X0425500Y0067436D02*
X0432075Y0067436D01*
X0432000Y0066239D02*
X0425500Y0066239D01*
X0425500Y0065641D02*
X0432095Y0065641D01*
X0432269Y0065042D02*
X0425500Y0065042D01*
X0424959Y0064444D02*
X0432536Y0064444D01*
X0432916Y0063845D02*
X0424361Y0063845D01*
X0423762Y0063247D02*
X0433448Y0063247D01*
X0434224Y0062648D02*
X0416600Y0062648D01*
X0416600Y0063247D02*
X0419438Y0063247D01*
X0418839Y0063845D02*
X0416600Y0063845D01*
X0416600Y0064444D02*
X0418241Y0064444D01*
X0417700Y0065042D02*
X0416600Y0065042D01*
X0416600Y0065641D02*
X0417700Y0065641D01*
X0417700Y0066239D02*
X0416600Y0066239D01*
X0421300Y0066239D02*
X0421900Y0066239D01*
X0421900Y0065641D02*
X0421300Y0065641D01*
X0421300Y0065042D02*
X0421900Y0065042D01*
X0421900Y0064444D02*
X0421300Y0064444D01*
X0421300Y0063845D02*
X0421900Y0063845D01*
X0421900Y0063247D02*
X0421300Y0063247D01*
X0421300Y0068035D02*
X0421900Y0068035D01*
X0421900Y0068633D02*
X0421300Y0068633D01*
X0421300Y0069232D02*
X0421900Y0069232D01*
X0421900Y0069830D02*
X0421300Y0069830D01*
X0421300Y0070429D02*
X0421900Y0070429D01*
X0416600Y0071626D02*
X0461300Y0071626D01*
X0461300Y0072224D02*
X0461900Y0072224D01*
X0461900Y0072823D02*
X0461300Y0072823D01*
X0461300Y0073421D02*
X0461900Y0073421D01*
X0461900Y0074020D02*
X0461300Y0074020D01*
X0461300Y0074618D02*
X0461900Y0074618D01*
X0461900Y0075217D02*
X0461300Y0075217D01*
X0461300Y0075815D02*
X0461900Y0075815D01*
X0461300Y0077300D02*
X0458262Y0077300D01*
X0457593Y0077406D01*
X0456949Y0077615D01*
X0456346Y0077922D01*
X0455799Y0078320D01*
X0455320Y0078799D01*
X0454922Y0079346D01*
X0454615Y0079949D01*
X0454406Y0080593D01*
X0454300Y0081262D01*
X0454300Y0081300D01*
X0461300Y0081300D01*
X0461300Y0077300D01*
X0461300Y0077611D02*
X0461900Y0077611D01*
X0461900Y0078209D02*
X0461300Y0078209D01*
X0461300Y0078808D02*
X0461900Y0078808D01*
X0461900Y0079406D02*
X0461300Y0079406D01*
X0461300Y0080005D02*
X0461900Y0080005D01*
X0461900Y0080603D02*
X0461300Y0080603D01*
X0461300Y0081202D02*
X0461900Y0081202D01*
X0461300Y0081801D02*
X0416600Y0081801D01*
X0416600Y0082399D02*
X0454373Y0082399D01*
X0454533Y0082998D02*
X0416600Y0082998D01*
X0416600Y0083596D02*
X0454791Y0083596D01*
X0455170Y0084195D02*
X0416600Y0084195D01*
X0416600Y0084793D02*
X0455712Y0084793D01*
X0456570Y0085392D02*
X0416600Y0085392D01*
X0416600Y0085990D02*
X0457249Y0085990D01*
X0455804Y0086589D02*
X0416600Y0086589D01*
X0416600Y0081202D02*
X0454309Y0081202D01*
X0454404Y0080603D02*
X0416600Y0080603D01*
X0416600Y0080005D02*
X0454597Y0080005D01*
X0454892Y0079406D02*
X0416600Y0079406D01*
X0416600Y0078808D02*
X0455313Y0078808D01*
X0455951Y0078209D02*
X0416600Y0078209D01*
X0416600Y0077611D02*
X0456962Y0077611D01*
X0457728Y0075815D02*
X0416600Y0075815D01*
X0416600Y0075217D02*
X0456263Y0075217D01*
X0455537Y0074618D02*
X0416600Y0074618D01*
X0416600Y0074020D02*
X0455043Y0074020D01*
X0454702Y0073421D02*
X0416600Y0073421D01*
X0416600Y0072823D02*
X0454476Y0072823D01*
X0454345Y0072224D02*
X0416600Y0072224D01*
X0416600Y0076414D02*
X0466600Y0076414D01*
X0466600Y0077012D02*
X0416600Y0077012D01*
X0436300Y0066239D02*
X0436900Y0066239D01*
X0436900Y0065641D02*
X0436300Y0065641D01*
X0436300Y0065042D02*
X0436900Y0065042D01*
X0436900Y0064444D02*
X0436300Y0064444D01*
X0436300Y0063845D02*
X0436900Y0063845D01*
X0436900Y0063247D02*
X0436300Y0063247D01*
X0436300Y0062648D02*
X0436900Y0062648D01*
X0436900Y0066838D02*
X0466600Y0066838D01*
X0466600Y0067436D02*
X0465700Y0067436D01*
X0466600Y0066239D02*
X0441200Y0066239D01*
X0461300Y0065641D02*
X0461900Y0065641D01*
X0461900Y0065042D02*
X0461300Y0065042D01*
X0461300Y0064444D02*
X0461900Y0064444D01*
X0461900Y0063845D02*
X0461300Y0063845D01*
X0461300Y0063247D02*
X0461900Y0063247D01*
X0461900Y0062648D02*
X0461300Y0062648D01*
X0461300Y0062050D02*
X0461900Y0062050D01*
X0466079Y0065641D02*
X0466600Y0065641D01*
X0461900Y0067436D02*
X0461300Y0067436D01*
X0461300Y0068035D02*
X0461900Y0068035D01*
X0461900Y0068633D02*
X0461300Y0068633D01*
X0461300Y0069232D02*
X0461900Y0069232D01*
X0461900Y0069830D02*
X0461300Y0069830D01*
X0461300Y0070429D02*
X0461900Y0070429D01*
X0461900Y0071027D02*
X0461300Y0071027D01*
X0465472Y0075815D02*
X0466600Y0075815D01*
X0466600Y0077611D02*
X0466238Y0077611D01*
X0461900Y0082399D02*
X0461300Y0082399D01*
X0461300Y0082998D02*
X0461900Y0082998D01*
X0461900Y0083596D02*
X0461300Y0083596D01*
X0461300Y0084195D02*
X0461900Y0084195D01*
X0461900Y0084793D02*
X0461300Y0084793D01*
X0461300Y0085392D02*
X0461900Y0085392D01*
X0465951Y0085990D02*
X0466600Y0085990D01*
M02*
