G75*
%MOIN*%
%OFA0B0*%
%FSLAX25Y25*%
%IPPOS*%
%LPD*%
%AMOC8*
5,1,8,0,0,1.08239X$1,22.5*
%
%ADD10C,0.10000*%
%ADD11OC8,0.10000*%
%ADD12OC8,0.05200*%
%ADD13OC8,0.06300*%
%ADD14C,0.06300*%
%ADD15C,0.06600*%
%ADD16C,0.05200*%
%ADD17C,0.06000*%
%ADD18R,0.05150X0.05150*%
%ADD19C,0.07200*%
%ADD20C,0.07050*%
%ADD21C,0.01200*%
D10*
X0336600Y0081600D03*
D11*
X0336600Y0101600D03*
D12*
X0301600Y0106600D03*
X0371600Y0106600D03*
X0386600Y0116600D03*
X0371600Y0086600D03*
X0386600Y0076600D03*
X0381600Y0066600D03*
X0381600Y0056600D03*
X0371600Y0046600D03*
X0349100Y0041600D03*
X0341600Y0046600D03*
X0316600Y0056600D03*
X0301600Y0056600D03*
X0301600Y0066600D03*
X0341600Y0036600D03*
X0381600Y0036600D03*
X0381600Y0021600D03*
X0341600Y0021600D03*
X0316600Y0016600D03*
X0301600Y0016600D03*
X0281600Y0026600D03*
X0261600Y0026600D03*
X0186600Y0051600D03*
X0171600Y0051600D03*
X0171600Y0091600D03*
X0186600Y0091600D03*
X0171600Y0101600D03*
X0171600Y0141600D03*
X0421600Y0066600D03*
D13*
X0409600Y0036600D03*
D14*
X0423600Y0036600D03*
D15*
X0436600Y0066600D03*
X0436600Y0106600D03*
D16*
X0289200Y0076600D02*
X0284000Y0076600D01*
X0259200Y0076600D02*
X0254000Y0076600D01*
X0254000Y0066600D02*
X0259200Y0066600D01*
X0284000Y0066600D02*
X0289200Y0066600D01*
X0289200Y0056600D02*
X0284000Y0056600D01*
X0259200Y0056600D02*
X0254000Y0056600D01*
X0254000Y0046600D02*
X0259200Y0046600D01*
X0284000Y0046600D02*
X0289200Y0046600D01*
D17*
X0214600Y0061600D02*
X0208600Y0061600D01*
X0208600Y0071600D02*
X0214600Y0071600D01*
X0214600Y0081600D02*
X0208600Y0081600D01*
X0215500Y0100800D02*
X0215500Y0106800D01*
X0197700Y0106800D02*
X0197700Y0100800D01*
X0253600Y0101600D02*
X0259600Y0101600D01*
X0259600Y0111600D02*
X0253600Y0111600D01*
X0253600Y0121600D02*
X0259600Y0121600D01*
X0215500Y0126400D02*
X0215500Y0132400D01*
X0197700Y0132400D02*
X0197700Y0126400D01*
X0024600Y0111600D02*
X0018600Y0111600D01*
X0018600Y0101600D02*
X0024600Y0101600D01*
X0024600Y0091600D02*
X0018600Y0091600D01*
X0018600Y0081600D02*
X0024600Y0081600D01*
X0024600Y0071600D02*
X0018600Y0071600D01*
X0018600Y0061600D02*
X0024600Y0061600D01*
X0024600Y0051600D02*
X0018600Y0051600D01*
X0458600Y0051600D02*
X0464600Y0051600D01*
X0464600Y0061600D02*
X0458600Y0061600D01*
X0458600Y0071600D02*
X0464600Y0071600D01*
X0464600Y0081600D02*
X0458600Y0081600D01*
X0458600Y0091600D02*
X0464600Y0091600D01*
X0464600Y0101600D02*
X0458600Y0101600D01*
X0458600Y0111600D02*
X0464600Y0111600D01*
D18*
X0421443Y0096600D03*
X0401757Y0096600D03*
D19*
X0155200Y0091600D02*
X0148000Y0091600D01*
X0148000Y0081600D02*
X0155200Y0081600D01*
X0155200Y0071600D02*
X0148000Y0071600D01*
X0148000Y0061600D02*
X0155200Y0061600D01*
X0155200Y0051600D02*
X0148000Y0051600D01*
X0148000Y0041600D02*
X0155200Y0041600D01*
X0065200Y0041600D02*
X0058000Y0041600D01*
X0058000Y0051600D02*
X0065200Y0051600D01*
X0065200Y0061600D02*
X0058000Y0061600D01*
X0058000Y0071600D02*
X0065200Y0071600D01*
X0065200Y0081600D02*
X0058000Y0081600D01*
X0058000Y0091600D02*
X0065200Y0091600D01*
X0065200Y0101600D02*
X0058000Y0101600D01*
X0058000Y0111600D02*
X0065200Y0111600D01*
X0148000Y0111600D02*
X0155200Y0111600D01*
X0155200Y0101600D02*
X0148000Y0101600D01*
D20*
X0191600Y0027625D02*
X0191600Y0020575D01*
X0211600Y0020575D02*
X0211600Y0027625D01*
D21*
X0006200Y0006200D02*
X0006200Y0147000D01*
X0011373Y0147000D01*
X0010258Y0145885D01*
X0008803Y0143365D01*
X0008050Y0140555D01*
X0008050Y0137645D01*
X0008803Y0134835D01*
X0010258Y0132315D01*
X0012315Y0130258D01*
X0014835Y0128803D01*
X0017645Y0128050D01*
X0020555Y0128050D01*
X0023365Y0128803D01*
X0025885Y0130258D01*
X0027942Y0132315D01*
X0029397Y0134835D01*
X0030150Y0137645D01*
X0030150Y0140555D01*
X0029397Y0143365D01*
X0027942Y0145885D01*
X0026827Y0147000D01*
X0456373Y0147000D01*
X0455258Y0145885D01*
X0453803Y0143365D01*
X0453050Y0140555D01*
X0453050Y0137645D01*
X0453803Y0134835D01*
X0455258Y0132315D01*
X0457315Y0130258D01*
X0459835Y0128803D01*
X0462645Y0128050D01*
X0465555Y0128050D01*
X0468365Y0128803D01*
X0470885Y0130258D01*
X0472942Y0132315D01*
X0474397Y0134835D01*
X0475150Y0137645D01*
X0475150Y0140555D01*
X0474397Y0143365D01*
X0472942Y0145885D01*
X0471827Y0147000D01*
X0477000Y0147000D01*
X0477000Y0006200D01*
X0006200Y0006200D01*
X0006200Y0006394D02*
X0477000Y0006394D01*
X0477000Y0007593D02*
X0006200Y0007593D01*
X0006200Y0008791D02*
X0014880Y0008791D01*
X0014835Y0008803D02*
X0017645Y0008050D01*
X0020555Y0008050D01*
X0023365Y0008803D01*
X0025885Y0010258D01*
X0027942Y0012315D01*
X0029397Y0014835D01*
X0030150Y0017645D01*
X0030150Y0020555D01*
X0029397Y0023365D01*
X0027942Y0025885D01*
X0025885Y0027942D01*
X0023365Y0029397D01*
X0020555Y0030150D01*
X0017645Y0030150D01*
X0014835Y0029397D01*
X0012315Y0027942D01*
X0010258Y0025885D01*
X0008803Y0023365D01*
X0008050Y0020555D01*
X0008050Y0017645D01*
X0008803Y0014835D01*
X0010258Y0012315D01*
X0012315Y0010258D01*
X0014835Y0008803D01*
X0012780Y0009990D02*
X0006200Y0009990D01*
X0006200Y0011188D02*
X0011385Y0011188D01*
X0010217Y0012387D02*
X0006200Y0012387D01*
X0006200Y0013585D02*
X0009525Y0013585D01*
X0008833Y0014784D02*
X0006200Y0014784D01*
X0006200Y0015982D02*
X0008496Y0015982D01*
X0008174Y0017181D02*
X0006200Y0017181D01*
X0006200Y0018379D02*
X0008050Y0018379D01*
X0008050Y0019578D02*
X0006200Y0019578D01*
X0006200Y0020776D02*
X0008109Y0020776D01*
X0008430Y0021975D02*
X0006200Y0021975D01*
X0006200Y0023173D02*
X0008752Y0023173D01*
X0009384Y0024372D02*
X0006200Y0024372D01*
X0006200Y0025570D02*
X0010076Y0025570D01*
X0011142Y0026769D02*
X0006200Y0026769D01*
X0006200Y0027967D02*
X0012359Y0027967D01*
X0014434Y0029166D02*
X0006200Y0029166D01*
X0006200Y0030364D02*
X0187255Y0030364D01*
X0187217Y0030311D02*
X0186850Y0029592D01*
X0186601Y0028825D01*
X0186475Y0028028D01*
X0186475Y0024675D01*
X0191025Y0024675D01*
X0191025Y0032723D01*
X0190400Y0032624D01*
X0189633Y0032375D01*
X0188914Y0032008D01*
X0188261Y0031534D01*
X0187691Y0030964D01*
X0187217Y0030311D01*
X0186712Y0029166D02*
X0023766Y0029166D01*
X0025841Y0027967D02*
X0186475Y0027967D01*
X0186475Y0026769D02*
X0027058Y0026769D01*
X0028124Y0025570D02*
X0186475Y0025570D01*
X0186475Y0023525D02*
X0186475Y0020172D01*
X0186601Y0019375D01*
X0186850Y0018608D01*
X0187217Y0017889D01*
X0187691Y0017236D01*
X0188261Y0016666D01*
X0188914Y0016192D01*
X0189633Y0015825D01*
X0190400Y0015576D01*
X0191025Y0015477D01*
X0191025Y0023525D01*
X0186475Y0023525D01*
X0186475Y0023173D02*
X0029448Y0023173D01*
X0029770Y0021975D02*
X0186475Y0021975D01*
X0186475Y0020776D02*
X0030091Y0020776D01*
X0030150Y0019578D02*
X0186569Y0019578D01*
X0186967Y0018379D02*
X0030150Y0018379D01*
X0030025Y0017181D02*
X0187747Y0017181D01*
X0189325Y0015982D02*
X0029704Y0015982D01*
X0029367Y0014784D02*
X0255022Y0014784D01*
X0253824Y0015982D02*
X0214427Y0015982D01*
X0214616Y0016061D02*
X0216114Y0017559D01*
X0216925Y0019516D01*
X0216925Y0028684D01*
X0216114Y0030641D01*
X0214616Y0032139D01*
X0214000Y0032395D01*
X0214000Y0056800D01*
X0215555Y0056800D01*
X0217319Y0057531D01*
X0218669Y0058881D01*
X0218801Y0059200D01*
X0235606Y0059200D01*
X0239200Y0055606D01*
X0239200Y0031123D01*
X0239565Y0030241D01*
X0260241Y0009565D01*
X0261123Y0009200D01*
X0312077Y0009200D01*
X0312959Y0009565D01*
X0315594Y0012200D01*
X0318423Y0012200D01*
X0321000Y0014777D01*
X0321000Y0018423D01*
X0319000Y0020423D01*
X0319000Y0027077D01*
X0318635Y0027959D01*
X0308635Y0037959D01*
X0307959Y0038635D01*
X0307077Y0039000D01*
X0262594Y0039000D01*
X0259394Y0042200D01*
X0260075Y0042200D01*
X0261692Y0042870D01*
X0262930Y0044108D01*
X0262968Y0044200D01*
X0267077Y0044200D01*
X0267959Y0044565D01*
X0272959Y0049565D01*
X0273635Y0050241D01*
X0274000Y0051123D01*
X0274000Y0070606D01*
X0277594Y0074200D01*
X0280232Y0074200D01*
X0280270Y0074108D01*
X0281508Y0072870D01*
X0283125Y0072200D01*
X0290075Y0072200D01*
X0291692Y0072870D01*
X0292930Y0074108D01*
X0292968Y0074200D01*
X0332077Y0074200D01*
X0332959Y0074565D01*
X0333795Y0075401D01*
X0335247Y0074800D01*
X0337953Y0074800D01*
X0340452Y0075835D01*
X0342365Y0077748D01*
X0343400Y0080247D01*
X0343400Y0082953D01*
X0342799Y0084404D01*
X0352594Y0094200D01*
X0397383Y0094200D01*
X0397383Y0093280D01*
X0398437Y0092225D01*
X0405078Y0092225D01*
X0406132Y0093280D01*
X0406132Y0099920D01*
X0405078Y0100975D01*
X0398437Y0100975D01*
X0397383Y0099920D01*
X0397383Y0099000D01*
X0351123Y0099000D01*
X0350241Y0098635D01*
X0349565Y0097959D01*
X0339404Y0087799D01*
X0337953Y0088400D01*
X0335247Y0088400D01*
X0332748Y0087365D01*
X0330835Y0085452D01*
X0329800Y0082953D01*
X0329800Y0080247D01*
X0330317Y0079000D01*
X0292968Y0079000D01*
X0292930Y0079092D01*
X0291692Y0080330D01*
X0290075Y0081000D01*
X0289000Y0081000D01*
X0289000Y0100606D01*
X0292594Y0104200D01*
X0297777Y0104200D01*
X0299777Y0102200D01*
X0303423Y0102200D01*
X0306000Y0104777D01*
X0306000Y0108423D01*
X0303423Y0111000D01*
X0299777Y0111000D01*
X0297777Y0109000D01*
X0291123Y0109000D01*
X0290241Y0108635D01*
X0289565Y0107959D01*
X0284565Y0102959D01*
X0284200Y0102077D01*
X0284200Y0081000D01*
X0283125Y0081000D01*
X0281508Y0080330D01*
X0280270Y0079092D01*
X0280232Y0079000D01*
X0276123Y0079000D01*
X0275241Y0078635D01*
X0274565Y0077959D01*
X0269565Y0072959D01*
X0269200Y0072077D01*
X0269200Y0052594D01*
X0265606Y0049000D01*
X0262968Y0049000D01*
X0262930Y0049092D01*
X0261692Y0050330D01*
X0260075Y0051000D01*
X0253125Y0051000D01*
X0251508Y0050330D01*
X0250270Y0049092D01*
X0249600Y0047475D01*
X0249600Y0045725D01*
X0250270Y0044108D01*
X0251508Y0042870D01*
X0253125Y0042200D01*
X0254200Y0042200D01*
X0254200Y0041123D01*
X0254565Y0040241D01*
X0255241Y0039565D01*
X0260241Y0034565D01*
X0261123Y0034200D01*
X0305606Y0034200D01*
X0314200Y0025606D01*
X0314200Y0020423D01*
X0312200Y0018423D01*
X0312200Y0015594D01*
X0310606Y0014000D01*
X0305223Y0014000D01*
X0306000Y0014777D01*
X0306000Y0018423D01*
X0303423Y0021000D01*
X0299777Y0021000D01*
X0297777Y0019000D01*
X0267594Y0019000D01*
X0264000Y0022594D01*
X0264000Y0022777D01*
X0266000Y0024777D01*
X0266000Y0028423D01*
X0263423Y0031000D01*
X0259777Y0031000D01*
X0257777Y0029000D01*
X0257594Y0029000D01*
X0249000Y0037594D01*
X0249000Y0060606D01*
X0251386Y0062992D01*
X0251508Y0062870D01*
X0253125Y0062200D01*
X0260075Y0062200D01*
X0261692Y0062870D01*
X0262930Y0064108D01*
X0263600Y0065725D01*
X0263600Y0067475D01*
X0262930Y0069092D01*
X0261692Y0070330D01*
X0260075Y0071000D01*
X0253125Y0071000D01*
X0251508Y0070330D01*
X0250270Y0069092D01*
X0249967Y0068361D01*
X0249565Y0067959D01*
X0244565Y0062959D01*
X0244200Y0062077D01*
X0244200Y0036123D01*
X0244565Y0035241D01*
X0245241Y0034565D01*
X0255241Y0024565D01*
X0256123Y0024200D01*
X0257777Y0024200D01*
X0259200Y0022777D01*
X0259200Y0021123D01*
X0259565Y0020241D01*
X0260241Y0019565D01*
X0264565Y0015241D01*
X0265241Y0014565D01*
X0266123Y0014200D01*
X0297777Y0014200D01*
X0297977Y0014000D01*
X0262594Y0014000D01*
X0244000Y0032594D01*
X0244000Y0057077D01*
X0243635Y0057959D01*
X0242959Y0058635D01*
X0237959Y0063635D01*
X0237077Y0064000D01*
X0218801Y0064000D01*
X0218669Y0064319D01*
X0217319Y0065669D01*
X0215555Y0066400D01*
X0207645Y0066400D01*
X0205881Y0065669D01*
X0204531Y0064319D01*
X0203800Y0062555D01*
X0203800Y0060645D01*
X0204531Y0058881D01*
X0205881Y0057531D01*
X0207645Y0056800D01*
X0209200Y0056800D01*
X0209200Y0032395D01*
X0208584Y0032139D01*
X0207086Y0030641D01*
X0206275Y0028684D01*
X0206275Y0019516D01*
X0207086Y0017559D01*
X0208584Y0016061D01*
X0210541Y0015250D01*
X0212659Y0015250D01*
X0214616Y0016061D01*
X0215736Y0017181D02*
X0252625Y0017181D01*
X0251427Y0018379D02*
X0216454Y0018379D01*
X0216925Y0019578D02*
X0250228Y0019578D01*
X0249030Y0020776D02*
X0216925Y0020776D01*
X0216925Y0021975D02*
X0247831Y0021975D01*
X0246633Y0023173D02*
X0216925Y0023173D01*
X0216925Y0024372D02*
X0245434Y0024372D01*
X0244236Y0025570D02*
X0216925Y0025570D01*
X0216925Y0026769D02*
X0243037Y0026769D01*
X0241839Y0027967D02*
X0216925Y0027967D01*
X0216726Y0029166D02*
X0240640Y0029166D01*
X0239514Y0030364D02*
X0216229Y0030364D01*
X0215193Y0031563D02*
X0239200Y0031563D01*
X0239200Y0032761D02*
X0214000Y0032761D01*
X0214000Y0033960D02*
X0239200Y0033960D01*
X0239200Y0035158D02*
X0214000Y0035158D01*
X0214000Y0036357D02*
X0239200Y0036357D01*
X0239200Y0037555D02*
X0214000Y0037555D01*
X0214000Y0038754D02*
X0239200Y0038754D01*
X0239200Y0039952D02*
X0214000Y0039952D01*
X0214000Y0041151D02*
X0239200Y0041151D01*
X0239200Y0042349D02*
X0214000Y0042349D01*
X0214000Y0043548D02*
X0239200Y0043548D01*
X0239200Y0044746D02*
X0214000Y0044746D01*
X0214000Y0045945D02*
X0239200Y0045945D01*
X0239200Y0047143D02*
X0214000Y0047143D01*
X0214000Y0048342D02*
X0239200Y0048342D01*
X0239200Y0049540D02*
X0214000Y0049540D01*
X0214000Y0050739D02*
X0239200Y0050739D01*
X0239200Y0051937D02*
X0214000Y0051937D01*
X0214000Y0053136D02*
X0239200Y0053136D01*
X0239200Y0054334D02*
X0214000Y0054334D01*
X0214000Y0055533D02*
X0239200Y0055533D01*
X0238074Y0056732D02*
X0214000Y0056732D01*
X0217718Y0057930D02*
X0236876Y0057930D01*
X0235677Y0059129D02*
X0218772Y0059129D01*
X0212479Y0061600D02*
X0211600Y0060721D01*
X0211600Y0024100D01*
X0206275Y0024372D02*
X0192175Y0024372D01*
X0192175Y0024675D02*
X0192175Y0023525D01*
X0196725Y0023525D01*
X0196725Y0020172D01*
X0196599Y0019375D01*
X0196350Y0018608D01*
X0195983Y0017889D01*
X0195509Y0017236D01*
X0194939Y0016666D01*
X0194286Y0016192D01*
X0193567Y0015825D01*
X0192800Y0015576D01*
X0192175Y0015477D01*
X0192175Y0023525D01*
X0191025Y0023525D01*
X0191025Y0024675D01*
X0192175Y0024675D01*
X0192175Y0032723D01*
X0192800Y0032624D01*
X0193567Y0032375D01*
X0194286Y0032008D01*
X0194939Y0031534D01*
X0195509Y0030964D01*
X0195983Y0030311D01*
X0196350Y0029592D01*
X0196599Y0028825D01*
X0196725Y0028028D01*
X0196725Y0024675D01*
X0192175Y0024675D01*
X0192175Y0025570D02*
X0191025Y0025570D01*
X0191025Y0024372D02*
X0028816Y0024372D01*
X0006200Y0031563D02*
X0188301Y0031563D01*
X0191025Y0031563D02*
X0192175Y0031563D01*
X0192175Y0030364D02*
X0191025Y0030364D01*
X0191025Y0029166D02*
X0192175Y0029166D01*
X0192175Y0027967D02*
X0191025Y0027967D01*
X0191025Y0026769D02*
X0192175Y0026769D01*
X0196725Y0026769D02*
X0206275Y0026769D01*
X0206275Y0027967D02*
X0196725Y0027967D01*
X0196488Y0029166D02*
X0206474Y0029166D01*
X0206971Y0030364D02*
X0195945Y0030364D01*
X0194899Y0031563D02*
X0208007Y0031563D01*
X0209200Y0032761D02*
X0006200Y0032761D01*
X0006200Y0033960D02*
X0209200Y0033960D01*
X0209200Y0035158D02*
X0006200Y0035158D01*
X0006200Y0036357D02*
X0056547Y0036357D01*
X0056926Y0036200D02*
X0066274Y0036200D01*
X0068259Y0037022D01*
X0069778Y0038541D01*
X0070600Y0040526D01*
X0070600Y0042674D01*
X0069778Y0044659D01*
X0068259Y0046178D01*
X0067240Y0046600D01*
X0068259Y0047022D01*
X0069778Y0048541D01*
X0070600Y0050526D01*
X0070600Y0052674D01*
X0069778Y0054659D01*
X0068259Y0056178D01*
X0067240Y0056600D01*
X0068259Y0057022D01*
X0069778Y0058541D01*
X0070600Y0060526D01*
X0070600Y0062674D01*
X0069778Y0064659D01*
X0068259Y0066178D01*
X0067240Y0066600D01*
X0068259Y0067022D01*
X0069778Y0068541D01*
X0070600Y0070526D01*
X0070600Y0072674D01*
X0069778Y0074659D01*
X0068259Y0076178D01*
X0067240Y0076600D01*
X0068259Y0077022D01*
X0069778Y0078541D01*
X0070600Y0080526D01*
X0070600Y0082674D01*
X0069778Y0084659D01*
X0068259Y0086178D01*
X0067240Y0086600D01*
X0068259Y0087022D01*
X0069778Y0088541D01*
X0070600Y0090526D01*
X0070600Y0092674D01*
X0069778Y0094659D01*
X0068259Y0096178D01*
X0067240Y0096600D01*
X0068259Y0097022D01*
X0069778Y0098541D01*
X0070600Y0100526D01*
X0070600Y0102674D01*
X0069778Y0104659D01*
X0068259Y0106178D01*
X0067240Y0106600D01*
X0068259Y0107022D01*
X0069778Y0108541D01*
X0070600Y0110526D01*
X0070600Y0112674D01*
X0069778Y0114659D01*
X0068259Y0116178D01*
X0066274Y0117000D01*
X0056926Y0117000D01*
X0054941Y0116178D01*
X0053422Y0114659D01*
X0052600Y0112674D01*
X0052600Y0110526D01*
X0053422Y0108541D01*
X0054941Y0107022D01*
X0055960Y0106600D01*
X0054941Y0106178D01*
X0053422Y0104659D01*
X0052600Y0102674D01*
X0052600Y0100526D01*
X0053422Y0098541D01*
X0054941Y0097022D01*
X0055960Y0096600D01*
X0054941Y0096178D01*
X0053422Y0094659D01*
X0053149Y0094000D01*
X0047594Y0094000D01*
X0037959Y0103635D01*
X0037077Y0104000D01*
X0028801Y0104000D01*
X0028669Y0104319D01*
X0027319Y0105669D01*
X0025555Y0106400D01*
X0017645Y0106400D01*
X0015881Y0105669D01*
X0014531Y0104319D01*
X0013800Y0102555D01*
X0013800Y0100645D01*
X0014531Y0098881D01*
X0015881Y0097531D01*
X0017645Y0096800D01*
X0025555Y0096800D01*
X0027319Y0097531D01*
X0028669Y0098881D01*
X0028801Y0099200D01*
X0035606Y0099200D01*
X0044565Y0090241D01*
X0045241Y0089565D01*
X0046123Y0089200D01*
X0053149Y0089200D01*
X0053422Y0088541D01*
X0054941Y0087022D01*
X0055960Y0086600D01*
X0054941Y0086178D01*
X0053422Y0084659D01*
X0053149Y0084000D01*
X0047594Y0084000D01*
X0038635Y0092959D01*
X0038635Y0092959D01*
X0037959Y0093635D01*
X0037077Y0094000D01*
X0028801Y0094000D01*
X0028669Y0094319D01*
X0027319Y0095669D01*
X0025555Y0096400D01*
X0017645Y0096400D01*
X0015881Y0095669D01*
X0014531Y0094319D01*
X0013800Y0092555D01*
X0013800Y0090645D01*
X0014531Y0088881D01*
X0015881Y0087531D01*
X0017645Y0086800D01*
X0025555Y0086800D01*
X0027319Y0087531D01*
X0028669Y0088881D01*
X0028801Y0089200D01*
X0035606Y0089200D01*
X0044565Y0080241D01*
X0044565Y0080241D01*
X0045241Y0079565D01*
X0046123Y0079200D01*
X0053149Y0079200D01*
X0053422Y0078541D01*
X0054941Y0077022D01*
X0055960Y0076600D01*
X0054941Y0076178D01*
X0053422Y0074659D01*
X0053149Y0074000D01*
X0047594Y0074000D01*
X0037959Y0083635D01*
X0037077Y0084000D01*
X0028801Y0084000D01*
X0028669Y0084319D01*
X0027319Y0085669D01*
X0025555Y0086400D01*
X0017645Y0086400D01*
X0015881Y0085669D01*
X0014531Y0084319D01*
X0013800Y0082555D01*
X0013800Y0080645D01*
X0014531Y0078881D01*
X0015881Y0077531D01*
X0017645Y0076800D01*
X0025555Y0076800D01*
X0027319Y0077531D01*
X0028669Y0078881D01*
X0028801Y0079200D01*
X0035606Y0079200D01*
X0044565Y0070241D01*
X0045241Y0069565D01*
X0046123Y0069200D01*
X0053149Y0069200D01*
X0053422Y0068541D01*
X0054941Y0067022D01*
X0055960Y0066600D01*
X0054941Y0066178D01*
X0053422Y0064659D01*
X0053149Y0064000D01*
X0047594Y0064000D01*
X0037959Y0073635D01*
X0037077Y0074000D01*
X0028801Y0074000D01*
X0028669Y0074319D01*
X0027319Y0075669D01*
X0025555Y0076400D01*
X0017645Y0076400D01*
X0015881Y0075669D01*
X0014531Y0074319D01*
X0013800Y0072555D01*
X0013800Y0070645D01*
X0014531Y0068881D01*
X0015881Y0067531D01*
X0017645Y0066800D01*
X0025555Y0066800D01*
X0027319Y0067531D01*
X0028669Y0068881D01*
X0028801Y0069200D01*
X0035606Y0069200D01*
X0044565Y0060241D01*
X0045241Y0059565D01*
X0046123Y0059200D01*
X0053149Y0059200D01*
X0053422Y0058541D01*
X0054941Y0057022D01*
X0055960Y0056600D01*
X0054941Y0056178D01*
X0053422Y0054659D01*
X0053149Y0054000D01*
X0047594Y0054000D01*
X0037959Y0063635D01*
X0037077Y0064000D01*
X0028801Y0064000D01*
X0028669Y0064319D01*
X0027319Y0065669D01*
X0025555Y0066400D01*
X0017645Y0066400D01*
X0015881Y0065669D01*
X0014531Y0064319D01*
X0013800Y0062555D01*
X0013800Y0060645D01*
X0014531Y0058881D01*
X0015881Y0057531D01*
X0017645Y0056800D01*
X0025555Y0056800D01*
X0027319Y0057531D01*
X0028669Y0058881D01*
X0028801Y0059200D01*
X0035606Y0059200D01*
X0045241Y0049565D01*
X0046123Y0049200D01*
X0053149Y0049200D01*
X0053422Y0048541D01*
X0054941Y0047022D01*
X0055960Y0046600D01*
X0054941Y0046178D01*
X0053422Y0044659D01*
X0052600Y0042674D01*
X0052600Y0040526D01*
X0053422Y0038541D01*
X0054941Y0037022D01*
X0056926Y0036200D01*
X0054408Y0037555D02*
X0006200Y0037555D01*
X0006200Y0038754D02*
X0053334Y0038754D01*
X0052838Y0039952D02*
X0006200Y0039952D01*
X0006200Y0041151D02*
X0052600Y0041151D01*
X0052600Y0042349D02*
X0006200Y0042349D01*
X0006200Y0043548D02*
X0052962Y0043548D01*
X0053510Y0044746D02*
X0006200Y0044746D01*
X0006200Y0045945D02*
X0054708Y0045945D01*
X0054820Y0047143D02*
X0025770Y0047143D01*
X0025677Y0047113D02*
X0026366Y0047337D01*
X0027011Y0047666D01*
X0027597Y0048091D01*
X0028109Y0048603D01*
X0028534Y0049189D01*
X0028863Y0049834D01*
X0029087Y0050523D01*
X0029194Y0051200D01*
X0022000Y0051200D01*
X0022000Y0052000D01*
X0021200Y0052000D01*
X0021200Y0056200D01*
X0018238Y0056200D01*
X0017523Y0056087D01*
X0016834Y0055863D01*
X0016189Y0055534D01*
X0015603Y0055109D01*
X0015091Y0054597D01*
X0014666Y0054011D01*
X0014337Y0053366D01*
X0014113Y0052677D01*
X0014006Y0052000D01*
X0021200Y0052000D01*
X0021200Y0051200D01*
X0022000Y0051200D01*
X0022000Y0047000D01*
X0024962Y0047000D01*
X0025677Y0047113D01*
X0027847Y0048342D02*
X0053621Y0048342D01*
X0046600Y0051600D02*
X0036600Y0061600D01*
X0021600Y0061600D01*
X0027867Y0065121D02*
X0039685Y0065121D01*
X0040883Y0063923D02*
X0037264Y0063923D01*
X0038870Y0062724D02*
X0042082Y0062724D01*
X0043280Y0061526D02*
X0040069Y0061526D01*
X0041267Y0060327D02*
X0044479Y0060327D01*
X0042466Y0059129D02*
X0053179Y0059129D01*
X0054033Y0057930D02*
X0043664Y0057930D01*
X0044863Y0056732D02*
X0055643Y0056732D01*
X0054296Y0055533D02*
X0046061Y0055533D01*
X0047260Y0054334D02*
X0053288Y0054334D01*
X0046600Y0051600D02*
X0061600Y0051600D01*
X0069579Y0048342D02*
X0126464Y0048342D01*
X0125265Y0049540D02*
X0070192Y0049540D01*
X0070600Y0050739D02*
X0124359Y0050739D01*
X0124200Y0051123D02*
X0124565Y0050241D01*
X0125241Y0049565D01*
X0135241Y0039565D01*
X0136123Y0039200D01*
X0143149Y0039200D01*
X0143422Y0038541D01*
X0144941Y0037022D01*
X0146926Y0036200D01*
X0156274Y0036200D01*
X0158259Y0037022D01*
X0159778Y0038541D01*
X0160051Y0039200D01*
X0162077Y0039200D01*
X0162959Y0039565D01*
X0167959Y0044565D01*
X0168635Y0045241D01*
X0169000Y0046123D01*
X0169000Y0047977D01*
X0169777Y0047200D01*
X0173423Y0047200D01*
X0175423Y0049200D01*
X0182777Y0049200D01*
X0184777Y0047200D01*
X0188423Y0047200D01*
X0191000Y0049777D01*
X0191000Y0053423D01*
X0188423Y0056000D01*
X0184777Y0056000D01*
X0182777Y0054000D01*
X0175423Y0054000D01*
X0173423Y0056000D01*
X0169777Y0056000D01*
X0169000Y0055223D01*
X0169000Y0085606D01*
X0170594Y0087200D01*
X0173423Y0087200D01*
X0175423Y0089200D01*
X0175606Y0089200D01*
X0179200Y0085606D01*
X0179200Y0076123D01*
X0179565Y0075241D01*
X0184565Y0070241D01*
X0185241Y0069565D01*
X0186123Y0069200D01*
X0204399Y0069200D01*
X0204531Y0068881D01*
X0205881Y0067531D01*
X0207645Y0066800D01*
X0215555Y0066800D01*
X0217319Y0067531D01*
X0218669Y0068881D01*
X0219400Y0070645D01*
X0219400Y0071006D01*
X0222959Y0074565D01*
X0223635Y0075241D01*
X0224000Y0076123D01*
X0224000Y0098245D01*
X0223635Y0099127D01*
X0220300Y0102462D01*
X0220300Y0107755D01*
X0219569Y0109519D01*
X0218219Y0110869D01*
X0217900Y0111001D01*
X0217900Y0122199D01*
X0218219Y0122331D01*
X0219569Y0123681D01*
X0220300Y0125445D01*
X0220300Y0133355D01*
X0219569Y0135119D01*
X0218219Y0136469D01*
X0216455Y0137200D01*
X0214545Y0137200D01*
X0212781Y0136469D01*
X0211431Y0135119D01*
X0210700Y0133355D01*
X0210700Y0125445D01*
X0211431Y0123681D01*
X0212781Y0122331D01*
X0213100Y0122199D01*
X0213100Y0111001D01*
X0212781Y0110869D01*
X0211431Y0109519D01*
X0210700Y0107755D01*
X0210700Y0099845D01*
X0211431Y0098081D01*
X0212781Y0096731D01*
X0214545Y0096000D01*
X0216455Y0096000D01*
X0218219Y0096731D01*
X0218731Y0097243D01*
X0219200Y0096773D01*
X0219200Y0077594D01*
X0217288Y0075682D01*
X0215555Y0076400D01*
X0207645Y0076400D01*
X0205881Y0075669D01*
X0204531Y0074319D01*
X0204399Y0074000D01*
X0187594Y0074000D01*
X0184000Y0077594D01*
X0184000Y0087077D01*
X0183635Y0087959D01*
X0182959Y0088635D01*
X0177959Y0093635D01*
X0177077Y0094000D01*
X0175423Y0094000D01*
X0173423Y0096000D01*
X0169777Y0096000D01*
X0167200Y0093423D01*
X0167200Y0090594D01*
X0164565Y0087959D01*
X0164200Y0087077D01*
X0164200Y0047594D01*
X0160606Y0044000D01*
X0160051Y0044000D01*
X0159778Y0044659D01*
X0158259Y0046178D01*
X0156976Y0046709D01*
X0157196Y0046781D01*
X0157925Y0047153D01*
X0158588Y0047634D01*
X0159166Y0048212D01*
X0159647Y0048875D01*
X0160019Y0049604D01*
X0160272Y0050382D01*
X0160400Y0051191D01*
X0160400Y0051200D01*
X0152000Y0051200D01*
X0152000Y0052000D01*
X0160400Y0052000D01*
X0160400Y0052009D01*
X0160272Y0052818D01*
X0160019Y0053596D01*
X0159647Y0054325D01*
X0159166Y0054988D01*
X0158588Y0055566D01*
X0157925Y0056047D01*
X0157196Y0056419D01*
X0156976Y0056491D01*
X0158259Y0057022D01*
X0159778Y0058541D01*
X0160600Y0060526D01*
X0160600Y0062674D01*
X0159778Y0064659D01*
X0158259Y0066178D01*
X0157240Y0066600D01*
X0158259Y0067022D01*
X0159778Y0068541D01*
X0160600Y0070526D01*
X0160600Y0072674D01*
X0159778Y0074659D01*
X0158259Y0076178D01*
X0157240Y0076600D01*
X0158259Y0077022D01*
X0159778Y0078541D01*
X0160600Y0080526D01*
X0160600Y0082674D01*
X0159778Y0084659D01*
X0158259Y0086178D01*
X0157240Y0086600D01*
X0158259Y0087022D01*
X0159778Y0088541D01*
X0160051Y0089200D01*
X0162077Y0089200D01*
X0162959Y0089565D01*
X0170594Y0097200D01*
X0173423Y0097200D01*
X0175423Y0099200D01*
X0193167Y0099200D01*
X0193631Y0098081D01*
X0194981Y0096731D01*
X0196745Y0096000D01*
X0198655Y0096000D01*
X0200419Y0096731D01*
X0201769Y0098081D01*
X0202500Y0099845D01*
X0202500Y0107755D01*
X0201769Y0109519D01*
X0200419Y0110869D01*
X0200100Y0111001D01*
X0200100Y0122199D01*
X0200419Y0122331D01*
X0201769Y0123681D01*
X0202500Y0125445D01*
X0202500Y0133355D01*
X0201769Y0135119D01*
X0200419Y0136469D01*
X0198655Y0137200D01*
X0196745Y0137200D01*
X0194981Y0136469D01*
X0193631Y0135119D01*
X0192900Y0133355D01*
X0192900Y0125445D01*
X0193631Y0123681D01*
X0194981Y0122331D01*
X0195300Y0122199D01*
X0195300Y0111001D01*
X0194981Y0110869D01*
X0193631Y0109519D01*
X0192900Y0107755D01*
X0192900Y0104000D01*
X0175423Y0104000D01*
X0173423Y0106000D01*
X0169777Y0106000D01*
X0167200Y0103423D01*
X0167200Y0100594D01*
X0160606Y0094000D01*
X0160051Y0094000D01*
X0159778Y0094659D01*
X0158259Y0096178D01*
X0157240Y0096600D01*
X0158259Y0097022D01*
X0159778Y0098541D01*
X0160600Y0100526D01*
X0160600Y0102674D01*
X0159778Y0104659D01*
X0158259Y0106178D01*
X0157240Y0106600D01*
X0158259Y0107022D01*
X0159778Y0108541D01*
X0160600Y0110526D01*
X0160600Y0112674D01*
X0159778Y0114659D01*
X0158259Y0116178D01*
X0156274Y0117000D01*
X0146926Y0117000D01*
X0144941Y0116178D01*
X0143422Y0114659D01*
X0142600Y0112674D01*
X0142600Y0110526D01*
X0143422Y0108541D01*
X0144941Y0107022D01*
X0145960Y0106600D01*
X0144941Y0106178D01*
X0143422Y0104659D01*
X0142600Y0102674D01*
X0142600Y0100526D01*
X0143422Y0098541D01*
X0144941Y0097022D01*
X0145960Y0096600D01*
X0144941Y0096178D01*
X0143422Y0094659D01*
X0142600Y0092674D01*
X0142600Y0090526D01*
X0143422Y0088541D01*
X0144941Y0087022D01*
X0145960Y0086600D01*
X0144941Y0086178D01*
X0143422Y0084659D01*
X0142600Y0082674D01*
X0142600Y0080526D01*
X0143422Y0078541D01*
X0144941Y0077022D01*
X0145960Y0076600D01*
X0144941Y0076178D01*
X0143422Y0074659D01*
X0142600Y0072674D01*
X0142600Y0070526D01*
X0143422Y0068541D01*
X0144941Y0067022D01*
X0145960Y0066600D01*
X0144941Y0066178D01*
X0143422Y0064659D01*
X0142600Y0062674D01*
X0142600Y0060526D01*
X0143422Y0058541D01*
X0144941Y0057022D01*
X0146224Y0056491D01*
X0146004Y0056419D01*
X0145275Y0056047D01*
X0144612Y0055566D01*
X0144034Y0054988D01*
X0143553Y0054325D01*
X0143181Y0053596D01*
X0142928Y0052818D01*
X0142800Y0052009D01*
X0142800Y0052000D01*
X0151200Y0052000D01*
X0151200Y0051200D01*
X0142800Y0051200D01*
X0142800Y0051191D01*
X0142928Y0050382D01*
X0143181Y0049604D01*
X0143553Y0048875D01*
X0144034Y0048212D01*
X0144612Y0047634D01*
X0145275Y0047153D01*
X0146004Y0046781D01*
X0146224Y0046709D01*
X0144941Y0046178D01*
X0143422Y0044659D01*
X0143149Y0044000D01*
X0137594Y0044000D01*
X0129000Y0052594D01*
X0129000Y0112077D01*
X0128635Y0112959D01*
X0118635Y0122959D01*
X0117959Y0123635D01*
X0117077Y0124000D01*
X0026123Y0124000D01*
X0025241Y0123635D01*
X0020241Y0118635D01*
X0019565Y0117959D01*
X0019200Y0117077D01*
X0019200Y0116400D01*
X0017645Y0116400D01*
X0015881Y0115669D01*
X0014531Y0114319D01*
X0013800Y0112555D01*
X0013800Y0110645D01*
X0014531Y0108881D01*
X0015881Y0107531D01*
X0017645Y0106800D01*
X0025555Y0106800D01*
X0027319Y0107531D01*
X0028669Y0108881D01*
X0029400Y0110645D01*
X0029400Y0112555D01*
X0028669Y0114319D01*
X0027319Y0115669D01*
X0025555Y0116400D01*
X0024794Y0116400D01*
X0027594Y0119200D01*
X0115606Y0119200D01*
X0124200Y0110606D01*
X0124200Y0051123D01*
X0124200Y0051937D02*
X0070600Y0051937D01*
X0070409Y0053136D02*
X0124200Y0053136D01*
X0124200Y0054334D02*
X0069912Y0054334D01*
X0068904Y0055533D02*
X0124200Y0055533D01*
X0124200Y0056732D02*
X0067557Y0056732D01*
X0069167Y0057930D02*
X0124200Y0057930D01*
X0124200Y0059129D02*
X0070021Y0059129D01*
X0070518Y0060327D02*
X0124200Y0060327D01*
X0124200Y0061526D02*
X0070600Y0061526D01*
X0070579Y0062724D02*
X0124200Y0062724D01*
X0124200Y0063923D02*
X0070083Y0063923D01*
X0069316Y0065121D02*
X0124200Y0065121D01*
X0124200Y0066320D02*
X0067917Y0066320D01*
X0068755Y0067518D02*
X0124200Y0067518D01*
X0124200Y0068717D02*
X0069851Y0068717D01*
X0070347Y0069915D02*
X0124200Y0069915D01*
X0124200Y0071114D02*
X0070600Y0071114D01*
X0070600Y0072312D02*
X0124200Y0072312D01*
X0124200Y0073511D02*
X0070253Y0073511D01*
X0069728Y0074709D02*
X0124200Y0074709D01*
X0124200Y0075908D02*
X0068529Y0075908D01*
X0068343Y0077106D02*
X0124200Y0077106D01*
X0124200Y0078305D02*
X0069541Y0078305D01*
X0070176Y0079503D02*
X0124200Y0079503D01*
X0124200Y0080702D02*
X0070600Y0080702D01*
X0070600Y0081900D02*
X0124200Y0081900D01*
X0124200Y0083099D02*
X0070424Y0083099D01*
X0069928Y0084297D02*
X0124200Y0084297D01*
X0124200Y0085496D02*
X0068941Y0085496D01*
X0067467Y0086694D02*
X0124200Y0086694D01*
X0124200Y0087893D02*
X0069130Y0087893D01*
X0070006Y0089091D02*
X0124200Y0089091D01*
X0124200Y0090290D02*
X0070502Y0090290D01*
X0070600Y0091488D02*
X0124200Y0091488D01*
X0124200Y0092687D02*
X0070595Y0092687D01*
X0070098Y0093885D02*
X0124200Y0093885D01*
X0124200Y0095084D02*
X0069353Y0095084D01*
X0068007Y0096282D02*
X0124200Y0096282D01*
X0124200Y0097481D02*
X0068718Y0097481D01*
X0069835Y0098679D02*
X0124200Y0098679D01*
X0124200Y0099878D02*
X0070332Y0099878D01*
X0070600Y0101076D02*
X0124200Y0101076D01*
X0124200Y0102275D02*
X0070600Y0102275D01*
X0070269Y0103473D02*
X0124200Y0103473D01*
X0124200Y0104672D02*
X0069765Y0104672D01*
X0068566Y0105870D02*
X0124200Y0105870D01*
X0124200Y0107069D02*
X0068306Y0107069D01*
X0069504Y0108268D02*
X0124200Y0108268D01*
X0124200Y0109466D02*
X0070161Y0109466D01*
X0070600Y0110665D02*
X0124141Y0110665D01*
X0122943Y0111863D02*
X0070600Y0111863D01*
X0070440Y0113062D02*
X0121744Y0113062D01*
X0120546Y0114260D02*
X0069943Y0114260D01*
X0068978Y0115459D02*
X0119347Y0115459D01*
X0118149Y0116657D02*
X0067102Y0116657D01*
X0056098Y0116657D02*
X0025051Y0116657D01*
X0026250Y0117856D02*
X0116950Y0117856D01*
X0115752Y0119054D02*
X0027448Y0119054D01*
X0026600Y0121600D02*
X0021600Y0116600D01*
X0021600Y0111600D01*
X0028912Y0109466D02*
X0053039Y0109466D01*
X0052600Y0110665D02*
X0029400Y0110665D01*
X0029400Y0111863D02*
X0052600Y0111863D01*
X0052760Y0113062D02*
X0029190Y0113062D01*
X0028694Y0114260D02*
X0053257Y0114260D01*
X0054222Y0115459D02*
X0027530Y0115459D01*
X0019522Y0117856D02*
X0006200Y0117856D01*
X0006200Y0119054D02*
X0020660Y0119054D01*
X0021859Y0120253D02*
X0006200Y0120253D01*
X0006200Y0121451D02*
X0023057Y0121451D01*
X0024256Y0122650D02*
X0006200Y0122650D01*
X0006200Y0123848D02*
X0025756Y0123848D01*
X0026600Y0121600D02*
X0116600Y0121600D01*
X0126600Y0111600D01*
X0126600Y0051600D01*
X0136600Y0041600D01*
X0151600Y0041600D01*
X0161600Y0041600D01*
X0166600Y0046600D01*
X0166600Y0086600D01*
X0171600Y0091600D01*
X0176600Y0091600D01*
X0181600Y0086600D01*
X0181600Y0076600D01*
X0186600Y0071600D01*
X0211600Y0071600D01*
X0216600Y0071600D01*
X0221600Y0076600D01*
X0221600Y0097768D01*
X0215500Y0103868D01*
X0215500Y0129400D01*
X0210700Y0129841D02*
X0202500Y0129841D01*
X0202500Y0131039D02*
X0210700Y0131039D01*
X0210700Y0132238D02*
X0202500Y0132238D01*
X0202466Y0133436D02*
X0210734Y0133436D01*
X0211230Y0134635D02*
X0201970Y0134635D01*
X0201055Y0135833D02*
X0212145Y0135833D01*
X0214139Y0137032D02*
X0199061Y0137032D01*
X0196339Y0137032D02*
X0029986Y0137032D01*
X0030150Y0138230D02*
X0169030Y0138230D01*
X0169860Y0137400D02*
X0167400Y0139860D01*
X0167400Y0141400D01*
X0171400Y0141400D01*
X0171400Y0141800D01*
X0171400Y0145800D01*
X0169860Y0145800D01*
X0167400Y0143340D01*
X0167400Y0141800D01*
X0171400Y0141800D01*
X0171800Y0141800D01*
X0171800Y0145800D01*
X0173340Y0145800D01*
X0175800Y0143340D01*
X0175800Y0141800D01*
X0171800Y0141800D01*
X0171800Y0141400D01*
X0175800Y0141400D01*
X0175800Y0139860D01*
X0173340Y0137400D01*
X0171800Y0137400D01*
X0171800Y0141400D01*
X0171400Y0141400D01*
X0171400Y0137400D01*
X0169860Y0137400D01*
X0171400Y0138230D02*
X0171800Y0138230D01*
X0171800Y0139429D02*
X0171400Y0139429D01*
X0171400Y0140627D02*
X0171800Y0140627D01*
X0171800Y0141826D02*
X0171400Y0141826D01*
X0171400Y0143024D02*
X0171800Y0143024D01*
X0171800Y0144223D02*
X0171400Y0144223D01*
X0171400Y0145421D02*
X0171800Y0145421D01*
X0173718Y0145421D02*
X0454990Y0145421D01*
X0454298Y0144223D02*
X0174917Y0144223D01*
X0175800Y0143024D02*
X0453712Y0143024D01*
X0453391Y0141826D02*
X0175800Y0141826D01*
X0175800Y0140627D02*
X0453069Y0140627D01*
X0453050Y0139429D02*
X0175368Y0139429D01*
X0174170Y0138230D02*
X0453050Y0138230D01*
X0453214Y0137032D02*
X0216861Y0137032D01*
X0218855Y0135833D02*
X0453536Y0135833D01*
X0453919Y0134635D02*
X0219770Y0134635D01*
X0220266Y0133436D02*
X0454611Y0133436D01*
X0455335Y0132238D02*
X0220300Y0132238D01*
X0220300Y0131039D02*
X0456534Y0131039D01*
X0458038Y0129841D02*
X0220300Y0129841D01*
X0220300Y0128642D02*
X0460435Y0128642D01*
X0467765Y0128642D02*
X0477000Y0128642D01*
X0477000Y0127444D02*
X0220300Y0127444D01*
X0220300Y0126245D02*
X0477000Y0126245D01*
X0477000Y0125047D02*
X0262659Y0125047D01*
X0262597Y0125109D02*
X0262011Y0125534D01*
X0261366Y0125863D01*
X0260677Y0126087D01*
X0259962Y0126200D01*
X0257000Y0126200D01*
X0257000Y0122000D01*
X0256200Y0122000D01*
X0256200Y0126200D01*
X0253238Y0126200D01*
X0252523Y0126087D01*
X0251834Y0125863D01*
X0251189Y0125534D01*
X0250603Y0125109D01*
X0250091Y0124597D01*
X0249666Y0124011D01*
X0249337Y0123366D01*
X0249113Y0122677D01*
X0249006Y0122000D01*
X0256200Y0122000D01*
X0256200Y0121200D01*
X0257000Y0121200D01*
X0257000Y0122000D01*
X0264194Y0122000D01*
X0264087Y0122677D01*
X0263863Y0123366D01*
X0263534Y0124011D01*
X0263109Y0124597D01*
X0262597Y0125109D01*
X0263617Y0123848D02*
X0477000Y0123848D01*
X0477000Y0122650D02*
X0264091Y0122650D01*
X0264194Y0121200D02*
X0257000Y0121200D01*
X0257000Y0117000D01*
X0259962Y0117000D01*
X0260677Y0117113D01*
X0261366Y0117337D01*
X0262011Y0117666D01*
X0262597Y0118091D01*
X0263109Y0118603D01*
X0263534Y0119189D01*
X0263863Y0119834D01*
X0264087Y0120523D01*
X0264194Y0121200D01*
X0263999Y0120253D02*
X0384030Y0120253D01*
X0384777Y0121000D02*
X0382777Y0119000D01*
X0296123Y0119000D01*
X0295241Y0118635D01*
X0294565Y0117959D01*
X0290606Y0114000D01*
X0263801Y0114000D01*
X0263669Y0114319D01*
X0262319Y0115669D01*
X0260555Y0116400D01*
X0252645Y0116400D01*
X0250881Y0115669D01*
X0249531Y0114319D01*
X0248800Y0112555D01*
X0248800Y0110645D01*
X0249531Y0108881D01*
X0250881Y0107531D01*
X0252645Y0106800D01*
X0260555Y0106800D01*
X0262319Y0107531D01*
X0263669Y0108881D01*
X0263801Y0109200D01*
X0292077Y0109200D01*
X0292959Y0109565D01*
X0297594Y0114200D01*
X0382777Y0114200D01*
X0384777Y0112200D01*
X0388423Y0112200D01*
X0390423Y0114200D01*
X0400448Y0114200D01*
X0417068Y0097581D01*
X0417068Y0093280D01*
X0418122Y0092225D01*
X0424763Y0092225D01*
X0425817Y0093280D01*
X0425817Y0094200D01*
X0432077Y0094200D01*
X0432959Y0094565D01*
X0437959Y0099565D01*
X0438635Y0100241D01*
X0439000Y0101123D01*
X0439000Y0102074D01*
X0439489Y0102276D01*
X0440924Y0103711D01*
X0441700Y0105586D01*
X0441700Y0107614D01*
X0440924Y0109489D01*
X0439489Y0110924D01*
X0437614Y0111700D01*
X0435586Y0111700D01*
X0433711Y0110924D01*
X0432276Y0109489D01*
X0431500Y0107614D01*
X0431500Y0105586D01*
X0432276Y0103711D01*
X0433711Y0102276D01*
X0433832Y0102226D01*
X0430606Y0099000D01*
X0425817Y0099000D01*
X0425817Y0099920D01*
X0424763Y0100975D01*
X0420462Y0100975D01*
X0402802Y0118635D01*
X0401920Y0119000D01*
X0390423Y0119000D01*
X0388423Y0121000D01*
X0384777Y0121000D01*
X0382832Y0119054D02*
X0263436Y0119054D01*
X0262272Y0117856D02*
X0294461Y0117856D01*
X0293263Y0116657D02*
X0217900Y0116657D01*
X0217900Y0115459D02*
X0250670Y0115459D01*
X0249506Y0114260D02*
X0217900Y0114260D01*
X0217900Y0113062D02*
X0249010Y0113062D01*
X0248800Y0111863D02*
X0217900Y0111863D01*
X0218424Y0110665D02*
X0248800Y0110665D01*
X0249288Y0109466D02*
X0219591Y0109466D01*
X0220088Y0108268D02*
X0250144Y0108268D01*
X0251996Y0107069D02*
X0220300Y0107069D01*
X0220300Y0105870D02*
X0251367Y0105870D01*
X0250881Y0105669D02*
X0252645Y0106400D01*
X0260555Y0106400D01*
X0262319Y0105669D01*
X0263669Y0104319D01*
X0264400Y0102555D01*
X0264400Y0102194D01*
X0268635Y0097959D01*
X0269000Y0097077D01*
X0269000Y0061123D01*
X0268635Y0060241D01*
X0267959Y0059565D01*
X0263233Y0054839D01*
X0262930Y0054108D01*
X0261692Y0052870D01*
X0260075Y0052200D01*
X0253125Y0052200D01*
X0251508Y0052870D01*
X0250270Y0054108D01*
X0249600Y0055725D01*
X0249600Y0057475D01*
X0250270Y0059092D01*
X0251508Y0060330D01*
X0253125Y0061000D01*
X0260075Y0061000D01*
X0261692Y0060330D01*
X0261814Y0060208D01*
X0264200Y0062594D01*
X0264200Y0095606D01*
X0262288Y0097518D01*
X0260555Y0096800D01*
X0252645Y0096800D01*
X0250881Y0097531D01*
X0249531Y0098881D01*
X0248800Y0100645D01*
X0248800Y0102555D01*
X0249531Y0104319D01*
X0250881Y0105669D01*
X0249884Y0104672D02*
X0220300Y0104672D01*
X0220300Y0103473D02*
X0249181Y0103473D01*
X0248800Y0102275D02*
X0220487Y0102275D01*
X0221685Y0101076D02*
X0248800Y0101076D01*
X0249118Y0099878D02*
X0222884Y0099878D01*
X0223820Y0098679D02*
X0249732Y0098679D01*
X0251001Y0097481D02*
X0224000Y0097481D01*
X0224000Y0096282D02*
X0263523Y0096282D01*
X0264200Y0095084D02*
X0224000Y0095084D01*
X0224000Y0093885D02*
X0264200Y0093885D01*
X0264200Y0092687D02*
X0224000Y0092687D01*
X0224000Y0091488D02*
X0264200Y0091488D01*
X0264200Y0090290D02*
X0224000Y0090290D01*
X0224000Y0089091D02*
X0264200Y0089091D01*
X0264200Y0087893D02*
X0224000Y0087893D01*
X0224000Y0086694D02*
X0264200Y0086694D01*
X0264200Y0085496D02*
X0224000Y0085496D01*
X0224000Y0084297D02*
X0264200Y0084297D01*
X0264200Y0083099D02*
X0224000Y0083099D01*
X0224000Y0081900D02*
X0264200Y0081900D01*
X0264200Y0080702D02*
X0260151Y0080702D01*
X0260184Y0080697D02*
X0259531Y0080800D01*
X0256800Y0080800D01*
X0256800Y0076800D01*
X0256400Y0076800D01*
X0256400Y0080800D01*
X0253669Y0080800D01*
X0253016Y0080697D01*
X0252388Y0080492D01*
X0251799Y0080192D01*
X0251264Y0079804D01*
X0250796Y0079336D01*
X0250408Y0078801D01*
X0250108Y0078212D01*
X0249903Y0077584D01*
X0249800Y0076931D01*
X0249800Y0076800D01*
X0256400Y0076800D01*
X0256400Y0076400D01*
X0256800Y0076400D01*
X0256800Y0076800D01*
X0263400Y0076800D01*
X0263400Y0076931D01*
X0263297Y0077584D01*
X0263092Y0078212D01*
X0262792Y0078801D01*
X0262404Y0079336D01*
X0261936Y0079804D01*
X0261401Y0080192D01*
X0260812Y0080492D01*
X0260184Y0080697D01*
X0262236Y0079503D02*
X0264200Y0079503D01*
X0264200Y0078305D02*
X0263045Y0078305D01*
X0263372Y0077106D02*
X0264200Y0077106D01*
X0263400Y0076400D02*
X0256800Y0076400D01*
X0256800Y0072400D01*
X0259531Y0072400D01*
X0260184Y0072503D01*
X0260812Y0072708D01*
X0261401Y0073008D01*
X0261936Y0073396D01*
X0262404Y0073864D01*
X0262792Y0074399D01*
X0263092Y0074988D01*
X0263297Y0075616D01*
X0263400Y0076269D01*
X0263400Y0076400D01*
X0263343Y0075908D02*
X0264200Y0075908D01*
X0264200Y0074709D02*
X0262950Y0074709D01*
X0262050Y0073511D02*
X0264200Y0073511D01*
X0264200Y0072312D02*
X0220706Y0072312D01*
X0219508Y0071114D02*
X0264200Y0071114D01*
X0264200Y0069915D02*
X0262107Y0069915D01*
X0263086Y0068717D02*
X0264200Y0068717D01*
X0264200Y0067518D02*
X0263582Y0067518D01*
X0263600Y0066320D02*
X0264200Y0066320D01*
X0264200Y0065121D02*
X0263350Y0065121D01*
X0262745Y0063923D02*
X0264200Y0063923D01*
X0264200Y0062724D02*
X0261340Y0062724D01*
X0263131Y0061526D02*
X0249920Y0061526D01*
X0249000Y0060327D02*
X0251505Y0060327D01*
X0250306Y0059129D02*
X0249000Y0059129D01*
X0249000Y0057930D02*
X0249788Y0057930D01*
X0249600Y0056732D02*
X0249000Y0056732D01*
X0249000Y0055533D02*
X0249679Y0055533D01*
X0250176Y0054334D02*
X0249000Y0054334D01*
X0249000Y0053136D02*
X0251241Y0053136D01*
X0249000Y0051937D02*
X0268543Y0051937D01*
X0269200Y0053136D02*
X0261959Y0053136D01*
X0263024Y0054334D02*
X0269200Y0054334D01*
X0269200Y0055533D02*
X0263927Y0055533D01*
X0265126Y0056732D02*
X0269200Y0056732D01*
X0269200Y0057930D02*
X0266324Y0057930D01*
X0267523Y0059129D02*
X0269200Y0059129D01*
X0269200Y0060327D02*
X0268670Y0060327D01*
X0269000Y0061526D02*
X0269200Y0061526D01*
X0269200Y0062724D02*
X0269000Y0062724D01*
X0269000Y0063923D02*
X0269200Y0063923D01*
X0269200Y0065121D02*
X0269000Y0065121D01*
X0269000Y0066320D02*
X0269200Y0066320D01*
X0269200Y0067518D02*
X0269000Y0067518D01*
X0269000Y0068717D02*
X0269200Y0068717D01*
X0269200Y0069915D02*
X0269000Y0069915D01*
X0269000Y0071114D02*
X0269200Y0071114D01*
X0269297Y0072312D02*
X0269000Y0072312D01*
X0269000Y0073511D02*
X0270117Y0073511D01*
X0269000Y0074709D02*
X0271315Y0074709D01*
X0272514Y0075908D02*
X0269000Y0075908D01*
X0269000Y0077106D02*
X0273712Y0077106D01*
X0274911Y0078305D02*
X0269000Y0078305D01*
X0269000Y0079503D02*
X0280681Y0079503D01*
X0282405Y0080702D02*
X0269000Y0080702D01*
X0269000Y0081900D02*
X0284200Y0081900D01*
X0284200Y0083099D02*
X0269000Y0083099D01*
X0269000Y0084297D02*
X0284200Y0084297D01*
X0284200Y0085496D02*
X0269000Y0085496D01*
X0269000Y0086694D02*
X0284200Y0086694D01*
X0284200Y0087893D02*
X0269000Y0087893D01*
X0269000Y0089091D02*
X0284200Y0089091D01*
X0284200Y0090290D02*
X0269000Y0090290D01*
X0269000Y0091488D02*
X0284200Y0091488D01*
X0284200Y0092687D02*
X0269000Y0092687D01*
X0269000Y0093885D02*
X0284200Y0093885D01*
X0284200Y0095084D02*
X0269000Y0095084D01*
X0269000Y0096282D02*
X0284200Y0096282D01*
X0284200Y0097481D02*
X0268833Y0097481D01*
X0267915Y0098679D02*
X0284200Y0098679D01*
X0284200Y0099878D02*
X0266716Y0099878D01*
X0265518Y0101076D02*
X0284200Y0101076D01*
X0284282Y0102275D02*
X0264400Y0102275D01*
X0264019Y0103473D02*
X0285079Y0103473D01*
X0286278Y0104672D02*
X0263316Y0104672D01*
X0261833Y0105870D02*
X0287476Y0105870D01*
X0288675Y0107069D02*
X0261204Y0107069D01*
X0263056Y0108268D02*
X0289873Y0108268D01*
X0289565Y0107959D02*
X0289565Y0107959D01*
X0291600Y0106600D02*
X0301600Y0106600D01*
X0306000Y0107069D02*
X0332735Y0107069D01*
X0333866Y0108200D02*
X0330000Y0104334D01*
X0330000Y0102000D01*
X0336200Y0102000D01*
X0336200Y0108200D01*
X0333866Y0108200D01*
X0336200Y0107069D02*
X0337000Y0107069D01*
X0337000Y0108200D02*
X0337000Y0102000D01*
X0336200Y0102000D01*
X0336200Y0101200D01*
X0330000Y0101200D01*
X0330000Y0098866D01*
X0333866Y0095000D01*
X0336200Y0095000D01*
X0336200Y0101200D01*
X0337000Y0101200D01*
X0337000Y0102000D01*
X0343200Y0102000D01*
X0343200Y0104334D01*
X0339334Y0108200D01*
X0337000Y0108200D01*
X0337000Y0105870D02*
X0336200Y0105870D01*
X0336200Y0104672D02*
X0337000Y0104672D01*
X0337000Y0103473D02*
X0336200Y0103473D01*
X0336200Y0102275D02*
X0337000Y0102275D01*
X0337000Y0101200D02*
X0343200Y0101200D01*
X0343200Y0098866D01*
X0339334Y0095000D01*
X0337000Y0095000D01*
X0337000Y0101200D01*
X0337000Y0101076D02*
X0336200Y0101076D01*
X0336200Y0099878D02*
X0337000Y0099878D01*
X0337000Y0098679D02*
X0336200Y0098679D01*
X0336200Y0097481D02*
X0337000Y0097481D01*
X0337000Y0096282D02*
X0336200Y0096282D01*
X0336200Y0095084D02*
X0337000Y0095084D01*
X0339418Y0095084D02*
X0346690Y0095084D01*
X0347888Y0096282D02*
X0340616Y0096282D01*
X0341815Y0097481D02*
X0349087Y0097481D01*
X0350349Y0098679D02*
X0343013Y0098679D01*
X0343200Y0099878D02*
X0397383Y0099878D01*
X0401757Y0096600D02*
X0351600Y0096600D01*
X0336600Y0081600D01*
X0331600Y0076600D01*
X0286600Y0076600D01*
X0286600Y0101600D01*
X0291600Y0106600D01*
X0292720Y0109466D02*
X0298243Y0109466D01*
X0299442Y0110665D02*
X0294059Y0110665D01*
X0295257Y0111863D02*
X0402785Y0111863D01*
X0401587Y0113062D02*
X0389284Y0113062D01*
X0383916Y0113062D02*
X0296456Y0113062D01*
X0296600Y0116600D02*
X0291600Y0111600D01*
X0256600Y0111600D01*
X0263694Y0114260D02*
X0290866Y0114260D01*
X0292064Y0115459D02*
X0262530Y0115459D01*
X0257000Y0117856D02*
X0256200Y0117856D01*
X0256200Y0117000D02*
X0256200Y0121200D01*
X0249006Y0121200D01*
X0249113Y0120523D01*
X0249337Y0119834D01*
X0249666Y0119189D01*
X0250091Y0118603D01*
X0250603Y0118091D01*
X0251189Y0117666D01*
X0251834Y0117337D01*
X0252523Y0117113D01*
X0253238Y0117000D01*
X0256200Y0117000D01*
X0256200Y0119054D02*
X0257000Y0119054D01*
X0257000Y0120253D02*
X0256200Y0120253D01*
X0256200Y0121451D02*
X0217900Y0121451D01*
X0217900Y0120253D02*
X0249201Y0120253D01*
X0249764Y0119054D02*
X0217900Y0119054D01*
X0217900Y0117856D02*
X0250928Y0117856D01*
X0257000Y0121451D02*
X0477000Y0121451D01*
X0477000Y0120253D02*
X0389170Y0120253D01*
X0390368Y0119054D02*
X0477000Y0119054D01*
X0477000Y0117856D02*
X0403581Y0117856D01*
X0404780Y0116657D02*
X0477000Y0116657D01*
X0477000Y0115459D02*
X0467115Y0115459D01*
X0467011Y0115534D02*
X0466366Y0115863D01*
X0465677Y0116087D01*
X0464962Y0116200D01*
X0462000Y0116200D01*
X0462000Y0112000D01*
X0461200Y0112000D01*
X0461200Y0116200D01*
X0458238Y0116200D01*
X0457523Y0116087D01*
X0456834Y0115863D01*
X0456189Y0115534D01*
X0455603Y0115109D01*
X0455091Y0114597D01*
X0454666Y0114011D01*
X0454337Y0113366D01*
X0454113Y0112677D01*
X0454006Y0112000D01*
X0461200Y0112000D01*
X0461200Y0111200D01*
X0462000Y0111200D01*
X0462000Y0112000D01*
X0469194Y0112000D01*
X0469087Y0112677D01*
X0468863Y0113366D01*
X0468534Y0114011D01*
X0468109Y0114597D01*
X0467597Y0115109D01*
X0467011Y0115534D01*
X0468353Y0114260D02*
X0477000Y0114260D01*
X0477000Y0113062D02*
X0468962Y0113062D01*
X0469194Y0111200D02*
X0462000Y0111200D01*
X0462000Y0107000D01*
X0464962Y0107000D01*
X0465677Y0107113D01*
X0466366Y0107337D01*
X0467011Y0107666D01*
X0467597Y0108091D01*
X0468109Y0108603D01*
X0468534Y0109189D01*
X0468863Y0109834D01*
X0469087Y0110523D01*
X0469194Y0111200D01*
X0469109Y0110665D02*
X0477000Y0110665D01*
X0477000Y0111863D02*
X0462000Y0111863D01*
X0461200Y0111863D02*
X0409574Y0111863D01*
X0410772Y0110665D02*
X0433452Y0110665D01*
X0432267Y0109466D02*
X0411971Y0109466D01*
X0413169Y0108268D02*
X0431771Y0108268D01*
X0431500Y0107069D02*
X0414368Y0107069D01*
X0415566Y0105870D02*
X0431500Y0105870D01*
X0431878Y0104672D02*
X0416765Y0104672D01*
X0417963Y0103473D02*
X0432514Y0103473D01*
X0433715Y0102275D02*
X0419162Y0102275D01*
X0420360Y0101076D02*
X0432682Y0101076D01*
X0431484Y0099878D02*
X0425817Y0099878D01*
X0421443Y0096600D02*
X0431600Y0096600D01*
X0436600Y0101600D01*
X0436600Y0106600D01*
X0436443Y0106443D01*
X0441322Y0104672D02*
X0455167Y0104672D01*
X0455091Y0104597D02*
X0454666Y0104011D01*
X0454337Y0103366D01*
X0454113Y0102677D01*
X0454006Y0102000D01*
X0461200Y0102000D01*
X0461200Y0106200D01*
X0458238Y0106200D01*
X0457523Y0106087D01*
X0456834Y0105863D01*
X0456189Y0105534D01*
X0455603Y0105109D01*
X0455091Y0104597D01*
X0454392Y0103473D02*
X0440686Y0103473D01*
X0439485Y0102275D02*
X0454050Y0102275D01*
X0454006Y0101200D02*
X0454113Y0100523D01*
X0454337Y0099834D01*
X0454666Y0099189D01*
X0455091Y0098603D01*
X0455603Y0098091D01*
X0456189Y0097666D01*
X0456834Y0097337D01*
X0457523Y0097113D01*
X0458238Y0097000D01*
X0461200Y0097000D01*
X0461200Y0101200D01*
X0462000Y0101200D01*
X0462000Y0102000D01*
X0461200Y0102000D01*
X0461200Y0101200D01*
X0454006Y0101200D01*
X0454026Y0101076D02*
X0438981Y0101076D01*
X0438272Y0099878D02*
X0454323Y0099878D01*
X0455036Y0098679D02*
X0437074Y0098679D01*
X0435875Y0097481D02*
X0456552Y0097481D01*
X0456834Y0095863D02*
X0456189Y0095534D01*
X0455603Y0095109D01*
X0455091Y0094597D01*
X0454666Y0094011D01*
X0454337Y0093366D01*
X0454113Y0092677D01*
X0454006Y0092000D01*
X0461200Y0092000D01*
X0461200Y0096200D01*
X0458238Y0096200D01*
X0457523Y0096087D01*
X0456834Y0095863D01*
X0455579Y0095084D02*
X0433478Y0095084D01*
X0434677Y0096282D02*
X0477000Y0096282D01*
X0477000Y0095084D02*
X0467621Y0095084D01*
X0467597Y0095109D02*
X0467011Y0095534D01*
X0466366Y0095863D01*
X0465677Y0096087D01*
X0464962Y0096200D01*
X0462000Y0096200D01*
X0462000Y0092000D01*
X0461200Y0092000D01*
X0461200Y0091200D01*
X0462000Y0091200D01*
X0462000Y0092000D01*
X0469194Y0092000D01*
X0469087Y0092677D01*
X0468863Y0093366D01*
X0468534Y0094011D01*
X0468109Y0094597D01*
X0467597Y0095109D01*
X0468598Y0093885D02*
X0477000Y0093885D01*
X0477000Y0092687D02*
X0469084Y0092687D01*
X0469194Y0091200D02*
X0462000Y0091200D01*
X0462000Y0087000D01*
X0464962Y0087000D01*
X0465677Y0087113D01*
X0466366Y0087337D01*
X0467011Y0087666D01*
X0467597Y0088091D01*
X0468109Y0088603D01*
X0468534Y0089189D01*
X0468863Y0089834D01*
X0469087Y0090523D01*
X0469194Y0091200D01*
X0469011Y0090290D02*
X0477000Y0090290D01*
X0477000Y0091488D02*
X0462000Y0091488D01*
X0461200Y0091488D02*
X0349882Y0091488D01*
X0348684Y0090290D02*
X0369067Y0090290D01*
X0369777Y0091000D02*
X0367200Y0088423D01*
X0367200Y0084777D01*
X0369200Y0082777D01*
X0369200Y0081123D01*
X0369565Y0080241D01*
X0374565Y0075241D01*
X0375241Y0074565D01*
X0376123Y0074200D01*
X0382777Y0074200D01*
X0384777Y0072200D01*
X0388423Y0072200D01*
X0391000Y0074777D01*
X0391000Y0078423D01*
X0388423Y0081000D01*
X0384777Y0081000D01*
X0382777Y0079000D01*
X0377594Y0079000D01*
X0374000Y0082594D01*
X0374000Y0082777D01*
X0376000Y0084777D01*
X0376000Y0088423D01*
X0373423Y0091000D01*
X0369777Y0091000D01*
X0367869Y0089091D02*
X0347485Y0089091D01*
X0346287Y0087893D02*
X0367200Y0087893D01*
X0367200Y0086694D02*
X0345088Y0086694D01*
X0343890Y0085496D02*
X0367200Y0085496D01*
X0367680Y0084297D02*
X0342843Y0084297D01*
X0343339Y0083099D02*
X0368879Y0083099D01*
X0369200Y0081900D02*
X0343400Y0081900D01*
X0343400Y0080702D02*
X0369374Y0080702D01*
X0370303Y0079503D02*
X0343092Y0079503D01*
X0342595Y0078305D02*
X0371501Y0078305D01*
X0372700Y0077106D02*
X0341723Y0077106D01*
X0340524Y0075908D02*
X0373898Y0075908D01*
X0375097Y0074709D02*
X0333103Y0074709D01*
X0330108Y0079503D02*
X0292519Y0079503D01*
X0290795Y0080702D02*
X0329800Y0080702D01*
X0329800Y0081900D02*
X0289000Y0081900D01*
X0289000Y0083099D02*
X0329861Y0083099D01*
X0330357Y0084297D02*
X0289000Y0084297D01*
X0289000Y0085496D02*
X0330879Y0085496D01*
X0332078Y0086694D02*
X0289000Y0086694D01*
X0289000Y0087893D02*
X0334023Y0087893D01*
X0339177Y0087893D02*
X0339499Y0087893D01*
X0340697Y0089091D02*
X0289000Y0089091D01*
X0289000Y0090290D02*
X0341896Y0090290D01*
X0343094Y0091488D02*
X0289000Y0091488D01*
X0289000Y0092687D02*
X0344293Y0092687D01*
X0345491Y0093885D02*
X0289000Y0093885D01*
X0289000Y0095084D02*
X0333782Y0095084D01*
X0332584Y0096282D02*
X0289000Y0096282D01*
X0289000Y0097481D02*
X0331385Y0097481D01*
X0330187Y0098679D02*
X0289000Y0098679D01*
X0289000Y0099878D02*
X0330000Y0099878D01*
X0330000Y0101076D02*
X0289471Y0101076D01*
X0290669Y0102275D02*
X0299703Y0102275D01*
X0298504Y0103473D02*
X0291868Y0103473D01*
X0303497Y0102275D02*
X0330000Y0102275D01*
X0330000Y0103473D02*
X0304696Y0103473D01*
X0305895Y0104672D02*
X0330338Y0104672D01*
X0331537Y0105870D02*
X0306000Y0105870D01*
X0306000Y0108268D02*
X0367400Y0108268D01*
X0367400Y0108340D02*
X0367400Y0106800D01*
X0371400Y0106800D01*
X0371400Y0110800D01*
X0369860Y0110800D01*
X0367400Y0108340D01*
X0367400Y0107069D02*
X0340465Y0107069D01*
X0341663Y0105870D02*
X0367400Y0105870D01*
X0367400Y0106400D02*
X0367400Y0104860D01*
X0369860Y0102400D01*
X0371400Y0102400D01*
X0371400Y0106400D01*
X0367400Y0106400D01*
X0367588Y0104672D02*
X0342862Y0104672D01*
X0343200Y0103473D02*
X0368787Y0103473D01*
X0371400Y0103473D02*
X0371800Y0103473D01*
X0371800Y0102400D02*
X0373340Y0102400D01*
X0375800Y0104860D01*
X0375800Y0106400D01*
X0371800Y0106400D01*
X0371800Y0106800D01*
X0371400Y0106800D01*
X0371400Y0106400D01*
X0371800Y0106400D01*
X0371800Y0102400D01*
X0374413Y0103473D02*
X0411175Y0103473D01*
X0412373Y0102275D02*
X0343200Y0102275D01*
X0343200Y0101076D02*
X0413572Y0101076D01*
X0414770Y0099878D02*
X0406132Y0099878D01*
X0406132Y0098679D02*
X0415969Y0098679D01*
X0417068Y0097481D02*
X0406132Y0097481D01*
X0406132Y0096282D02*
X0417068Y0096282D01*
X0417068Y0095084D02*
X0406132Y0095084D01*
X0406132Y0093885D02*
X0417068Y0093885D01*
X0417660Y0092687D02*
X0405540Y0092687D01*
X0397975Y0092687D02*
X0351081Y0092687D01*
X0352279Y0093885D02*
X0397383Y0093885D01*
X0376000Y0087893D02*
X0455877Y0087893D01*
X0455603Y0088091D02*
X0456189Y0087666D01*
X0456834Y0087337D01*
X0457523Y0087113D01*
X0458238Y0087000D01*
X0461200Y0087000D01*
X0461200Y0091200D01*
X0454006Y0091200D01*
X0454113Y0090523D01*
X0454337Y0089834D01*
X0454666Y0089189D01*
X0455091Y0088603D01*
X0455603Y0088091D01*
X0454737Y0089091D02*
X0375331Y0089091D01*
X0374133Y0090290D02*
X0454189Y0090290D01*
X0454116Y0092687D02*
X0425225Y0092687D01*
X0425817Y0093885D02*
X0454602Y0093885D01*
X0461200Y0093885D02*
X0462000Y0093885D01*
X0462000Y0092687D02*
X0461200Y0092687D01*
X0461200Y0095084D02*
X0462000Y0095084D01*
X0462000Y0097000D02*
X0464962Y0097000D01*
X0465677Y0097113D01*
X0466366Y0097337D01*
X0467011Y0097666D01*
X0467597Y0098091D01*
X0468109Y0098603D01*
X0468534Y0099189D01*
X0468863Y0099834D01*
X0469087Y0100523D01*
X0469194Y0101200D01*
X0462000Y0101200D01*
X0462000Y0097000D01*
X0462000Y0097481D02*
X0461200Y0097481D01*
X0461200Y0098679D02*
X0462000Y0098679D01*
X0462000Y0099878D02*
X0461200Y0099878D01*
X0461200Y0101076D02*
X0462000Y0101076D01*
X0462000Y0102000D02*
X0469194Y0102000D01*
X0469087Y0102677D01*
X0468863Y0103366D01*
X0468534Y0104011D01*
X0468109Y0104597D01*
X0467597Y0105109D01*
X0467011Y0105534D01*
X0466366Y0105863D01*
X0465677Y0106087D01*
X0464962Y0106200D01*
X0462000Y0106200D01*
X0462000Y0102000D01*
X0462000Y0102275D02*
X0461200Y0102275D01*
X0461200Y0103473D02*
X0462000Y0103473D01*
X0462000Y0104672D02*
X0461200Y0104672D01*
X0461200Y0105870D02*
X0462000Y0105870D01*
X0462000Y0107069D02*
X0461200Y0107069D01*
X0461200Y0107000D02*
X0461200Y0111200D01*
X0454006Y0111200D01*
X0454113Y0110523D01*
X0454337Y0109834D01*
X0454666Y0109189D01*
X0455091Y0108603D01*
X0455603Y0108091D01*
X0456189Y0107666D01*
X0456834Y0107337D01*
X0457523Y0107113D01*
X0458238Y0107000D01*
X0461200Y0107000D01*
X0461200Y0108268D02*
X0462000Y0108268D01*
X0462000Y0109466D02*
X0461200Y0109466D01*
X0461200Y0110665D02*
X0462000Y0110665D01*
X0462000Y0113062D02*
X0461200Y0113062D01*
X0461200Y0114260D02*
X0462000Y0114260D01*
X0462000Y0115459D02*
X0461200Y0115459D01*
X0456085Y0115459D02*
X0405978Y0115459D01*
X0407177Y0114260D02*
X0454847Y0114260D01*
X0454238Y0113062D02*
X0408375Y0113062D01*
X0403984Y0110665D02*
X0373475Y0110665D01*
X0373340Y0110800D02*
X0371800Y0110800D01*
X0371800Y0106800D01*
X0375800Y0106800D01*
X0375800Y0108340D01*
X0373340Y0110800D01*
X0371800Y0110665D02*
X0371400Y0110665D01*
X0371400Y0109466D02*
X0371800Y0109466D01*
X0371800Y0108268D02*
X0371400Y0108268D01*
X0371400Y0107069D02*
X0371800Y0107069D01*
X0371800Y0105870D02*
X0371400Y0105870D01*
X0371400Y0104672D02*
X0371800Y0104672D01*
X0375612Y0104672D02*
X0409976Y0104672D01*
X0408778Y0105870D02*
X0375800Y0105870D01*
X0375800Y0107069D02*
X0407579Y0107069D01*
X0406381Y0108268D02*
X0375800Y0108268D01*
X0374674Y0109466D02*
X0405182Y0109466D01*
X0401443Y0116600D02*
X0386600Y0116600D01*
X0296600Y0116600D01*
X0303758Y0110665D02*
X0369725Y0110665D01*
X0368526Y0109466D02*
X0304956Y0109466D01*
X0266600Y0096600D02*
X0261600Y0101600D01*
X0256600Y0101600D01*
X0262199Y0097481D02*
X0262325Y0097481D01*
X0266600Y0096600D02*
X0266600Y0061600D01*
X0261600Y0056600D01*
X0256600Y0056600D01*
X0261695Y0060327D02*
X0261933Y0060327D01*
X0251860Y0062724D02*
X0251118Y0062724D01*
X0251600Y0066600D02*
X0246600Y0061600D01*
X0246600Y0036600D01*
X0256600Y0026600D01*
X0261600Y0026600D01*
X0261600Y0021600D01*
X0266600Y0016600D01*
X0301600Y0016600D01*
X0306000Y0017181D02*
X0312200Y0017181D01*
X0312200Y0018379D02*
X0306000Y0018379D01*
X0304845Y0019578D02*
X0313355Y0019578D01*
X0314200Y0020776D02*
X0303646Y0020776D01*
X0299554Y0020776D02*
X0265818Y0020776D01*
X0267016Y0019578D02*
X0298355Y0019578D01*
X0306000Y0015982D02*
X0312200Y0015982D01*
X0311390Y0014784D02*
X0306000Y0014784D01*
X0311600Y0011600D02*
X0316600Y0016600D01*
X0316600Y0026600D01*
X0306600Y0036600D01*
X0261600Y0036600D01*
X0256600Y0041600D01*
X0256600Y0046143D01*
X0257057Y0046600D01*
X0266600Y0046600D01*
X0271600Y0051600D01*
X0271600Y0071600D01*
X0276600Y0076600D01*
X0286600Y0076600D01*
X0290346Y0072312D02*
X0384665Y0072312D01*
X0383467Y0073511D02*
X0292333Y0073511D01*
X0291692Y0070330D02*
X0290075Y0071000D01*
X0283125Y0071000D01*
X0281508Y0070330D01*
X0280270Y0069092D01*
X0279600Y0067475D01*
X0279600Y0065725D01*
X0280270Y0064108D01*
X0281508Y0062870D01*
X0283125Y0062200D01*
X0284200Y0062200D01*
X0284200Y0061000D01*
X0283125Y0061000D01*
X0281508Y0060330D01*
X0280270Y0059092D01*
X0279600Y0057475D01*
X0279600Y0055725D01*
X0280270Y0054108D01*
X0281508Y0052870D01*
X0283125Y0052200D01*
X0290075Y0052200D01*
X0291692Y0052870D01*
X0292930Y0054108D01*
X0292968Y0054200D01*
X0297777Y0054200D01*
X0299777Y0052200D01*
X0303423Y0052200D01*
X0305423Y0054200D01*
X0312777Y0054200D01*
X0314777Y0052200D01*
X0318423Y0052200D01*
X0321000Y0054777D01*
X0321000Y0058423D01*
X0318423Y0061000D01*
X0314777Y0061000D01*
X0312777Y0059000D01*
X0305423Y0059000D01*
X0303423Y0061000D01*
X0299777Y0061000D01*
X0297777Y0059000D01*
X0292968Y0059000D01*
X0292930Y0059092D01*
X0291692Y0060330D01*
X0290075Y0061000D01*
X0289000Y0061000D01*
X0289000Y0062200D01*
X0290075Y0062200D01*
X0291692Y0062870D01*
X0292930Y0064108D01*
X0293600Y0065725D01*
X0293600Y0067475D01*
X0292930Y0069092D01*
X0291692Y0070330D01*
X0292107Y0069915D02*
X0298693Y0069915D01*
X0299777Y0071000D02*
X0297200Y0068423D01*
X0297200Y0064777D01*
X0299777Y0062200D01*
X0303423Y0062200D01*
X0305423Y0064200D01*
X0330606Y0064200D01*
X0339200Y0055606D01*
X0339200Y0050423D01*
X0337777Y0049000D01*
X0292968Y0049000D01*
X0292930Y0049092D01*
X0291692Y0050330D01*
X0290075Y0051000D01*
X0283125Y0051000D01*
X0281508Y0050330D01*
X0280270Y0049092D01*
X0279600Y0047475D01*
X0279600Y0045725D01*
X0280270Y0044108D01*
X0281508Y0042870D01*
X0283125Y0042200D01*
X0290075Y0042200D01*
X0291692Y0042870D01*
X0292930Y0044108D01*
X0292968Y0044200D01*
X0337777Y0044200D01*
X0339777Y0042200D01*
X0343423Y0042200D01*
X0346000Y0044777D01*
X0346000Y0048423D01*
X0344000Y0050423D01*
X0344000Y0057077D01*
X0343635Y0057959D01*
X0342959Y0058635D01*
X0332959Y0068635D01*
X0332077Y0069000D01*
X0305423Y0069000D01*
X0303423Y0071000D01*
X0299777Y0071000D01*
X0304507Y0069915D02*
X0378693Y0069915D01*
X0379777Y0071000D02*
X0377200Y0068423D01*
X0377200Y0064777D01*
X0379200Y0062777D01*
X0379200Y0060423D01*
X0377200Y0058423D01*
X0377200Y0054777D01*
X0379777Y0052200D01*
X0383423Y0052200D01*
X0386000Y0054777D01*
X0386000Y0058423D01*
X0384000Y0060423D01*
X0384000Y0062777D01*
X0386000Y0064777D01*
X0386000Y0068423D01*
X0383423Y0071000D01*
X0379777Y0071000D01*
X0384507Y0069915D02*
X0418693Y0069915D01*
X0419777Y0071000D02*
X0417200Y0068423D01*
X0417200Y0064777D01*
X0419777Y0062200D01*
X0423423Y0062200D01*
X0426000Y0064777D01*
X0426000Y0068423D01*
X0423423Y0071000D01*
X0419777Y0071000D01*
X0424507Y0069915D02*
X0432703Y0069915D01*
X0432276Y0069489D02*
X0431500Y0067614D01*
X0431500Y0065586D01*
X0432276Y0063711D01*
X0433711Y0062276D01*
X0435586Y0061500D01*
X0437614Y0061500D01*
X0439489Y0062276D01*
X0440924Y0063711D01*
X0441700Y0065586D01*
X0441700Y0067614D01*
X0440924Y0069489D01*
X0439489Y0070924D01*
X0437614Y0071700D01*
X0435586Y0071700D01*
X0433711Y0070924D01*
X0432276Y0069489D01*
X0431957Y0068717D02*
X0425706Y0068717D01*
X0426000Y0067518D02*
X0431500Y0067518D01*
X0431500Y0066320D02*
X0426000Y0066320D01*
X0426000Y0065121D02*
X0431692Y0065121D01*
X0432189Y0063923D02*
X0425145Y0063923D01*
X0423947Y0062724D02*
X0433263Y0062724D01*
X0435524Y0061526D02*
X0384000Y0061526D01*
X0384000Y0062724D02*
X0419253Y0062724D01*
X0418055Y0063923D02*
X0385145Y0063923D01*
X0386000Y0065121D02*
X0417200Y0065121D01*
X0417200Y0066320D02*
X0386000Y0066320D01*
X0386000Y0067518D02*
X0417200Y0067518D01*
X0417494Y0068717D02*
X0385706Y0068717D01*
X0381600Y0066600D02*
X0381600Y0056600D01*
X0386000Y0056732D02*
X0477000Y0056732D01*
X0477000Y0057930D02*
X0467718Y0057930D01*
X0467319Y0057531D02*
X0468669Y0058881D01*
X0469400Y0060645D01*
X0469400Y0062555D01*
X0468669Y0064319D01*
X0467319Y0065669D01*
X0465555Y0066400D01*
X0457645Y0066400D01*
X0455881Y0065669D01*
X0454531Y0064319D01*
X0453800Y0062555D01*
X0453800Y0060645D01*
X0454531Y0058881D01*
X0455881Y0057531D01*
X0457645Y0056800D01*
X0465555Y0056800D01*
X0467319Y0057531D01*
X0467319Y0055669D02*
X0465555Y0056400D01*
X0457645Y0056400D01*
X0455881Y0055669D01*
X0454531Y0054319D01*
X0453800Y0052555D01*
X0453800Y0050645D01*
X0454531Y0048881D01*
X0455881Y0047531D01*
X0457645Y0046800D01*
X0465555Y0046800D01*
X0467319Y0047531D01*
X0468669Y0048881D01*
X0469400Y0050645D01*
X0469400Y0052555D01*
X0468669Y0054319D01*
X0467319Y0055669D01*
X0467455Y0055533D02*
X0477000Y0055533D01*
X0477000Y0054334D02*
X0468654Y0054334D01*
X0469159Y0053136D02*
X0477000Y0053136D01*
X0477000Y0051937D02*
X0469400Y0051937D01*
X0469400Y0050739D02*
X0477000Y0050739D01*
X0477000Y0049540D02*
X0468942Y0049540D01*
X0468130Y0048342D02*
X0477000Y0048342D01*
X0477000Y0047143D02*
X0466384Y0047143D01*
X0456816Y0047143D02*
X0376000Y0047143D01*
X0376000Y0045945D02*
X0477000Y0045945D01*
X0477000Y0044746D02*
X0375969Y0044746D01*
X0376000Y0044777D02*
X0373423Y0042200D01*
X0370594Y0042200D01*
X0367959Y0039565D01*
X0367077Y0039200D01*
X0352923Y0039200D01*
X0350923Y0037200D01*
X0347277Y0037200D01*
X0344700Y0039777D01*
X0344700Y0043423D01*
X0347277Y0046000D01*
X0350923Y0046000D01*
X0352923Y0044000D01*
X0365606Y0044000D01*
X0367200Y0045594D01*
X0367200Y0048423D01*
X0369777Y0051000D01*
X0373423Y0051000D01*
X0376000Y0048423D01*
X0376000Y0044777D01*
X0374770Y0043548D02*
X0477000Y0043548D01*
X0477000Y0042349D02*
X0373572Y0042349D01*
X0369545Y0041151D02*
X0407433Y0041151D01*
X0407632Y0041350D02*
X0404850Y0038568D01*
X0404850Y0036800D01*
X0409400Y0036800D01*
X0409400Y0041350D01*
X0407632Y0041350D01*
X0409400Y0041151D02*
X0409800Y0041151D01*
X0409800Y0041350D02*
X0411568Y0041350D01*
X0414350Y0038568D01*
X0414350Y0036800D01*
X0409800Y0036800D01*
X0409800Y0036400D01*
X0414350Y0036400D01*
X0414350Y0034632D01*
X0411568Y0031850D01*
X0409800Y0031850D01*
X0409800Y0036400D01*
X0409400Y0036400D01*
X0409400Y0031850D01*
X0407632Y0031850D01*
X0404850Y0034632D01*
X0404850Y0036400D01*
X0409400Y0036400D01*
X0409400Y0036800D01*
X0409800Y0036800D01*
X0409800Y0041350D01*
X0409800Y0039952D02*
X0409400Y0039952D01*
X0409400Y0038754D02*
X0409800Y0038754D01*
X0409800Y0037555D02*
X0409400Y0037555D01*
X0409400Y0036357D02*
X0409800Y0036357D01*
X0409800Y0035158D02*
X0409400Y0035158D01*
X0409400Y0033960D02*
X0409800Y0033960D01*
X0409800Y0032761D02*
X0409400Y0032761D01*
X0406721Y0032761D02*
X0384000Y0032761D01*
X0384000Y0032777D02*
X0386000Y0034777D01*
X0386000Y0038423D01*
X0383423Y0041000D01*
X0379777Y0041000D01*
X0377200Y0038423D01*
X0377200Y0034777D01*
X0379200Y0032777D01*
X0379200Y0025423D01*
X0377200Y0023423D01*
X0377200Y0019777D01*
X0379777Y0017200D01*
X0383423Y0017200D01*
X0386000Y0019777D01*
X0386000Y0023423D01*
X0384000Y0025423D01*
X0384000Y0032777D01*
X0384000Y0031563D02*
X0477000Y0031563D01*
X0477000Y0032761D02*
X0426762Y0032761D01*
X0426404Y0032404D02*
X0427796Y0033796D01*
X0428550Y0035615D01*
X0428550Y0037585D01*
X0427796Y0039404D01*
X0426404Y0040796D01*
X0424585Y0041550D01*
X0422615Y0041550D01*
X0420796Y0040796D01*
X0419404Y0039404D01*
X0418650Y0037585D01*
X0418650Y0035615D01*
X0419404Y0033796D01*
X0420796Y0032404D01*
X0422615Y0031650D01*
X0424585Y0031650D01*
X0426404Y0032404D01*
X0427864Y0033960D02*
X0477000Y0033960D01*
X0477000Y0035158D02*
X0428361Y0035158D01*
X0428550Y0036357D02*
X0477000Y0036357D01*
X0477000Y0037555D02*
X0428550Y0037555D01*
X0428066Y0038754D02*
X0477000Y0038754D01*
X0477000Y0039952D02*
X0427248Y0039952D01*
X0425548Y0041151D02*
X0477000Y0041151D01*
X0455070Y0048342D02*
X0376000Y0048342D01*
X0374882Y0049540D02*
X0454258Y0049540D01*
X0453800Y0050739D02*
X0373684Y0050739D01*
X0369516Y0050739D02*
X0344000Y0050739D01*
X0344000Y0051937D02*
X0453800Y0051937D01*
X0454041Y0053136D02*
X0384359Y0053136D01*
X0385557Y0054334D02*
X0454546Y0054334D01*
X0455745Y0055533D02*
X0386000Y0055533D01*
X0386000Y0057930D02*
X0455482Y0057930D01*
X0454428Y0059129D02*
X0385294Y0059129D01*
X0384095Y0060327D02*
X0453932Y0060327D01*
X0453800Y0061526D02*
X0437676Y0061526D01*
X0439937Y0062724D02*
X0453870Y0062724D01*
X0454367Y0063923D02*
X0441011Y0063923D01*
X0441508Y0065121D02*
X0455333Y0065121D01*
X0457451Y0066320D02*
X0441700Y0066320D01*
X0441700Y0067518D02*
X0455912Y0067518D01*
X0455881Y0067531D02*
X0457645Y0066800D01*
X0465555Y0066800D01*
X0467319Y0067531D01*
X0468669Y0068881D01*
X0469400Y0070645D01*
X0469400Y0072555D01*
X0468669Y0074319D01*
X0467319Y0075669D01*
X0465555Y0076400D01*
X0457645Y0076400D01*
X0455881Y0075669D01*
X0454531Y0074319D01*
X0453800Y0072555D01*
X0453800Y0070645D01*
X0454531Y0068881D01*
X0455881Y0067531D01*
X0454695Y0068717D02*
X0441243Y0068717D01*
X0440497Y0069915D02*
X0454102Y0069915D01*
X0453800Y0071114D02*
X0439030Y0071114D01*
X0434170Y0071114D02*
X0274508Y0071114D01*
X0274000Y0069915D02*
X0281093Y0069915D01*
X0280114Y0068717D02*
X0274000Y0068717D01*
X0274000Y0067518D02*
X0279618Y0067518D01*
X0279600Y0066320D02*
X0274000Y0066320D01*
X0274000Y0065121D02*
X0279850Y0065121D01*
X0280455Y0063923D02*
X0274000Y0063923D01*
X0274000Y0062724D02*
X0281860Y0062724D01*
X0281505Y0060327D02*
X0274000Y0060327D01*
X0274000Y0059129D02*
X0280306Y0059129D01*
X0279788Y0057930D02*
X0274000Y0057930D01*
X0274000Y0056732D02*
X0279600Y0056732D01*
X0279679Y0055533D02*
X0274000Y0055533D01*
X0274000Y0054334D02*
X0280176Y0054334D01*
X0281241Y0053136D02*
X0274000Y0053136D01*
X0274000Y0051937D02*
X0339200Y0051937D01*
X0339200Y0050739D02*
X0290705Y0050739D01*
X0292482Y0049540D02*
X0338318Y0049540D01*
X0344882Y0049540D02*
X0368318Y0049540D01*
X0367200Y0048342D02*
X0346000Y0048342D01*
X0346000Y0047143D02*
X0367200Y0047143D01*
X0367200Y0045945D02*
X0350978Y0045945D01*
X0352176Y0044746D02*
X0366352Y0044746D01*
X0366600Y0041600D02*
X0371600Y0046600D01*
X0366600Y0041600D02*
X0349100Y0041600D01*
X0344700Y0041151D02*
X0260443Y0041151D01*
X0260436Y0042349D02*
X0282764Y0042349D01*
X0280830Y0043548D02*
X0262370Y0043548D01*
X0268141Y0044746D02*
X0280005Y0044746D01*
X0279600Y0045945D02*
X0269339Y0045945D01*
X0270538Y0047143D02*
X0279600Y0047143D01*
X0279959Y0048342D02*
X0271736Y0048342D01*
X0272935Y0049540D02*
X0280718Y0049540D01*
X0282495Y0050739D02*
X0273841Y0050739D01*
X0267345Y0050739D02*
X0260705Y0050739D01*
X0262482Y0049540D02*
X0266146Y0049540D01*
X0257057Y0046600D02*
X0256600Y0046600D01*
X0250830Y0043548D02*
X0249000Y0043548D01*
X0249000Y0044746D02*
X0250005Y0044746D01*
X0249600Y0045945D02*
X0249000Y0045945D01*
X0249000Y0047143D02*
X0249600Y0047143D01*
X0249959Y0048342D02*
X0249000Y0048342D01*
X0249000Y0049540D02*
X0250718Y0049540D01*
X0249000Y0050739D02*
X0252495Y0050739D01*
X0244200Y0050739D02*
X0244000Y0050739D01*
X0244000Y0051937D02*
X0244200Y0051937D01*
X0244200Y0053136D02*
X0244000Y0053136D01*
X0244000Y0054334D02*
X0244200Y0054334D01*
X0244200Y0055533D02*
X0244000Y0055533D01*
X0244000Y0056732D02*
X0244200Y0056732D01*
X0244200Y0057930D02*
X0243647Y0057930D01*
X0244200Y0059129D02*
X0242466Y0059129D01*
X0241267Y0060327D02*
X0244200Y0060327D01*
X0244200Y0061526D02*
X0240069Y0061526D01*
X0238870Y0062724D02*
X0244468Y0062724D01*
X0245528Y0063923D02*
X0237264Y0063923D01*
X0236600Y0061600D02*
X0241600Y0056600D01*
X0241600Y0031600D01*
X0261600Y0011600D01*
X0311600Y0011600D01*
X0313384Y0009990D02*
X0457780Y0009990D01*
X0457315Y0010258D02*
X0459835Y0008803D01*
X0462645Y0008050D01*
X0465555Y0008050D01*
X0468365Y0008803D01*
X0470885Y0010258D01*
X0472942Y0012315D01*
X0474397Y0014835D01*
X0475150Y0017645D01*
X0475150Y0020555D01*
X0474397Y0023365D01*
X0472942Y0025885D01*
X0470885Y0027942D01*
X0468365Y0029397D01*
X0465555Y0030150D01*
X0462645Y0030150D01*
X0459835Y0029397D01*
X0457315Y0027942D01*
X0455258Y0025885D01*
X0453803Y0023365D01*
X0453050Y0020555D01*
X0453050Y0017645D01*
X0453803Y0014835D01*
X0455258Y0012315D01*
X0457315Y0010258D01*
X0456385Y0011188D02*
X0314582Y0011188D01*
X0318609Y0012387D02*
X0455217Y0012387D01*
X0454525Y0013585D02*
X0319808Y0013585D01*
X0321000Y0014784D02*
X0453833Y0014784D01*
X0453496Y0015982D02*
X0321000Y0015982D01*
X0321000Y0017181D02*
X0453174Y0017181D01*
X0453050Y0018379D02*
X0384602Y0018379D01*
X0385800Y0019578D02*
X0453050Y0019578D01*
X0453109Y0020776D02*
X0386000Y0020776D01*
X0386000Y0021975D02*
X0453430Y0021975D01*
X0453752Y0023173D02*
X0386000Y0023173D01*
X0385051Y0024372D02*
X0454384Y0024372D01*
X0455076Y0025570D02*
X0384000Y0025570D01*
X0384000Y0026769D02*
X0456142Y0026769D01*
X0457359Y0027967D02*
X0384000Y0027967D01*
X0384000Y0029166D02*
X0459434Y0029166D01*
X0468766Y0029166D02*
X0477000Y0029166D01*
X0477000Y0030364D02*
X0384000Y0030364D01*
X0379200Y0030364D02*
X0316230Y0030364D01*
X0317428Y0029166D02*
X0379200Y0029166D01*
X0379200Y0027967D02*
X0318627Y0027967D01*
X0319000Y0026769D02*
X0379200Y0026769D01*
X0379200Y0025570D02*
X0343569Y0025570D01*
X0343340Y0025800D02*
X0341800Y0025800D01*
X0341800Y0021800D01*
X0345800Y0021800D01*
X0345800Y0023340D01*
X0343340Y0025800D01*
X0341800Y0025570D02*
X0341400Y0025570D01*
X0341400Y0025800D02*
X0339860Y0025800D01*
X0337400Y0023340D01*
X0337400Y0021800D01*
X0341400Y0021800D01*
X0341400Y0025800D01*
X0341400Y0024372D02*
X0341800Y0024372D01*
X0341800Y0023173D02*
X0341400Y0023173D01*
X0341400Y0021975D02*
X0341800Y0021975D01*
X0341800Y0021800D02*
X0341400Y0021800D01*
X0341400Y0021400D01*
X0341800Y0021400D01*
X0341800Y0021800D01*
X0341800Y0021400D02*
X0345800Y0021400D01*
X0345800Y0019860D01*
X0343340Y0017400D01*
X0341800Y0017400D01*
X0341800Y0021400D01*
X0341400Y0021400D02*
X0341400Y0017400D01*
X0339860Y0017400D01*
X0337400Y0019860D01*
X0337400Y0021400D01*
X0341400Y0021400D01*
X0341400Y0020776D02*
X0341800Y0020776D01*
X0341800Y0019578D02*
X0341400Y0019578D01*
X0341400Y0018379D02*
X0341800Y0018379D01*
X0344319Y0018379D02*
X0378598Y0018379D01*
X0377400Y0019578D02*
X0345517Y0019578D01*
X0345800Y0020776D02*
X0377200Y0020776D01*
X0377200Y0021975D02*
X0345800Y0021975D01*
X0345800Y0023173D02*
X0377200Y0023173D01*
X0378149Y0024372D02*
X0344768Y0024372D01*
X0339631Y0025570D02*
X0319000Y0025570D01*
X0319000Y0024372D02*
X0338432Y0024372D01*
X0337400Y0023173D02*
X0319000Y0023173D01*
X0319000Y0021975D02*
X0337400Y0021975D01*
X0337400Y0020776D02*
X0319000Y0020776D01*
X0319845Y0019578D02*
X0337683Y0019578D01*
X0338881Y0018379D02*
X0321000Y0018379D01*
X0314200Y0021975D02*
X0264619Y0021975D01*
X0264396Y0023173D02*
X0279087Y0023173D01*
X0279860Y0022400D02*
X0281400Y0022400D01*
X0281400Y0026400D01*
X0281800Y0026400D01*
X0281800Y0026800D01*
X0285800Y0026800D01*
X0285800Y0028340D01*
X0283340Y0030800D01*
X0281800Y0030800D01*
X0281800Y0026800D01*
X0281400Y0026800D01*
X0281400Y0030800D01*
X0279860Y0030800D01*
X0277400Y0028340D01*
X0277400Y0026800D01*
X0281400Y0026800D01*
X0281400Y0026400D01*
X0277400Y0026400D01*
X0277400Y0024860D01*
X0279860Y0022400D01*
X0281400Y0023173D02*
X0281800Y0023173D01*
X0281800Y0022400D02*
X0283340Y0022400D01*
X0285800Y0024860D01*
X0285800Y0026400D01*
X0281800Y0026400D01*
X0281800Y0022400D01*
X0281800Y0024372D02*
X0281400Y0024372D01*
X0281400Y0025570D02*
X0281800Y0025570D01*
X0281800Y0026769D02*
X0313037Y0026769D01*
X0314200Y0025570D02*
X0285800Y0025570D01*
X0285311Y0024372D02*
X0314200Y0024372D01*
X0314200Y0023173D02*
X0284113Y0023173D01*
X0277889Y0024372D02*
X0265594Y0024372D01*
X0266000Y0025570D02*
X0277400Y0025570D01*
X0281400Y0026769D02*
X0266000Y0026769D01*
X0266000Y0027967D02*
X0277400Y0027967D01*
X0278226Y0029166D02*
X0265257Y0029166D01*
X0264058Y0030364D02*
X0279425Y0030364D01*
X0281400Y0030364D02*
X0281800Y0030364D01*
X0281800Y0029166D02*
X0281400Y0029166D01*
X0281400Y0027967D02*
X0281800Y0027967D01*
X0283775Y0030364D02*
X0309442Y0030364D01*
X0310640Y0029166D02*
X0284974Y0029166D01*
X0285800Y0027967D02*
X0311839Y0027967D01*
X0315031Y0031563D02*
X0379200Y0031563D01*
X0379200Y0032761D02*
X0343701Y0032761D01*
X0343340Y0032400D02*
X0345800Y0034860D01*
X0345800Y0036400D01*
X0341800Y0036400D01*
X0341800Y0036800D01*
X0341400Y0036800D01*
X0341400Y0040800D01*
X0339860Y0040800D01*
X0337400Y0038340D01*
X0337400Y0036800D01*
X0341400Y0036800D01*
X0341400Y0036400D01*
X0337400Y0036400D01*
X0337400Y0034860D01*
X0339860Y0032400D01*
X0341400Y0032400D01*
X0341400Y0036400D01*
X0341800Y0036400D01*
X0341800Y0032400D01*
X0343340Y0032400D01*
X0341800Y0032761D02*
X0341400Y0032761D01*
X0341400Y0033960D02*
X0341800Y0033960D01*
X0341800Y0035158D02*
X0341400Y0035158D01*
X0341400Y0036357D02*
X0341800Y0036357D01*
X0341800Y0036800D02*
X0345800Y0036800D01*
X0345800Y0038340D01*
X0343340Y0040800D01*
X0341800Y0040800D01*
X0341800Y0036800D01*
X0341800Y0037555D02*
X0341400Y0037555D01*
X0341400Y0038754D02*
X0341800Y0038754D01*
X0341800Y0039952D02*
X0341400Y0039952D01*
X0339013Y0039952D02*
X0261642Y0039952D01*
X0257251Y0037555D02*
X0249039Y0037555D01*
X0249000Y0038754D02*
X0256052Y0038754D01*
X0254854Y0039952D02*
X0249000Y0039952D01*
X0249000Y0041151D02*
X0254200Y0041151D01*
X0252764Y0042349D02*
X0249000Y0042349D01*
X0244200Y0042349D02*
X0244000Y0042349D01*
X0244000Y0041151D02*
X0244200Y0041151D01*
X0244200Y0039952D02*
X0244000Y0039952D01*
X0244000Y0038754D02*
X0244200Y0038754D01*
X0244200Y0037555D02*
X0244000Y0037555D01*
X0244000Y0036357D02*
X0244200Y0036357D01*
X0244000Y0035158D02*
X0244648Y0035158D01*
X0245241Y0034565D02*
X0245241Y0034565D01*
X0245846Y0033960D02*
X0244000Y0033960D01*
X0244000Y0032761D02*
X0247045Y0032761D01*
X0248243Y0031563D02*
X0245031Y0031563D01*
X0246230Y0030364D02*
X0249442Y0030364D01*
X0250640Y0029166D02*
X0247428Y0029166D01*
X0248627Y0027967D02*
X0251839Y0027967D01*
X0253037Y0026769D02*
X0249825Y0026769D01*
X0251024Y0025570D02*
X0254236Y0025570D01*
X0255708Y0024372D02*
X0252222Y0024372D01*
X0253421Y0023173D02*
X0258804Y0023173D01*
X0259200Y0021975D02*
X0254619Y0021975D01*
X0255818Y0020776D02*
X0259343Y0020776D01*
X0260228Y0019578D02*
X0257016Y0019578D01*
X0258215Y0018379D02*
X0261427Y0018379D01*
X0262625Y0017181D02*
X0259413Y0017181D01*
X0260612Y0015982D02*
X0263824Y0015982D01*
X0265022Y0014784D02*
X0261810Y0014784D01*
X0257419Y0012387D02*
X0027983Y0012387D01*
X0028675Y0013585D02*
X0256221Y0013585D01*
X0258618Y0011188D02*
X0026815Y0011188D01*
X0025420Y0009990D02*
X0259816Y0009990D01*
X0208773Y0015982D02*
X0193875Y0015982D01*
X0192175Y0015982D02*
X0191025Y0015982D01*
X0191025Y0017181D02*
X0192175Y0017181D01*
X0192175Y0018379D02*
X0191025Y0018379D01*
X0191025Y0019578D02*
X0192175Y0019578D01*
X0192175Y0020776D02*
X0191025Y0020776D01*
X0191025Y0021975D02*
X0192175Y0021975D01*
X0192175Y0023173D02*
X0191025Y0023173D01*
X0196725Y0023173D02*
X0206275Y0023173D01*
X0206275Y0021975D02*
X0196725Y0021975D01*
X0196725Y0020776D02*
X0206275Y0020776D01*
X0206275Y0019578D02*
X0196631Y0019578D01*
X0196233Y0018379D02*
X0206746Y0018379D01*
X0207464Y0017181D02*
X0195453Y0017181D01*
X0196725Y0025570D02*
X0206275Y0025570D01*
X0209200Y0036357D02*
X0156653Y0036357D01*
X0158792Y0037555D02*
X0209200Y0037555D01*
X0209200Y0038754D02*
X0159866Y0038754D01*
X0163346Y0039952D02*
X0209200Y0039952D01*
X0209200Y0041151D02*
X0164545Y0041151D01*
X0165743Y0042349D02*
X0209200Y0042349D01*
X0209200Y0043548D02*
X0166942Y0043548D01*
X0168141Y0044746D02*
X0209200Y0044746D01*
X0209200Y0045945D02*
X0168926Y0045945D01*
X0169000Y0047143D02*
X0209200Y0047143D01*
X0209200Y0048342D02*
X0189564Y0048342D01*
X0190763Y0049540D02*
X0209200Y0049540D01*
X0209200Y0050739D02*
X0191000Y0050739D01*
X0191000Y0051937D02*
X0209200Y0051937D01*
X0209200Y0053136D02*
X0191000Y0053136D01*
X0190088Y0054334D02*
X0209200Y0054334D01*
X0209200Y0055533D02*
X0188890Y0055533D01*
X0184310Y0055533D02*
X0173890Y0055533D01*
X0175088Y0054334D02*
X0183112Y0054334D01*
X0186600Y0051600D02*
X0171600Y0051600D01*
X0174564Y0048342D02*
X0183636Y0048342D01*
X0169310Y0055533D02*
X0169000Y0055533D01*
X0169000Y0056732D02*
X0209200Y0056732D01*
X0205482Y0057930D02*
X0169000Y0057930D01*
X0169000Y0059129D02*
X0204428Y0059129D01*
X0203932Y0060327D02*
X0169000Y0060327D01*
X0169000Y0061526D02*
X0203800Y0061526D01*
X0203870Y0062724D02*
X0169000Y0062724D01*
X0169000Y0063923D02*
X0204367Y0063923D01*
X0205333Y0065121D02*
X0169000Y0065121D01*
X0169000Y0066320D02*
X0207451Y0066320D01*
X0205912Y0067518D02*
X0169000Y0067518D01*
X0169000Y0068717D02*
X0204695Y0068717D01*
X0215749Y0066320D02*
X0247926Y0066320D01*
X0249124Y0067518D02*
X0217288Y0067518D01*
X0218505Y0068717D02*
X0250114Y0068717D01*
X0251093Y0069915D02*
X0219098Y0069915D01*
X0221905Y0073511D02*
X0251150Y0073511D01*
X0251264Y0073396D02*
X0250796Y0073864D01*
X0250408Y0074399D01*
X0250108Y0074988D01*
X0249903Y0075616D01*
X0249800Y0076269D01*
X0249800Y0076400D01*
X0256400Y0076400D01*
X0256400Y0072400D01*
X0253669Y0072400D01*
X0253016Y0072503D01*
X0252388Y0072708D01*
X0251799Y0073008D01*
X0251264Y0073396D01*
X0250250Y0074709D02*
X0223103Y0074709D01*
X0223911Y0075908D02*
X0249857Y0075908D01*
X0249828Y0077106D02*
X0224000Y0077106D01*
X0224000Y0078305D02*
X0250155Y0078305D01*
X0250964Y0079503D02*
X0224000Y0079503D01*
X0224000Y0080702D02*
X0253049Y0080702D01*
X0256400Y0080702D02*
X0256800Y0080702D01*
X0256800Y0079503D02*
X0256400Y0079503D01*
X0256400Y0078305D02*
X0256800Y0078305D01*
X0256800Y0077106D02*
X0256400Y0077106D01*
X0256400Y0075908D02*
X0256800Y0075908D01*
X0256800Y0074709D02*
X0256400Y0074709D01*
X0256400Y0073511D02*
X0256800Y0073511D01*
X0256600Y0066600D02*
X0251600Y0066600D01*
X0246727Y0065121D02*
X0217867Y0065121D01*
X0212479Y0061600D02*
X0236600Y0061600D01*
X0212479Y0061600D02*
X0211600Y0061600D01*
X0184891Y0069915D02*
X0169000Y0069915D01*
X0169000Y0071114D02*
X0183692Y0071114D01*
X0182494Y0072312D02*
X0169000Y0072312D01*
X0169000Y0073511D02*
X0181295Y0073511D01*
X0180097Y0074709D02*
X0169000Y0074709D01*
X0169000Y0075908D02*
X0179289Y0075908D01*
X0179200Y0077106D02*
X0169000Y0077106D01*
X0169000Y0078305D02*
X0179200Y0078305D01*
X0179200Y0079503D02*
X0169000Y0079503D01*
X0169000Y0080702D02*
X0179200Y0080702D01*
X0179200Y0081900D02*
X0169000Y0081900D01*
X0169000Y0083099D02*
X0179200Y0083099D01*
X0179200Y0084297D02*
X0169000Y0084297D01*
X0169000Y0085496D02*
X0179200Y0085496D01*
X0178112Y0086694D02*
X0170088Y0086694D01*
X0174115Y0087893D02*
X0176913Y0087893D01*
X0175715Y0089091D02*
X0175314Y0089091D01*
X0180106Y0091488D02*
X0186400Y0091488D01*
X0186400Y0091400D02*
X0182400Y0091400D01*
X0182400Y0089860D01*
X0184860Y0087400D01*
X0186400Y0087400D01*
X0186400Y0091400D01*
X0186400Y0091800D01*
X0186400Y0095800D01*
X0184860Y0095800D01*
X0182400Y0093340D01*
X0182400Y0091800D01*
X0186400Y0091800D01*
X0186800Y0091800D01*
X0186800Y0095800D01*
X0188340Y0095800D01*
X0190800Y0093340D01*
X0190800Y0091800D01*
X0186800Y0091800D01*
X0186800Y0091400D01*
X0190800Y0091400D01*
X0190800Y0089860D01*
X0188340Y0087400D01*
X0186800Y0087400D01*
X0186800Y0091400D01*
X0186400Y0091400D01*
X0186800Y0091488D02*
X0219200Y0091488D01*
X0219200Y0090290D02*
X0190800Y0090290D01*
X0190031Y0089091D02*
X0219200Y0089091D01*
X0219200Y0087893D02*
X0188833Y0087893D01*
X0186800Y0087893D02*
X0186400Y0087893D01*
X0186400Y0089091D02*
X0186800Y0089091D01*
X0186800Y0090290D02*
X0186400Y0090290D01*
X0184367Y0087893D02*
X0183662Y0087893D01*
X0184000Y0086694D02*
X0219200Y0086694D01*
X0219200Y0085496D02*
X0217064Y0085496D01*
X0217011Y0085534D02*
X0216366Y0085863D01*
X0215677Y0086087D01*
X0214962Y0086200D01*
X0212000Y0086200D01*
X0212000Y0082000D01*
X0211200Y0082000D01*
X0211200Y0086200D01*
X0208238Y0086200D01*
X0207523Y0086087D01*
X0206834Y0085863D01*
X0206189Y0085534D01*
X0205603Y0085109D01*
X0205091Y0084597D01*
X0204666Y0084011D01*
X0204337Y0083366D01*
X0204113Y0082677D01*
X0204006Y0082000D01*
X0211200Y0082000D01*
X0211200Y0081200D01*
X0212000Y0081200D01*
X0212000Y0082000D01*
X0219194Y0082000D01*
X0219087Y0082677D01*
X0218863Y0083366D01*
X0218534Y0084011D01*
X0218109Y0084597D01*
X0217597Y0085109D01*
X0217011Y0085534D01*
X0218326Y0084297D02*
X0219200Y0084297D01*
X0219200Y0083099D02*
X0218950Y0083099D01*
X0219200Y0081900D02*
X0212000Y0081900D01*
X0212000Y0081200D02*
X0219194Y0081200D01*
X0219087Y0080523D01*
X0218863Y0079834D01*
X0218534Y0079189D01*
X0218109Y0078603D01*
X0217597Y0078091D01*
X0217011Y0077666D01*
X0216366Y0077337D01*
X0215677Y0077113D01*
X0214962Y0077000D01*
X0212000Y0077000D01*
X0212000Y0081200D01*
X0212000Y0080702D02*
X0211200Y0080702D01*
X0211200Y0081200D02*
X0211200Y0077000D01*
X0208238Y0077000D01*
X0207523Y0077113D01*
X0206834Y0077337D01*
X0206189Y0077666D01*
X0205603Y0078091D01*
X0205091Y0078603D01*
X0204666Y0079189D01*
X0204337Y0079834D01*
X0204113Y0080523D01*
X0204006Y0081200D01*
X0211200Y0081200D01*
X0211200Y0081900D02*
X0184000Y0081900D01*
X0184000Y0080702D02*
X0204085Y0080702D01*
X0204506Y0079503D02*
X0184000Y0079503D01*
X0184000Y0078305D02*
X0205390Y0078305D01*
X0207567Y0077106D02*
X0184488Y0077106D01*
X0185686Y0075908D02*
X0206457Y0075908D01*
X0204921Y0074709D02*
X0186885Y0074709D01*
X0164200Y0074709D02*
X0159728Y0074709D01*
X0160253Y0073511D02*
X0164200Y0073511D01*
X0164200Y0072312D02*
X0160600Y0072312D01*
X0160600Y0071114D02*
X0164200Y0071114D01*
X0164200Y0069915D02*
X0160347Y0069915D01*
X0159851Y0068717D02*
X0164200Y0068717D01*
X0164200Y0067518D02*
X0158755Y0067518D01*
X0157917Y0066320D02*
X0164200Y0066320D01*
X0164200Y0065121D02*
X0159316Y0065121D01*
X0160083Y0063923D02*
X0164200Y0063923D01*
X0164200Y0062724D02*
X0160579Y0062724D01*
X0160600Y0061526D02*
X0164200Y0061526D01*
X0164200Y0060327D02*
X0160518Y0060327D01*
X0160021Y0059129D02*
X0164200Y0059129D01*
X0164200Y0057930D02*
X0159167Y0057930D01*
X0157557Y0056732D02*
X0164200Y0056732D01*
X0164200Y0055533D02*
X0158621Y0055533D01*
X0159641Y0054334D02*
X0164200Y0054334D01*
X0164200Y0053136D02*
X0160169Y0053136D01*
X0160328Y0050739D02*
X0164200Y0050739D01*
X0164200Y0051937D02*
X0152000Y0051937D01*
X0151200Y0051937D02*
X0129657Y0051937D01*
X0129000Y0053136D02*
X0143031Y0053136D01*
X0143559Y0054334D02*
X0129000Y0054334D01*
X0129000Y0055533D02*
X0144579Y0055533D01*
X0145643Y0056732D02*
X0129000Y0056732D01*
X0129000Y0057930D02*
X0144033Y0057930D01*
X0143179Y0059129D02*
X0129000Y0059129D01*
X0129000Y0060327D02*
X0142682Y0060327D01*
X0142600Y0061526D02*
X0129000Y0061526D01*
X0129000Y0062724D02*
X0142621Y0062724D01*
X0143117Y0063923D02*
X0129000Y0063923D01*
X0129000Y0065121D02*
X0143884Y0065121D01*
X0145283Y0066320D02*
X0129000Y0066320D01*
X0129000Y0067518D02*
X0144445Y0067518D01*
X0143349Y0068717D02*
X0129000Y0068717D01*
X0129000Y0069915D02*
X0142853Y0069915D01*
X0142600Y0071114D02*
X0129000Y0071114D01*
X0129000Y0072312D02*
X0142600Y0072312D01*
X0142947Y0073511D02*
X0129000Y0073511D01*
X0129000Y0074709D02*
X0143472Y0074709D01*
X0144671Y0075908D02*
X0129000Y0075908D01*
X0129000Y0077106D02*
X0144857Y0077106D01*
X0143659Y0078305D02*
X0129000Y0078305D01*
X0129000Y0079503D02*
X0143024Y0079503D01*
X0142600Y0080702D02*
X0129000Y0080702D01*
X0129000Y0081900D02*
X0142600Y0081900D01*
X0142776Y0083099D02*
X0129000Y0083099D01*
X0129000Y0084297D02*
X0143272Y0084297D01*
X0144259Y0085496D02*
X0129000Y0085496D01*
X0129000Y0086694D02*
X0145732Y0086694D01*
X0144070Y0087893D02*
X0129000Y0087893D01*
X0129000Y0089091D02*
X0143194Y0089091D01*
X0142698Y0090290D02*
X0129000Y0090290D01*
X0129000Y0091488D02*
X0142600Y0091488D01*
X0142605Y0092687D02*
X0129000Y0092687D01*
X0129000Y0093885D02*
X0143102Y0093885D01*
X0143847Y0095084D02*
X0129000Y0095084D01*
X0129000Y0096282D02*
X0145193Y0096282D01*
X0144482Y0097481D02*
X0129000Y0097481D01*
X0129000Y0098679D02*
X0143365Y0098679D01*
X0142868Y0099878D02*
X0129000Y0099878D01*
X0129000Y0101076D02*
X0142600Y0101076D01*
X0142600Y0102275D02*
X0129000Y0102275D01*
X0129000Y0103473D02*
X0142931Y0103473D01*
X0143435Y0104672D02*
X0129000Y0104672D01*
X0129000Y0105870D02*
X0144634Y0105870D01*
X0144894Y0107069D02*
X0129000Y0107069D01*
X0129000Y0108268D02*
X0143696Y0108268D01*
X0143039Y0109466D02*
X0129000Y0109466D01*
X0129000Y0110665D02*
X0142600Y0110665D01*
X0142600Y0111863D02*
X0129000Y0111863D01*
X0128533Y0113062D02*
X0142760Y0113062D01*
X0143257Y0114260D02*
X0127334Y0114260D01*
X0126136Y0115459D02*
X0144222Y0115459D01*
X0146098Y0116657D02*
X0124937Y0116657D01*
X0123738Y0117856D02*
X0195300Y0117856D01*
X0195300Y0119054D02*
X0122540Y0119054D01*
X0121341Y0120253D02*
X0195300Y0120253D01*
X0195300Y0121451D02*
X0120143Y0121451D01*
X0118944Y0122650D02*
X0194662Y0122650D01*
X0193562Y0123848D02*
X0117444Y0123848D01*
X0157102Y0116657D02*
X0195300Y0116657D01*
X0195300Y0115459D02*
X0158978Y0115459D01*
X0159943Y0114260D02*
X0195300Y0114260D01*
X0195300Y0113062D02*
X0160440Y0113062D01*
X0160600Y0111863D02*
X0195300Y0111863D01*
X0194776Y0110665D02*
X0160600Y0110665D01*
X0160161Y0109466D02*
X0193609Y0109466D01*
X0193112Y0108268D02*
X0159504Y0108268D01*
X0158306Y0107069D02*
X0192900Y0107069D01*
X0192900Y0105870D02*
X0173552Y0105870D01*
X0174751Y0104672D02*
X0192900Y0104672D01*
X0195252Y0101600D02*
X0197700Y0104048D01*
X0197700Y0129400D01*
X0192900Y0129841D02*
X0025162Y0129841D01*
X0026666Y0131039D02*
X0192900Y0131039D01*
X0192900Y0132238D02*
X0027865Y0132238D01*
X0028589Y0133436D02*
X0192934Y0133436D01*
X0193430Y0134635D02*
X0029281Y0134635D01*
X0029664Y0135833D02*
X0194345Y0135833D01*
X0192900Y0128642D02*
X0022765Y0128642D01*
X0015435Y0128642D02*
X0006200Y0128642D01*
X0006200Y0127444D02*
X0192900Y0127444D01*
X0192900Y0126245D02*
X0006200Y0126245D01*
X0006200Y0125047D02*
X0193065Y0125047D01*
X0200100Y0121451D02*
X0213100Y0121451D01*
X0213100Y0120253D02*
X0200100Y0120253D01*
X0200100Y0119054D02*
X0213100Y0119054D01*
X0213100Y0117856D02*
X0200100Y0117856D01*
X0200100Y0116657D02*
X0213100Y0116657D01*
X0213100Y0115459D02*
X0200100Y0115459D01*
X0200100Y0114260D02*
X0213100Y0114260D01*
X0213100Y0113062D02*
X0200100Y0113062D01*
X0200100Y0111863D02*
X0213100Y0111863D01*
X0212576Y0110665D02*
X0200624Y0110665D01*
X0201791Y0109466D02*
X0211409Y0109466D01*
X0210912Y0108268D02*
X0202288Y0108268D01*
X0202500Y0107069D02*
X0210700Y0107069D01*
X0210700Y0105870D02*
X0202500Y0105870D01*
X0202500Y0104672D02*
X0210700Y0104672D01*
X0210700Y0103473D02*
X0202500Y0103473D01*
X0202500Y0102275D02*
X0210700Y0102275D01*
X0210700Y0101076D02*
X0202500Y0101076D01*
X0202500Y0099878D02*
X0210700Y0099878D01*
X0211183Y0098679D02*
X0202017Y0098679D01*
X0201169Y0097481D02*
X0212031Y0097481D01*
X0213863Y0096282D02*
X0199337Y0096282D01*
X0196063Y0096282D02*
X0169677Y0096282D01*
X0168861Y0095084D02*
X0168478Y0095084D01*
X0167663Y0093885D02*
X0167279Y0093885D01*
X0167200Y0092687D02*
X0166081Y0092687D01*
X0167200Y0091488D02*
X0164882Y0091488D01*
X0163684Y0090290D02*
X0166896Y0090290D01*
X0165697Y0089091D02*
X0160006Y0089091D01*
X0159130Y0087893D02*
X0164538Y0087893D01*
X0164200Y0086694D02*
X0157467Y0086694D01*
X0158941Y0085496D02*
X0164200Y0085496D01*
X0164200Y0084297D02*
X0159928Y0084297D01*
X0160424Y0083099D02*
X0164200Y0083099D01*
X0164200Y0081900D02*
X0160600Y0081900D01*
X0160600Y0080702D02*
X0164200Y0080702D01*
X0164200Y0079503D02*
X0160176Y0079503D01*
X0159541Y0078305D02*
X0164200Y0078305D01*
X0164200Y0077106D02*
X0158343Y0077106D01*
X0158529Y0075908D02*
X0164200Y0075908D01*
X0184000Y0083099D02*
X0204250Y0083099D01*
X0204874Y0084297D02*
X0184000Y0084297D01*
X0184000Y0085496D02*
X0206136Y0085496D01*
X0211200Y0085496D02*
X0212000Y0085496D01*
X0212000Y0084297D02*
X0211200Y0084297D01*
X0211200Y0083099D02*
X0212000Y0083099D01*
X0219115Y0080702D02*
X0219200Y0080702D01*
X0219200Y0079503D02*
X0218694Y0079503D01*
X0219200Y0078305D02*
X0217810Y0078305D01*
X0218712Y0077106D02*
X0215633Y0077106D01*
X0216743Y0075908D02*
X0217514Y0075908D01*
X0212000Y0077106D02*
X0211200Y0077106D01*
X0211200Y0078305D02*
X0212000Y0078305D01*
X0212000Y0079503D02*
X0211200Y0079503D01*
X0183169Y0089091D02*
X0182503Y0089091D01*
X0182400Y0090290D02*
X0181304Y0090290D01*
X0182400Y0092687D02*
X0178907Y0092687D01*
X0177354Y0093885D02*
X0182946Y0093885D01*
X0184144Y0095084D02*
X0174339Y0095084D01*
X0173703Y0097481D02*
X0194231Y0097481D01*
X0193383Y0098679D02*
X0174902Y0098679D01*
X0171600Y0101600D02*
X0195252Y0101600D01*
X0197700Y0103800D02*
X0197700Y0104048D01*
X0215500Y0103868D02*
X0215500Y0103800D01*
X0217137Y0096282D02*
X0219200Y0096282D01*
X0219200Y0095084D02*
X0189056Y0095084D01*
X0190254Y0093885D02*
X0219200Y0093885D01*
X0219200Y0092687D02*
X0190800Y0092687D01*
X0186800Y0092687D02*
X0186400Y0092687D01*
X0186400Y0093885D02*
X0186800Y0093885D01*
X0186800Y0095084D02*
X0186400Y0095084D01*
X0171600Y0101600D02*
X0161600Y0091600D01*
X0151600Y0091600D01*
X0158007Y0096282D02*
X0162888Y0096282D01*
X0161690Y0095084D02*
X0159353Y0095084D01*
X0158718Y0097481D02*
X0164087Y0097481D01*
X0165285Y0098679D02*
X0159835Y0098679D01*
X0160332Y0099878D02*
X0166484Y0099878D01*
X0167200Y0101076D02*
X0160600Y0101076D01*
X0160600Y0102275D02*
X0167200Y0102275D01*
X0167251Y0103473D02*
X0160269Y0103473D01*
X0159765Y0104672D02*
X0168449Y0104672D01*
X0169648Y0105870D02*
X0158566Y0105870D01*
X0200738Y0122650D02*
X0212462Y0122650D01*
X0211362Y0123848D02*
X0201838Y0123848D01*
X0202335Y0125047D02*
X0210865Y0125047D01*
X0210700Y0126245D02*
X0202500Y0126245D01*
X0202500Y0127444D02*
X0210700Y0127444D01*
X0210700Y0128642D02*
X0202500Y0128642D01*
X0218538Y0122650D02*
X0249109Y0122650D01*
X0249583Y0123848D02*
X0219638Y0123848D01*
X0220135Y0125047D02*
X0250541Y0125047D01*
X0256200Y0125047D02*
X0257000Y0125047D01*
X0257000Y0123848D02*
X0256200Y0123848D01*
X0256200Y0122650D02*
X0257000Y0122650D01*
X0169482Y0145421D02*
X0028210Y0145421D01*
X0028902Y0144223D02*
X0168283Y0144223D01*
X0167400Y0143024D02*
X0029488Y0143024D01*
X0029809Y0141826D02*
X0167400Y0141826D01*
X0167400Y0140627D02*
X0030131Y0140627D01*
X0030150Y0139429D02*
X0167831Y0139429D01*
X0054894Y0107069D02*
X0026204Y0107069D01*
X0026833Y0105870D02*
X0054634Y0105870D01*
X0053435Y0104672D02*
X0028316Y0104672D01*
X0028056Y0108268D02*
X0053696Y0108268D01*
X0052931Y0103473D02*
X0038121Y0103473D01*
X0039319Y0102275D02*
X0052600Y0102275D01*
X0052600Y0101076D02*
X0040518Y0101076D01*
X0041716Y0099878D02*
X0052868Y0099878D01*
X0053365Y0098679D02*
X0042915Y0098679D01*
X0044113Y0097481D02*
X0054482Y0097481D01*
X0055193Y0096282D02*
X0045312Y0096282D01*
X0046510Y0095084D02*
X0053847Y0095084D01*
X0046600Y0091600D02*
X0061600Y0091600D01*
X0053194Y0089091D02*
X0042503Y0089091D01*
X0043701Y0087893D02*
X0054070Y0087893D01*
X0055733Y0086694D02*
X0044900Y0086694D01*
X0046098Y0085496D02*
X0054259Y0085496D01*
X0053272Y0084297D02*
X0047297Y0084297D01*
X0041707Y0083099D02*
X0038495Y0083099D01*
X0039694Y0081900D02*
X0042906Y0081900D01*
X0044104Y0080702D02*
X0040892Y0080702D01*
X0042091Y0079503D02*
X0045391Y0079503D01*
X0043289Y0078305D02*
X0053659Y0078305D01*
X0054857Y0077106D02*
X0044488Y0077106D01*
X0045686Y0075908D02*
X0054671Y0075908D01*
X0053472Y0074709D02*
X0046885Y0074709D01*
X0042494Y0072312D02*
X0039282Y0072312D01*
X0040480Y0071114D02*
X0043692Y0071114D01*
X0044891Y0069915D02*
X0041679Y0069915D01*
X0042877Y0068717D02*
X0053349Y0068717D01*
X0054445Y0067518D02*
X0044076Y0067518D01*
X0045274Y0066320D02*
X0055283Y0066320D01*
X0053884Y0065121D02*
X0046473Y0065121D01*
X0046600Y0061600D02*
X0061600Y0061600D01*
X0046600Y0061600D02*
X0036600Y0071600D01*
X0021600Y0071600D01*
X0027288Y0067518D02*
X0037288Y0067518D01*
X0038486Y0066320D02*
X0025749Y0066320D01*
X0028505Y0068717D02*
X0036089Y0068717D01*
X0046600Y0071600D02*
X0061600Y0071600D01*
X0046600Y0071600D02*
X0036600Y0081600D01*
X0021600Y0081600D01*
X0015708Y0085496D02*
X0006200Y0085496D01*
X0006200Y0086694D02*
X0038112Y0086694D01*
X0039310Y0085496D02*
X0027492Y0085496D01*
X0028678Y0084297D02*
X0040509Y0084297D01*
X0036913Y0087893D02*
X0027681Y0087893D01*
X0028756Y0089091D02*
X0035715Y0089091D01*
X0036600Y0091600D02*
X0046600Y0081600D01*
X0061600Y0081600D01*
X0038898Y0075908D02*
X0026743Y0075908D01*
X0026294Y0077106D02*
X0037700Y0077106D01*
X0036501Y0078305D02*
X0028093Y0078305D01*
X0016906Y0077106D02*
X0006200Y0077106D01*
X0006200Y0075908D02*
X0016457Y0075908D01*
X0014921Y0074709D02*
X0006200Y0074709D01*
X0006200Y0073511D02*
X0014196Y0073511D01*
X0013800Y0072312D02*
X0006200Y0072312D01*
X0006200Y0071114D02*
X0013800Y0071114D01*
X0014102Y0069915D02*
X0006200Y0069915D01*
X0006200Y0068717D02*
X0014695Y0068717D01*
X0015912Y0067518D02*
X0006200Y0067518D01*
X0006200Y0066320D02*
X0017451Y0066320D01*
X0015333Y0065121D02*
X0006200Y0065121D01*
X0006200Y0063923D02*
X0014367Y0063923D01*
X0013870Y0062724D02*
X0006200Y0062724D01*
X0006200Y0061526D02*
X0013800Y0061526D01*
X0013932Y0060327D02*
X0006200Y0060327D01*
X0006200Y0059129D02*
X0014428Y0059129D01*
X0015482Y0057930D02*
X0006200Y0057930D01*
X0006200Y0056732D02*
X0038074Y0056732D01*
X0036876Y0057930D02*
X0027718Y0057930D01*
X0028772Y0059129D02*
X0035677Y0059129D01*
X0039273Y0055533D02*
X0027013Y0055533D01*
X0027011Y0055534D02*
X0026366Y0055863D01*
X0025677Y0056087D01*
X0024962Y0056200D01*
X0022000Y0056200D01*
X0022000Y0052000D01*
X0029194Y0052000D01*
X0029087Y0052677D01*
X0028863Y0053366D01*
X0028534Y0054011D01*
X0028109Y0054597D01*
X0027597Y0055109D01*
X0027011Y0055534D01*
X0028299Y0054334D02*
X0040471Y0054334D01*
X0041670Y0053136D02*
X0028938Y0053136D01*
X0029121Y0050739D02*
X0044067Y0050739D01*
X0042868Y0051937D02*
X0022000Y0051937D01*
X0021200Y0051937D02*
X0006200Y0051937D01*
X0006200Y0050739D02*
X0014079Y0050739D01*
X0014113Y0050523D02*
X0014006Y0051200D01*
X0021200Y0051200D01*
X0021200Y0047000D01*
X0018238Y0047000D01*
X0017523Y0047113D01*
X0016834Y0047337D01*
X0016189Y0047666D01*
X0015603Y0048091D01*
X0015091Y0048603D01*
X0014666Y0049189D01*
X0014337Y0049834D01*
X0014113Y0050523D01*
X0014487Y0049540D02*
X0006200Y0049540D01*
X0006200Y0048342D02*
X0015353Y0048342D01*
X0017430Y0047143D02*
X0006200Y0047143D01*
X0021200Y0047143D02*
X0022000Y0047143D01*
X0022000Y0048342D02*
X0021200Y0048342D01*
X0021200Y0049540D02*
X0022000Y0049540D01*
X0022000Y0050739D02*
X0021200Y0050739D01*
X0021200Y0053136D02*
X0022000Y0053136D01*
X0022000Y0054334D02*
X0021200Y0054334D01*
X0021200Y0055533D02*
X0022000Y0055533D01*
X0016187Y0055533D02*
X0006200Y0055533D01*
X0006200Y0054334D02*
X0014901Y0054334D01*
X0014262Y0053136D02*
X0006200Y0053136D01*
X0028713Y0049540D02*
X0045301Y0049540D01*
X0068380Y0047143D02*
X0127662Y0047143D01*
X0128861Y0045945D02*
X0068492Y0045945D01*
X0069690Y0044746D02*
X0130059Y0044746D01*
X0131258Y0043548D02*
X0070238Y0043548D01*
X0070600Y0042349D02*
X0132456Y0042349D01*
X0133655Y0041151D02*
X0070600Y0041151D01*
X0070362Y0039952D02*
X0134854Y0039952D01*
X0143334Y0038754D02*
X0069866Y0038754D01*
X0068792Y0037555D02*
X0144408Y0037555D01*
X0146547Y0036357D02*
X0066653Y0036357D01*
X0130855Y0050739D02*
X0142872Y0050739D01*
X0143213Y0049540D02*
X0132054Y0049540D01*
X0133252Y0048342D02*
X0143940Y0048342D01*
X0145293Y0047143D02*
X0134451Y0047143D01*
X0135649Y0045945D02*
X0144708Y0045945D01*
X0143510Y0044746D02*
X0136848Y0044746D01*
X0157907Y0047143D02*
X0163749Y0047143D01*
X0164200Y0048342D02*
X0159260Y0048342D01*
X0159987Y0049540D02*
X0164200Y0049540D01*
X0162551Y0045945D02*
X0158492Y0045945D01*
X0159690Y0044746D02*
X0161352Y0044746D01*
X0244000Y0044746D02*
X0244200Y0044746D01*
X0244200Y0043548D02*
X0244000Y0043548D01*
X0244000Y0045945D02*
X0244200Y0045945D01*
X0244200Y0047143D02*
X0244000Y0047143D01*
X0244000Y0048342D02*
X0244200Y0048342D01*
X0244200Y0049540D02*
X0244000Y0049540D01*
X0274000Y0061526D02*
X0284200Y0061526D01*
X0289000Y0061526D02*
X0333280Y0061526D01*
X0332082Y0062724D02*
X0303947Y0062724D01*
X0305145Y0063923D02*
X0330883Y0063923D01*
X0336473Y0065121D02*
X0377200Y0065121D01*
X0377200Y0066320D02*
X0335274Y0066320D01*
X0334076Y0067518D02*
X0377200Y0067518D01*
X0377494Y0068717D02*
X0332761Y0068717D01*
X0331600Y0066600D02*
X0341600Y0056600D01*
X0341600Y0046600D01*
X0286600Y0046600D01*
X0292370Y0043548D02*
X0338430Y0043548D01*
X0339628Y0042349D02*
X0290436Y0042349D01*
X0307672Y0038754D02*
X0337814Y0038754D01*
X0337400Y0037555D02*
X0309039Y0037555D01*
X0310237Y0036357D02*
X0337400Y0036357D01*
X0337400Y0035158D02*
X0311436Y0035158D01*
X0312634Y0033960D02*
X0338300Y0033960D01*
X0339499Y0032761D02*
X0313833Y0032761D01*
X0308243Y0031563D02*
X0255031Y0031563D01*
X0253833Y0032761D02*
X0307045Y0032761D01*
X0305846Y0033960D02*
X0252634Y0033960D01*
X0251436Y0035158D02*
X0259648Y0035158D01*
X0258449Y0036357D02*
X0250237Y0036357D01*
X0256230Y0030364D02*
X0259142Y0030364D01*
X0257943Y0029166D02*
X0257428Y0029166D01*
X0291959Y0053136D02*
X0298841Y0053136D01*
X0304359Y0053136D02*
X0313841Y0053136D01*
X0316600Y0056600D02*
X0301600Y0056600D01*
X0286600Y0056600D01*
X0286600Y0066600D01*
X0293086Y0068717D02*
X0297494Y0068717D01*
X0297200Y0067518D02*
X0293582Y0067518D01*
X0293600Y0066320D02*
X0297200Y0066320D01*
X0297200Y0065121D02*
X0293350Y0065121D01*
X0292745Y0063923D02*
X0298055Y0063923D01*
X0299253Y0062724D02*
X0291340Y0062724D01*
X0291695Y0060327D02*
X0299105Y0060327D01*
X0297906Y0059129D02*
X0292894Y0059129D01*
X0304095Y0060327D02*
X0314105Y0060327D01*
X0312906Y0059129D02*
X0305294Y0059129D01*
X0319095Y0060327D02*
X0334479Y0060327D01*
X0335677Y0059129D02*
X0320294Y0059129D01*
X0321000Y0057930D02*
X0336876Y0057930D01*
X0338074Y0056732D02*
X0321000Y0056732D01*
X0321000Y0055533D02*
X0339200Y0055533D01*
X0339200Y0054334D02*
X0320557Y0054334D01*
X0319359Y0053136D02*
X0339200Y0053136D01*
X0344000Y0053136D02*
X0378841Y0053136D01*
X0377643Y0054334D02*
X0344000Y0054334D01*
X0344000Y0055533D02*
X0377200Y0055533D01*
X0377200Y0056732D02*
X0344000Y0056732D01*
X0343647Y0057930D02*
X0377200Y0057930D01*
X0377906Y0059129D02*
X0342466Y0059129D01*
X0341267Y0060327D02*
X0379105Y0060327D01*
X0379200Y0061526D02*
X0340069Y0061526D01*
X0338870Y0062724D02*
X0379200Y0062724D01*
X0378055Y0063923D02*
X0337672Y0063923D01*
X0331600Y0066600D02*
X0301600Y0066600D01*
X0282854Y0072312D02*
X0275706Y0072312D01*
X0276905Y0073511D02*
X0280867Y0073511D01*
X0346000Y0045945D02*
X0347222Y0045945D01*
X0346024Y0044746D02*
X0345969Y0044746D01*
X0344825Y0043548D02*
X0344770Y0043548D01*
X0344700Y0042349D02*
X0343572Y0042349D01*
X0344187Y0039952D02*
X0344700Y0039952D01*
X0345386Y0038754D02*
X0345724Y0038754D01*
X0345800Y0037555D02*
X0346922Y0037555D01*
X0345800Y0036357D02*
X0377200Y0036357D01*
X0377200Y0037555D02*
X0351278Y0037555D01*
X0352476Y0038754D02*
X0377531Y0038754D01*
X0378730Y0039952D02*
X0368346Y0039952D01*
X0381600Y0036600D02*
X0381600Y0021600D01*
X0412479Y0032761D02*
X0420438Y0032761D01*
X0419336Y0033960D02*
X0413677Y0033960D01*
X0414350Y0035158D02*
X0418839Y0035158D01*
X0418650Y0036357D02*
X0414350Y0036357D01*
X0414350Y0037555D02*
X0418650Y0037555D01*
X0419134Y0038754D02*
X0414164Y0038754D01*
X0412965Y0039952D02*
X0419952Y0039952D01*
X0421652Y0041151D02*
X0411767Y0041151D01*
X0406235Y0039952D02*
X0384470Y0039952D01*
X0385669Y0038754D02*
X0405036Y0038754D01*
X0404850Y0037555D02*
X0386000Y0037555D01*
X0386000Y0036357D02*
X0404850Y0036357D01*
X0404850Y0035158D02*
X0386000Y0035158D01*
X0385182Y0033960D02*
X0405523Y0033960D01*
X0378018Y0033960D02*
X0344899Y0033960D01*
X0345800Y0035158D02*
X0377200Y0035158D01*
X0459880Y0008791D02*
X0023320Y0008791D01*
X0038083Y0073511D02*
X0041295Y0073511D01*
X0040097Y0074709D02*
X0028279Y0074709D01*
X0015107Y0078305D02*
X0006200Y0078305D01*
X0006200Y0079503D02*
X0014273Y0079503D01*
X0013800Y0080702D02*
X0006200Y0080702D01*
X0006200Y0081900D02*
X0013800Y0081900D01*
X0014025Y0083099D02*
X0006200Y0083099D01*
X0006200Y0084297D02*
X0014522Y0084297D01*
X0015519Y0087893D02*
X0006200Y0087893D01*
X0006200Y0089091D02*
X0014444Y0089091D01*
X0013947Y0090290D02*
X0006200Y0090290D01*
X0006200Y0091488D02*
X0013800Y0091488D01*
X0013855Y0092687D02*
X0006200Y0092687D01*
X0006200Y0093885D02*
X0014351Y0093885D01*
X0015296Y0095084D02*
X0006200Y0095084D01*
X0006200Y0096282D02*
X0017361Y0096282D01*
X0016001Y0097481D02*
X0006200Y0097481D01*
X0006200Y0098679D02*
X0014732Y0098679D01*
X0014118Y0099878D02*
X0006200Y0099878D01*
X0006200Y0101076D02*
X0013800Y0101076D01*
X0013800Y0102275D02*
X0006200Y0102275D01*
X0006200Y0103473D02*
X0014181Y0103473D01*
X0014884Y0104672D02*
X0006200Y0104672D01*
X0006200Y0105870D02*
X0016367Y0105870D01*
X0016996Y0107069D02*
X0006200Y0107069D01*
X0006200Y0108268D02*
X0015144Y0108268D01*
X0014288Y0109466D02*
X0006200Y0109466D01*
X0006200Y0110665D02*
X0013800Y0110665D01*
X0013800Y0111863D02*
X0006200Y0111863D01*
X0006200Y0113062D02*
X0014010Y0113062D01*
X0014506Y0114260D02*
X0006200Y0114260D01*
X0006200Y0115459D02*
X0015670Y0115459D01*
X0019200Y0116657D02*
X0006200Y0116657D01*
X0006200Y0129841D02*
X0013038Y0129841D01*
X0011534Y0131039D02*
X0006200Y0131039D01*
X0006200Y0132238D02*
X0010335Y0132238D01*
X0009611Y0133436D02*
X0006200Y0133436D01*
X0006200Y0134635D02*
X0008919Y0134635D01*
X0008536Y0135833D02*
X0006200Y0135833D01*
X0006200Y0137032D02*
X0008214Y0137032D01*
X0008050Y0138230D02*
X0006200Y0138230D01*
X0006200Y0139429D02*
X0008050Y0139429D01*
X0008069Y0140627D02*
X0006200Y0140627D01*
X0006200Y0141826D02*
X0008391Y0141826D01*
X0008712Y0143024D02*
X0006200Y0143024D01*
X0006200Y0144223D02*
X0009298Y0144223D01*
X0009990Y0145421D02*
X0006200Y0145421D01*
X0006200Y0146620D02*
X0010993Y0146620D01*
X0027207Y0146620D02*
X0455993Y0146620D01*
X0472207Y0146620D02*
X0477000Y0146620D01*
X0477000Y0145421D02*
X0473210Y0145421D01*
X0473902Y0144223D02*
X0477000Y0144223D01*
X0477000Y0143024D02*
X0474488Y0143024D01*
X0474809Y0141826D02*
X0477000Y0141826D01*
X0477000Y0140627D02*
X0475131Y0140627D01*
X0475150Y0139429D02*
X0477000Y0139429D01*
X0477000Y0138230D02*
X0475150Y0138230D01*
X0474986Y0137032D02*
X0477000Y0137032D01*
X0477000Y0135833D02*
X0474664Y0135833D01*
X0474281Y0134635D02*
X0477000Y0134635D01*
X0477000Y0133436D02*
X0473589Y0133436D01*
X0472865Y0132238D02*
X0477000Y0132238D01*
X0477000Y0131039D02*
X0471666Y0131039D01*
X0470162Y0129841D02*
X0477000Y0129841D01*
X0454091Y0110665D02*
X0439748Y0110665D01*
X0440933Y0109466D02*
X0454525Y0109466D01*
X0455427Y0108268D02*
X0441429Y0108268D01*
X0441700Y0107069D02*
X0457802Y0107069D01*
X0456857Y0105870D02*
X0441700Y0105870D01*
X0465398Y0107069D02*
X0477000Y0107069D01*
X0477000Y0105870D02*
X0466343Y0105870D01*
X0468033Y0104672D02*
X0477000Y0104672D01*
X0477000Y0103473D02*
X0468808Y0103473D01*
X0469150Y0102275D02*
X0477000Y0102275D01*
X0477000Y0101076D02*
X0469174Y0101076D01*
X0468877Y0099878D02*
X0477000Y0099878D01*
X0477000Y0098679D02*
X0468164Y0098679D01*
X0466648Y0097481D02*
X0477000Y0097481D01*
X0477000Y0089091D02*
X0468463Y0089091D01*
X0467323Y0087893D02*
X0477000Y0087893D01*
X0477000Y0086694D02*
X0376000Y0086694D01*
X0376000Y0085496D02*
X0455708Y0085496D01*
X0455881Y0085669D02*
X0454531Y0084319D01*
X0453800Y0082555D01*
X0453800Y0080645D01*
X0454531Y0078881D01*
X0455881Y0077531D01*
X0457645Y0076800D01*
X0465555Y0076800D01*
X0467319Y0077531D01*
X0468669Y0078881D01*
X0469400Y0080645D01*
X0469400Y0082555D01*
X0468669Y0084319D01*
X0467319Y0085669D01*
X0465555Y0086400D01*
X0457645Y0086400D01*
X0455881Y0085669D01*
X0454522Y0084297D02*
X0375520Y0084297D01*
X0374321Y0083099D02*
X0454025Y0083099D01*
X0453800Y0081900D02*
X0374694Y0081900D01*
X0375892Y0080702D02*
X0384479Y0080702D01*
X0383281Y0079503D02*
X0377091Y0079503D01*
X0376600Y0076600D02*
X0386600Y0076600D01*
X0389919Y0079503D02*
X0454273Y0079503D01*
X0453800Y0080702D02*
X0388721Y0080702D01*
X0391000Y0078305D02*
X0455107Y0078305D01*
X0456906Y0077106D02*
X0391000Y0077106D01*
X0391000Y0075908D02*
X0456457Y0075908D01*
X0454921Y0074709D02*
X0390932Y0074709D01*
X0389733Y0073511D02*
X0454196Y0073511D01*
X0453800Y0072312D02*
X0388535Y0072312D01*
X0376600Y0076600D02*
X0371600Y0081600D01*
X0371600Y0086600D01*
X0401443Y0116600D02*
X0421443Y0096600D01*
X0461200Y0090290D02*
X0462000Y0090290D01*
X0462000Y0089091D02*
X0461200Y0089091D01*
X0461200Y0087893D02*
X0462000Y0087893D01*
X0467492Y0085496D02*
X0477000Y0085496D01*
X0477000Y0084297D02*
X0468678Y0084297D01*
X0469175Y0083099D02*
X0477000Y0083099D01*
X0477000Y0081900D02*
X0469400Y0081900D01*
X0469400Y0080702D02*
X0477000Y0080702D01*
X0477000Y0079503D02*
X0468927Y0079503D01*
X0468093Y0078305D02*
X0477000Y0078305D01*
X0477000Y0077106D02*
X0466294Y0077106D01*
X0466743Y0075908D02*
X0477000Y0075908D01*
X0477000Y0074709D02*
X0468279Y0074709D01*
X0469004Y0073511D02*
X0477000Y0073511D01*
X0477000Y0072312D02*
X0469400Y0072312D01*
X0469400Y0071114D02*
X0477000Y0071114D01*
X0477000Y0069915D02*
X0469098Y0069915D01*
X0468505Y0068717D02*
X0477000Y0068717D01*
X0477000Y0067518D02*
X0467288Y0067518D01*
X0465749Y0066320D02*
X0477000Y0066320D01*
X0477000Y0065121D02*
X0467867Y0065121D01*
X0468833Y0063923D02*
X0477000Y0063923D01*
X0477000Y0062724D02*
X0469330Y0062724D01*
X0469400Y0061526D02*
X0477000Y0061526D01*
X0477000Y0060327D02*
X0469268Y0060327D01*
X0468772Y0059129D02*
X0477000Y0059129D01*
X0477000Y0027967D02*
X0470841Y0027967D01*
X0472058Y0026769D02*
X0477000Y0026769D01*
X0477000Y0025570D02*
X0473124Y0025570D01*
X0473816Y0024372D02*
X0477000Y0024372D01*
X0477000Y0023173D02*
X0474448Y0023173D01*
X0474770Y0021975D02*
X0477000Y0021975D01*
X0477000Y0020776D02*
X0475091Y0020776D01*
X0475150Y0019578D02*
X0477000Y0019578D01*
X0477000Y0018379D02*
X0475150Y0018379D01*
X0475025Y0017181D02*
X0477000Y0017181D01*
X0477000Y0015982D02*
X0474704Y0015982D01*
X0474367Y0014784D02*
X0477000Y0014784D01*
X0477000Y0013585D02*
X0473675Y0013585D01*
X0472983Y0012387D02*
X0477000Y0012387D01*
X0477000Y0011188D02*
X0471815Y0011188D01*
X0470420Y0009990D02*
X0477000Y0009990D01*
X0477000Y0008791D02*
X0468320Y0008791D01*
X0467773Y0108268D02*
X0477000Y0108268D01*
X0477000Y0109466D02*
X0468675Y0109466D01*
X0046600Y0091600D02*
X0036600Y0101600D01*
X0021600Y0101600D01*
X0028468Y0098679D02*
X0036126Y0098679D01*
X0037325Y0097481D02*
X0027199Y0097481D01*
X0025839Y0096282D02*
X0038523Y0096282D01*
X0039722Y0095084D02*
X0027904Y0095084D01*
X0037354Y0093885D02*
X0040921Y0093885D01*
X0042119Y0092687D02*
X0038907Y0092687D01*
X0040106Y0091488D02*
X0043318Y0091488D01*
X0044516Y0090290D02*
X0041304Y0090290D01*
X0036600Y0091600D02*
X0021600Y0091600D01*
M02*
