%
M48
M72
T01C0.03150
T02C0.03200
T03C0.04000
T04C0.04400
T05C0.04700
T06C0.12900
%
T01
X401757Y96600
X421443Y96600
T02
X371600Y86600
X386600Y76600
X381600Y66600
X381600Y56600
X371600Y46600
X349100Y41600
X341600Y46600
X316600Y56600
X301600Y56600
X286600Y56600
X286600Y46600
X256600Y46600
X256600Y56600
X256600Y66600
X286600Y66600
X301600Y66600
X286600Y76600
X256600Y76600
X221600Y101600
X206600Y101600
X301600Y106600
X371600Y106600
X386600Y116600
X421600Y66600
X423600Y36600
X409600Y36600
X381600Y36600
X341600Y36600
X341600Y21600
X316600Y16600
X301600Y16600
X281600Y26600
X261600Y26600
X216600Y11600
X216600Y51600
X71600Y51600
X71600Y41600
X41600Y41600
X41600Y51600
X41600Y61600
X41600Y71600
X71600Y71600
X71600Y61600
X71600Y81600
X71600Y91600
X41600Y91600
X41600Y81600
X41600Y101600
X71600Y101600
X206600Y141600
X221600Y141600
X381600Y21600
T03
X461600Y51600
X461600Y61600
X461600Y71600
X461600Y81600
X461600Y91600
X461600Y101600
X461600Y111600
X346600Y131600
X336600Y131600
X326600Y131600
X246600Y121600
X246600Y111600
X246600Y101600
X225500Y84400
X207700Y84400
X181600Y81600
X181600Y91600
X181600Y101600
X181600Y111600
X91600Y111600
X91600Y101600
X91600Y91600
X91600Y81600
X91600Y71600
X91600Y61600
X91600Y51600
X91600Y41600
X21600Y51600
X21600Y61600
X21600Y71600
X21600Y81600
X21600Y91600
X21600Y101600
X21600Y111600
X181600Y71600
X181600Y61600
X207700Y58800
X225500Y58800
X181600Y51600
X181600Y41600
X336600Y81600
X336600Y101600
T04
X436600Y106600
X436600Y66600
T05
X296600Y129100
X276600Y129100
T06
X19100Y19100
X19100Y139100
X464100Y139100
X464100Y19100
M30
