G75*
%MOIN*%
%OFA0B0*%
%FSLAX25Y25*%
%IPPOS*%
%LPD*%
%AMOC8*
5,1,8,0,0,1.08239X$1,22.5*
%
%ADD10C,0.00600*%
%ADD11R,0.10000X0.02500*%
%ADD12C,0.01200*%
%ADD13R,0.10000X0.02000*%
%ADD14R,0.03000X0.07500*%
%ADD15C,0.00500*%
%ADD16C,0.02000*%
%ADD17R,0.03000X0.42000*%
%ADD18R,0.02000X0.07500*%
%ADD19R,0.02000X0.03000*%
%ADD20R,0.02400X0.03400*%
%ADD21R,0.03400X0.02400*%
%ADD22C,0.00200*%
%ADD23C,0.00400*%
%ADD24C,0.00800*%
D10*
X0019100Y0046600D02*
X0016600Y0049100D01*
X0016600Y0054100D01*
X0019100Y0056600D01*
X0016600Y0059100D01*
X0016600Y0064100D01*
X0019100Y0066600D01*
X0024100Y0066600D01*
X0026600Y0064100D01*
X0026600Y0059100D01*
X0024100Y0056600D01*
X0026600Y0054100D01*
X0026600Y0049100D01*
X0024100Y0046600D01*
X0019100Y0046600D01*
X0019100Y0056600D02*
X0024100Y0056600D01*
X0024100Y0066600D02*
X0026600Y0069100D01*
X0026600Y0074100D01*
X0024100Y0076600D01*
X0026600Y0079100D01*
X0026600Y0084100D01*
X0024100Y0086600D01*
X0026600Y0089100D01*
X0026600Y0094100D01*
X0024100Y0096600D01*
X0019100Y0096600D01*
X0016600Y0094100D01*
X0016600Y0089100D01*
X0019100Y0086600D01*
X0024100Y0086600D01*
X0019100Y0086600D02*
X0016600Y0084100D01*
X0016600Y0079100D01*
X0019100Y0076600D01*
X0024100Y0076600D01*
X0019100Y0076600D02*
X0016600Y0074100D01*
X0016600Y0069100D01*
X0019100Y0066600D01*
X0019100Y0096600D02*
X0016600Y0099100D01*
X0016600Y0104100D01*
X0019100Y0106600D01*
X0016600Y0109100D01*
X0016600Y0114100D01*
X0019100Y0116600D01*
X0024100Y0116600D01*
X0026600Y0114100D01*
X0026600Y0109100D01*
X0024100Y0106600D01*
X0026600Y0104100D01*
X0026600Y0099100D01*
X0024100Y0096600D01*
X0024100Y0106600D02*
X0019100Y0106600D01*
X0167100Y0110100D02*
X0167100Y0111600D01*
X0167600Y0112100D01*
X0167600Y0131100D01*
X0167100Y0131600D01*
X0167100Y0133100D01*
X0167102Y0133160D01*
X0167107Y0133221D01*
X0167116Y0133280D01*
X0167129Y0133339D01*
X0167145Y0133398D01*
X0167165Y0133455D01*
X0167188Y0133510D01*
X0167215Y0133565D01*
X0167244Y0133617D01*
X0167277Y0133668D01*
X0167313Y0133717D01*
X0167351Y0133763D01*
X0167393Y0133807D01*
X0167437Y0133849D01*
X0167483Y0133887D01*
X0167532Y0133923D01*
X0167583Y0133956D01*
X0167635Y0133985D01*
X0167690Y0134012D01*
X0167745Y0134035D01*
X0167802Y0134055D01*
X0167861Y0134071D01*
X0167920Y0134084D01*
X0167979Y0134093D01*
X0168040Y0134098D01*
X0168100Y0134100D01*
X0175100Y0134100D01*
X0175160Y0134098D01*
X0175221Y0134093D01*
X0175280Y0134084D01*
X0175339Y0134071D01*
X0175398Y0134055D01*
X0175455Y0134035D01*
X0175510Y0134012D01*
X0175565Y0133985D01*
X0175617Y0133956D01*
X0175668Y0133923D01*
X0175717Y0133887D01*
X0175763Y0133849D01*
X0175807Y0133807D01*
X0175849Y0133763D01*
X0175887Y0133717D01*
X0175923Y0133668D01*
X0175956Y0133617D01*
X0175985Y0133565D01*
X0176012Y0133510D01*
X0176035Y0133455D01*
X0176055Y0133398D01*
X0176071Y0133339D01*
X0176084Y0133280D01*
X0176093Y0133221D01*
X0176098Y0133160D01*
X0176100Y0133100D01*
X0176100Y0131600D01*
X0175600Y0131100D01*
X0175600Y0112100D01*
X0176100Y0111600D01*
X0176100Y0110100D01*
X0176098Y0110040D01*
X0176093Y0109979D01*
X0176084Y0109920D01*
X0176071Y0109861D01*
X0176055Y0109802D01*
X0176035Y0109745D01*
X0176012Y0109690D01*
X0175985Y0109635D01*
X0175956Y0109583D01*
X0175923Y0109532D01*
X0175887Y0109483D01*
X0175849Y0109437D01*
X0175807Y0109393D01*
X0175763Y0109351D01*
X0175717Y0109313D01*
X0175668Y0109277D01*
X0175617Y0109244D01*
X0175565Y0109215D01*
X0175510Y0109188D01*
X0175455Y0109165D01*
X0175398Y0109145D01*
X0175339Y0109129D01*
X0175280Y0109116D01*
X0175221Y0109107D01*
X0175160Y0109102D01*
X0175100Y0109100D01*
X0168100Y0109100D01*
X0168040Y0109102D01*
X0167979Y0109107D01*
X0167920Y0109116D01*
X0167861Y0109129D01*
X0167802Y0109145D01*
X0167745Y0109165D01*
X0167690Y0109188D01*
X0167635Y0109215D01*
X0167583Y0109244D01*
X0167532Y0109277D01*
X0167483Y0109313D01*
X0167437Y0109351D01*
X0167393Y0109393D01*
X0167351Y0109437D01*
X0167313Y0109483D01*
X0167277Y0109532D01*
X0167244Y0109583D01*
X0167215Y0109635D01*
X0167188Y0109690D01*
X0167165Y0109745D01*
X0167145Y0109802D01*
X0167129Y0109861D01*
X0167116Y0109920D01*
X0167107Y0109979D01*
X0167102Y0110040D01*
X0167100Y0110100D01*
X0194600Y0111600D02*
X0194600Y0108100D01*
X0194600Y0111600D02*
X0194600Y0121600D01*
X0194600Y0125100D01*
X0202600Y0128600D02*
X0203600Y0128600D01*
X0203600Y0129600D01*
X0209600Y0129600D01*
X0209600Y0128600D01*
X0210600Y0128600D01*
X0218600Y0125100D02*
X0218600Y0121100D01*
X0218600Y0111600D01*
X0218600Y0108100D01*
X0210600Y0104600D02*
X0209600Y0104600D01*
X0209600Y0103600D01*
X0203600Y0103600D01*
X0203600Y0104600D01*
X0202600Y0104600D01*
X0205600Y0116600D02*
X0205602Y0116663D01*
X0205608Y0116725D01*
X0205618Y0116787D01*
X0205631Y0116849D01*
X0205649Y0116909D01*
X0205670Y0116968D01*
X0205695Y0117026D01*
X0205724Y0117082D01*
X0205756Y0117136D01*
X0205791Y0117188D01*
X0205829Y0117237D01*
X0205871Y0117285D01*
X0205915Y0117329D01*
X0205963Y0117371D01*
X0206012Y0117409D01*
X0206064Y0117444D01*
X0206118Y0117476D01*
X0206174Y0117505D01*
X0206232Y0117530D01*
X0206291Y0117551D01*
X0206351Y0117569D01*
X0206413Y0117582D01*
X0206475Y0117592D01*
X0206537Y0117598D01*
X0206600Y0117600D01*
X0206663Y0117598D01*
X0206725Y0117592D01*
X0206787Y0117582D01*
X0206849Y0117569D01*
X0206909Y0117551D01*
X0206968Y0117530D01*
X0207026Y0117505D01*
X0207082Y0117476D01*
X0207136Y0117444D01*
X0207188Y0117409D01*
X0207237Y0117371D01*
X0207285Y0117329D01*
X0207329Y0117285D01*
X0207371Y0117237D01*
X0207409Y0117188D01*
X0207444Y0117136D01*
X0207476Y0117082D01*
X0207505Y0117026D01*
X0207530Y0116968D01*
X0207551Y0116909D01*
X0207569Y0116849D01*
X0207582Y0116787D01*
X0207592Y0116725D01*
X0207598Y0116663D01*
X0207600Y0116600D01*
X0207598Y0116537D01*
X0207592Y0116475D01*
X0207582Y0116413D01*
X0207569Y0116351D01*
X0207551Y0116291D01*
X0207530Y0116232D01*
X0207505Y0116174D01*
X0207476Y0116118D01*
X0207444Y0116064D01*
X0207409Y0116012D01*
X0207371Y0115963D01*
X0207329Y0115915D01*
X0207285Y0115871D01*
X0207237Y0115829D01*
X0207188Y0115791D01*
X0207136Y0115756D01*
X0207082Y0115724D01*
X0207026Y0115695D01*
X0206968Y0115670D01*
X0206909Y0115649D01*
X0206849Y0115631D01*
X0206787Y0115618D01*
X0206725Y0115608D01*
X0206663Y0115602D01*
X0206600Y0115600D01*
X0206537Y0115602D01*
X0206475Y0115608D01*
X0206413Y0115618D01*
X0206351Y0115631D01*
X0206291Y0115649D01*
X0206232Y0115670D01*
X0206174Y0115695D01*
X0206118Y0115724D01*
X0206064Y0115756D01*
X0206012Y0115791D01*
X0205963Y0115829D01*
X0205915Y0115871D01*
X0205871Y0115915D01*
X0205829Y0115963D01*
X0205791Y0116012D01*
X0205756Y0116064D01*
X0205724Y0116118D01*
X0205695Y0116174D01*
X0205670Y0116232D01*
X0205649Y0116291D01*
X0205631Y0116351D01*
X0205618Y0116413D01*
X0205608Y0116475D01*
X0205602Y0116537D01*
X0205600Y0116600D01*
X0199600Y0116600D02*
X0199602Y0116772D01*
X0199608Y0116943D01*
X0199619Y0117115D01*
X0199634Y0117286D01*
X0199653Y0117457D01*
X0199676Y0117627D01*
X0199703Y0117797D01*
X0199735Y0117966D01*
X0199770Y0118134D01*
X0199810Y0118301D01*
X0199854Y0118467D01*
X0199901Y0118632D01*
X0199953Y0118796D01*
X0200009Y0118958D01*
X0200069Y0119119D01*
X0200133Y0119279D01*
X0200201Y0119437D01*
X0200272Y0119593D01*
X0200347Y0119747D01*
X0200427Y0119900D01*
X0200509Y0120050D01*
X0200596Y0120199D01*
X0200686Y0120345D01*
X0200780Y0120489D01*
X0200877Y0120631D01*
X0200978Y0120770D01*
X0201082Y0120907D01*
X0201189Y0121041D01*
X0201300Y0121172D01*
X0201413Y0121301D01*
X0201530Y0121427D01*
X0201650Y0121550D01*
X0201773Y0121670D01*
X0201899Y0121787D01*
X0202028Y0121900D01*
X0202159Y0122011D01*
X0202293Y0122118D01*
X0202430Y0122222D01*
X0202569Y0122323D01*
X0202711Y0122420D01*
X0202855Y0122514D01*
X0203001Y0122604D01*
X0203150Y0122691D01*
X0203300Y0122773D01*
X0203453Y0122853D01*
X0203607Y0122928D01*
X0203763Y0122999D01*
X0203921Y0123067D01*
X0204081Y0123131D01*
X0204242Y0123191D01*
X0204404Y0123247D01*
X0204568Y0123299D01*
X0204733Y0123346D01*
X0204899Y0123390D01*
X0205066Y0123430D01*
X0205234Y0123465D01*
X0205403Y0123497D01*
X0205573Y0123524D01*
X0205743Y0123547D01*
X0205914Y0123566D01*
X0206085Y0123581D01*
X0206257Y0123592D01*
X0206428Y0123598D01*
X0206600Y0123600D01*
X0206772Y0123598D01*
X0206943Y0123592D01*
X0207115Y0123581D01*
X0207286Y0123566D01*
X0207457Y0123547D01*
X0207627Y0123524D01*
X0207797Y0123497D01*
X0207966Y0123465D01*
X0208134Y0123430D01*
X0208301Y0123390D01*
X0208467Y0123346D01*
X0208632Y0123299D01*
X0208796Y0123247D01*
X0208958Y0123191D01*
X0209119Y0123131D01*
X0209279Y0123067D01*
X0209437Y0122999D01*
X0209593Y0122928D01*
X0209747Y0122853D01*
X0209900Y0122773D01*
X0210050Y0122691D01*
X0210199Y0122604D01*
X0210345Y0122514D01*
X0210489Y0122420D01*
X0210631Y0122323D01*
X0210770Y0122222D01*
X0210907Y0122118D01*
X0211041Y0122011D01*
X0211172Y0121900D01*
X0211301Y0121787D01*
X0211427Y0121670D01*
X0211550Y0121550D01*
X0211670Y0121427D01*
X0211787Y0121301D01*
X0211900Y0121172D01*
X0212011Y0121041D01*
X0212118Y0120907D01*
X0212222Y0120770D01*
X0212323Y0120631D01*
X0212420Y0120489D01*
X0212514Y0120345D01*
X0212604Y0120199D01*
X0212691Y0120050D01*
X0212773Y0119900D01*
X0212853Y0119747D01*
X0212928Y0119593D01*
X0212999Y0119437D01*
X0213067Y0119279D01*
X0213131Y0119119D01*
X0213191Y0118958D01*
X0213247Y0118796D01*
X0213299Y0118632D01*
X0213346Y0118467D01*
X0213390Y0118301D01*
X0213430Y0118134D01*
X0213465Y0117966D01*
X0213497Y0117797D01*
X0213524Y0117627D01*
X0213547Y0117457D01*
X0213566Y0117286D01*
X0213581Y0117115D01*
X0213592Y0116943D01*
X0213598Y0116772D01*
X0213600Y0116600D01*
X0213598Y0116428D01*
X0213592Y0116257D01*
X0213581Y0116085D01*
X0213566Y0115914D01*
X0213547Y0115743D01*
X0213524Y0115573D01*
X0213497Y0115403D01*
X0213465Y0115234D01*
X0213430Y0115066D01*
X0213390Y0114899D01*
X0213346Y0114733D01*
X0213299Y0114568D01*
X0213247Y0114404D01*
X0213191Y0114242D01*
X0213131Y0114081D01*
X0213067Y0113921D01*
X0212999Y0113763D01*
X0212928Y0113607D01*
X0212853Y0113453D01*
X0212773Y0113300D01*
X0212691Y0113150D01*
X0212604Y0113001D01*
X0212514Y0112855D01*
X0212420Y0112711D01*
X0212323Y0112569D01*
X0212222Y0112430D01*
X0212118Y0112293D01*
X0212011Y0112159D01*
X0211900Y0112028D01*
X0211787Y0111899D01*
X0211670Y0111773D01*
X0211550Y0111650D01*
X0211427Y0111530D01*
X0211301Y0111413D01*
X0211172Y0111300D01*
X0211041Y0111189D01*
X0210907Y0111082D01*
X0210770Y0110978D01*
X0210631Y0110877D01*
X0210489Y0110780D01*
X0210345Y0110686D01*
X0210199Y0110596D01*
X0210050Y0110509D01*
X0209900Y0110427D01*
X0209747Y0110347D01*
X0209593Y0110272D01*
X0209437Y0110201D01*
X0209279Y0110133D01*
X0209119Y0110069D01*
X0208958Y0110009D01*
X0208796Y0109953D01*
X0208632Y0109901D01*
X0208467Y0109854D01*
X0208301Y0109810D01*
X0208134Y0109770D01*
X0207966Y0109735D01*
X0207797Y0109703D01*
X0207627Y0109676D01*
X0207457Y0109653D01*
X0207286Y0109634D01*
X0207115Y0109619D01*
X0206943Y0109608D01*
X0206772Y0109602D01*
X0206600Y0109600D01*
X0206428Y0109602D01*
X0206257Y0109608D01*
X0206085Y0109619D01*
X0205914Y0109634D01*
X0205743Y0109653D01*
X0205573Y0109676D01*
X0205403Y0109703D01*
X0205234Y0109735D01*
X0205066Y0109770D01*
X0204899Y0109810D01*
X0204733Y0109854D01*
X0204568Y0109901D01*
X0204404Y0109953D01*
X0204242Y0110009D01*
X0204081Y0110069D01*
X0203921Y0110133D01*
X0203763Y0110201D01*
X0203607Y0110272D01*
X0203453Y0110347D01*
X0203300Y0110427D01*
X0203150Y0110509D01*
X0203001Y0110596D01*
X0202855Y0110686D01*
X0202711Y0110780D01*
X0202569Y0110877D01*
X0202430Y0110978D01*
X0202293Y0111082D01*
X0202159Y0111189D01*
X0202028Y0111300D01*
X0201899Y0111413D01*
X0201773Y0111530D01*
X0201650Y0111650D01*
X0201530Y0111773D01*
X0201413Y0111899D01*
X0201300Y0112028D01*
X0201189Y0112159D01*
X0201082Y0112293D01*
X0200978Y0112430D01*
X0200877Y0112569D01*
X0200780Y0112711D01*
X0200686Y0112855D01*
X0200596Y0113001D01*
X0200509Y0113150D01*
X0200427Y0113300D01*
X0200347Y0113453D01*
X0200272Y0113607D01*
X0200201Y0113763D01*
X0200133Y0113921D01*
X0200069Y0114081D01*
X0200009Y0114242D01*
X0199953Y0114404D01*
X0199901Y0114568D01*
X0199854Y0114733D01*
X0199810Y0114899D01*
X0199770Y0115066D01*
X0199735Y0115234D01*
X0199703Y0115403D01*
X0199676Y0115573D01*
X0199653Y0115743D01*
X0199634Y0115914D01*
X0199619Y0116085D01*
X0199608Y0116257D01*
X0199602Y0116428D01*
X0199600Y0116600D01*
X0251100Y0131600D02*
X0262600Y0131100D01*
X0263600Y0130100D01*
X0263600Y0093100D01*
X0262600Y0092100D01*
X0251100Y0091600D01*
X0260100Y0081600D02*
X0267600Y0081600D01*
X0267602Y0081474D01*
X0267608Y0081349D01*
X0267618Y0081224D01*
X0267632Y0081099D01*
X0267649Y0080974D01*
X0267671Y0080850D01*
X0267696Y0080727D01*
X0267726Y0080605D01*
X0267759Y0080484D01*
X0267796Y0080364D01*
X0267836Y0080245D01*
X0267881Y0080128D01*
X0267929Y0080011D01*
X0267981Y0079897D01*
X0268036Y0079784D01*
X0268095Y0079673D01*
X0268157Y0079564D01*
X0268223Y0079457D01*
X0268292Y0079352D01*
X0268364Y0079249D01*
X0268439Y0079148D01*
X0268518Y0079050D01*
X0268600Y0078955D01*
X0268684Y0078862D01*
X0268772Y0078772D01*
X0268862Y0078684D01*
X0268955Y0078600D01*
X0269050Y0078518D01*
X0269148Y0078439D01*
X0269249Y0078364D01*
X0269352Y0078292D01*
X0269457Y0078223D01*
X0269564Y0078157D01*
X0269673Y0078095D01*
X0269784Y0078036D01*
X0269897Y0077981D01*
X0270011Y0077929D01*
X0270128Y0077881D01*
X0270245Y0077836D01*
X0270364Y0077796D01*
X0270484Y0077759D01*
X0270605Y0077726D01*
X0270727Y0077696D01*
X0270850Y0077671D01*
X0270974Y0077649D01*
X0271099Y0077632D01*
X0271224Y0077618D01*
X0271349Y0077608D01*
X0271474Y0077602D01*
X0271600Y0077600D01*
X0271726Y0077602D01*
X0271851Y0077608D01*
X0271976Y0077618D01*
X0272101Y0077632D01*
X0272226Y0077649D01*
X0272350Y0077671D01*
X0272473Y0077696D01*
X0272595Y0077726D01*
X0272716Y0077759D01*
X0272836Y0077796D01*
X0272955Y0077836D01*
X0273072Y0077881D01*
X0273189Y0077929D01*
X0273303Y0077981D01*
X0273416Y0078036D01*
X0273527Y0078095D01*
X0273636Y0078157D01*
X0273743Y0078223D01*
X0273848Y0078292D01*
X0273951Y0078364D01*
X0274052Y0078439D01*
X0274150Y0078518D01*
X0274245Y0078600D01*
X0274338Y0078684D01*
X0274428Y0078772D01*
X0274516Y0078862D01*
X0274600Y0078955D01*
X0274682Y0079050D01*
X0274761Y0079148D01*
X0274836Y0079249D01*
X0274908Y0079352D01*
X0274977Y0079457D01*
X0275043Y0079564D01*
X0275105Y0079673D01*
X0275164Y0079784D01*
X0275219Y0079897D01*
X0275271Y0080011D01*
X0275319Y0080128D01*
X0275364Y0080245D01*
X0275404Y0080364D01*
X0275441Y0080484D01*
X0275474Y0080605D01*
X0275504Y0080727D01*
X0275529Y0080850D01*
X0275551Y0080974D01*
X0275568Y0081099D01*
X0275582Y0081224D01*
X0275592Y0081349D01*
X0275598Y0081474D01*
X0275600Y0081600D01*
X0283100Y0081600D01*
X0283100Y0041600D01*
X0260100Y0041600D01*
X0260100Y0081600D01*
X0297100Y0076600D02*
X0297100Y0075100D01*
X0297102Y0075040D01*
X0297107Y0074979D01*
X0297116Y0074920D01*
X0297129Y0074861D01*
X0297145Y0074802D01*
X0297165Y0074745D01*
X0297188Y0074690D01*
X0297215Y0074635D01*
X0297244Y0074583D01*
X0297277Y0074532D01*
X0297313Y0074483D01*
X0297351Y0074437D01*
X0297393Y0074393D01*
X0297437Y0074351D01*
X0297483Y0074313D01*
X0297532Y0074277D01*
X0297583Y0074244D01*
X0297635Y0074215D01*
X0297690Y0074188D01*
X0297745Y0074165D01*
X0297802Y0074145D01*
X0297861Y0074129D01*
X0297920Y0074116D01*
X0297979Y0074107D01*
X0298040Y0074102D01*
X0298100Y0074100D01*
X0305100Y0074100D01*
X0305160Y0074102D01*
X0305221Y0074107D01*
X0305280Y0074116D01*
X0305339Y0074129D01*
X0305398Y0074145D01*
X0305455Y0074165D01*
X0305510Y0074188D01*
X0305565Y0074215D01*
X0305617Y0074244D01*
X0305668Y0074277D01*
X0305717Y0074313D01*
X0305763Y0074351D01*
X0305807Y0074393D01*
X0305849Y0074437D01*
X0305887Y0074483D01*
X0305923Y0074532D01*
X0305956Y0074583D01*
X0305985Y0074635D01*
X0306012Y0074690D01*
X0306035Y0074745D01*
X0306055Y0074802D01*
X0306071Y0074861D01*
X0306084Y0074920D01*
X0306093Y0074979D01*
X0306098Y0075040D01*
X0306100Y0075100D01*
X0306100Y0076600D01*
X0305600Y0077100D01*
X0305600Y0096100D01*
X0306100Y0096600D01*
X0306100Y0098100D01*
X0306098Y0098160D01*
X0306093Y0098221D01*
X0306084Y0098280D01*
X0306071Y0098339D01*
X0306055Y0098398D01*
X0306035Y0098455D01*
X0306012Y0098510D01*
X0305985Y0098565D01*
X0305956Y0098617D01*
X0305923Y0098668D01*
X0305887Y0098717D01*
X0305849Y0098763D01*
X0305807Y0098807D01*
X0305763Y0098849D01*
X0305717Y0098887D01*
X0305668Y0098923D01*
X0305617Y0098956D01*
X0305565Y0098985D01*
X0305510Y0099012D01*
X0305455Y0099035D01*
X0305398Y0099055D01*
X0305339Y0099071D01*
X0305280Y0099084D01*
X0305221Y0099093D01*
X0305160Y0099098D01*
X0305100Y0099100D01*
X0298100Y0099100D01*
X0298040Y0099098D01*
X0297979Y0099093D01*
X0297920Y0099084D01*
X0297861Y0099071D01*
X0297802Y0099055D01*
X0297745Y0099035D01*
X0297690Y0099012D01*
X0297635Y0098985D01*
X0297583Y0098956D01*
X0297532Y0098923D01*
X0297483Y0098887D01*
X0297437Y0098849D01*
X0297393Y0098807D01*
X0297351Y0098763D01*
X0297313Y0098717D01*
X0297277Y0098668D01*
X0297244Y0098617D01*
X0297215Y0098565D01*
X0297188Y0098510D01*
X0297165Y0098455D01*
X0297145Y0098398D01*
X0297129Y0098339D01*
X0297116Y0098280D01*
X0297107Y0098221D01*
X0297102Y0098160D01*
X0297100Y0098100D01*
X0297100Y0096600D01*
X0297600Y0096100D01*
X0297600Y0077100D01*
X0297100Y0076600D01*
X0331600Y0088100D02*
X0336600Y0088100D01*
X0341600Y0088100D01*
X0341600Y0090600D01*
X0331600Y0090600D01*
X0331600Y0088100D01*
X0336600Y0088100D02*
X0336600Y0087100D01*
X0309100Y0091600D02*
X0309108Y0092275D01*
X0309133Y0092949D01*
X0309175Y0093623D01*
X0309232Y0094295D01*
X0309307Y0094966D01*
X0309398Y0095635D01*
X0309505Y0096301D01*
X0309628Y0096965D01*
X0309768Y0097625D01*
X0309924Y0098282D01*
X0310096Y0098935D01*
X0310284Y0099583D01*
X0310488Y0100226D01*
X0310708Y0100864D01*
X0310943Y0101497D01*
X0311193Y0102124D01*
X0311459Y0102744D01*
X0311740Y0103358D01*
X0312036Y0103964D01*
X0312347Y0104563D01*
X0312673Y0105155D01*
X0313012Y0105738D01*
X0313367Y0106312D01*
X0313735Y0106878D01*
X0314116Y0107435D01*
X0314512Y0107982D01*
X0314920Y0108519D01*
X0315342Y0109046D01*
X0315777Y0109562D01*
X0316224Y0110068D01*
X0316683Y0110562D01*
X0317155Y0111045D01*
X0317638Y0111517D01*
X0318132Y0111976D01*
X0318638Y0112423D01*
X0319154Y0112858D01*
X0319681Y0113280D01*
X0320218Y0113688D01*
X0320765Y0114084D01*
X0321322Y0114465D01*
X0321888Y0114833D01*
X0322462Y0115188D01*
X0323045Y0115527D01*
X0323637Y0115853D01*
X0324236Y0116164D01*
X0324842Y0116460D01*
X0325456Y0116741D01*
X0326076Y0117007D01*
X0326703Y0117257D01*
X0327336Y0117492D01*
X0327974Y0117712D01*
X0328617Y0117916D01*
X0329265Y0118104D01*
X0329918Y0118276D01*
X0330575Y0118432D01*
X0331235Y0118572D01*
X0331899Y0118695D01*
X0332565Y0118802D01*
X0333234Y0118893D01*
X0333905Y0118968D01*
X0334577Y0119025D01*
X0335251Y0119067D01*
X0335925Y0119092D01*
X0336600Y0119100D01*
X0337275Y0119092D01*
X0337949Y0119067D01*
X0338623Y0119025D01*
X0339295Y0118968D01*
X0339966Y0118893D01*
X0340635Y0118802D01*
X0341301Y0118695D01*
X0341965Y0118572D01*
X0342625Y0118432D01*
X0343282Y0118276D01*
X0343935Y0118104D01*
X0344583Y0117916D01*
X0345226Y0117712D01*
X0345864Y0117492D01*
X0346497Y0117257D01*
X0347124Y0117007D01*
X0347744Y0116741D01*
X0348358Y0116460D01*
X0348964Y0116164D01*
X0349563Y0115853D01*
X0350155Y0115527D01*
X0350738Y0115188D01*
X0351312Y0114833D01*
X0351878Y0114465D01*
X0352435Y0114084D01*
X0352982Y0113688D01*
X0353519Y0113280D01*
X0354046Y0112858D01*
X0354562Y0112423D01*
X0355068Y0111976D01*
X0355562Y0111517D01*
X0356045Y0111045D01*
X0356517Y0110562D01*
X0356976Y0110068D01*
X0357423Y0109562D01*
X0357858Y0109046D01*
X0358280Y0108519D01*
X0358688Y0107982D01*
X0359084Y0107435D01*
X0359465Y0106878D01*
X0359833Y0106312D01*
X0360188Y0105738D01*
X0360527Y0105155D01*
X0360853Y0104563D01*
X0361164Y0103964D01*
X0361460Y0103358D01*
X0361741Y0102744D01*
X0362007Y0102124D01*
X0362257Y0101497D01*
X0362492Y0100864D01*
X0362712Y0100226D01*
X0362916Y0099583D01*
X0363104Y0098935D01*
X0363276Y0098282D01*
X0363432Y0097625D01*
X0363572Y0096965D01*
X0363695Y0096301D01*
X0363802Y0095635D01*
X0363893Y0094966D01*
X0363968Y0094295D01*
X0364025Y0093623D01*
X0364067Y0092949D01*
X0364092Y0092275D01*
X0364100Y0091600D01*
X0364092Y0090925D01*
X0364067Y0090251D01*
X0364025Y0089577D01*
X0363968Y0088905D01*
X0363893Y0088234D01*
X0363802Y0087565D01*
X0363695Y0086899D01*
X0363572Y0086235D01*
X0363432Y0085575D01*
X0363276Y0084918D01*
X0363104Y0084265D01*
X0362916Y0083617D01*
X0362712Y0082974D01*
X0362492Y0082336D01*
X0362257Y0081703D01*
X0362007Y0081076D01*
X0361741Y0080456D01*
X0361460Y0079842D01*
X0361164Y0079236D01*
X0360853Y0078637D01*
X0360527Y0078045D01*
X0360188Y0077462D01*
X0359833Y0076888D01*
X0359465Y0076322D01*
X0359084Y0075765D01*
X0358688Y0075218D01*
X0358280Y0074681D01*
X0357858Y0074154D01*
X0357423Y0073638D01*
X0356976Y0073132D01*
X0356517Y0072638D01*
X0356045Y0072155D01*
X0355562Y0071683D01*
X0355068Y0071224D01*
X0354562Y0070777D01*
X0354046Y0070342D01*
X0353519Y0069920D01*
X0352982Y0069512D01*
X0352435Y0069116D01*
X0351878Y0068735D01*
X0351312Y0068367D01*
X0350738Y0068012D01*
X0350155Y0067673D01*
X0349563Y0067347D01*
X0348964Y0067036D01*
X0348358Y0066740D01*
X0347744Y0066459D01*
X0347124Y0066193D01*
X0346497Y0065943D01*
X0345864Y0065708D01*
X0345226Y0065488D01*
X0344583Y0065284D01*
X0343935Y0065096D01*
X0343282Y0064924D01*
X0342625Y0064768D01*
X0341965Y0064628D01*
X0341301Y0064505D01*
X0340635Y0064398D01*
X0339966Y0064307D01*
X0339295Y0064232D01*
X0338623Y0064175D01*
X0337949Y0064133D01*
X0337275Y0064108D01*
X0336600Y0064100D01*
X0335925Y0064108D01*
X0335251Y0064133D01*
X0334577Y0064175D01*
X0333905Y0064232D01*
X0333234Y0064307D01*
X0332565Y0064398D01*
X0331899Y0064505D01*
X0331235Y0064628D01*
X0330575Y0064768D01*
X0329918Y0064924D01*
X0329265Y0065096D01*
X0328617Y0065284D01*
X0327974Y0065488D01*
X0327336Y0065708D01*
X0326703Y0065943D01*
X0326076Y0066193D01*
X0325456Y0066459D01*
X0324842Y0066740D01*
X0324236Y0067036D01*
X0323637Y0067347D01*
X0323045Y0067673D01*
X0322462Y0068012D01*
X0321888Y0068367D01*
X0321322Y0068735D01*
X0320765Y0069116D01*
X0320218Y0069512D01*
X0319681Y0069920D01*
X0319154Y0070342D01*
X0318638Y0070777D01*
X0318132Y0071224D01*
X0317638Y0071683D01*
X0317155Y0072155D01*
X0316683Y0072638D01*
X0316224Y0073132D01*
X0315777Y0073638D01*
X0315342Y0074154D01*
X0314920Y0074681D01*
X0314512Y0075218D01*
X0314116Y0075765D01*
X0313735Y0076322D01*
X0313367Y0076888D01*
X0313012Y0077462D01*
X0312673Y0078045D01*
X0312347Y0078637D01*
X0312036Y0079236D01*
X0311740Y0079842D01*
X0311459Y0080456D01*
X0311193Y0081076D01*
X0310943Y0081703D01*
X0310708Y0082336D01*
X0310488Y0082974D01*
X0310284Y0083617D01*
X0310096Y0084265D01*
X0309924Y0084918D01*
X0309768Y0085575D01*
X0309628Y0086235D01*
X0309505Y0086899D01*
X0309398Y0087565D01*
X0309307Y0088234D01*
X0309232Y0088905D01*
X0309175Y0089577D01*
X0309133Y0090251D01*
X0309108Y0090925D01*
X0309100Y0091600D01*
X0336600Y0094100D02*
X0336600Y0096100D01*
X0371600Y0095400D02*
X0371600Y0090600D01*
X0382100Y0086600D02*
X0382600Y0087100D01*
X0382600Y0106100D01*
X0382100Y0106600D01*
X0382100Y0108100D01*
X0382102Y0108160D01*
X0382107Y0108221D01*
X0382116Y0108280D01*
X0382129Y0108339D01*
X0382145Y0108398D01*
X0382165Y0108455D01*
X0382188Y0108510D01*
X0382215Y0108565D01*
X0382244Y0108617D01*
X0382277Y0108668D01*
X0382313Y0108717D01*
X0382351Y0108763D01*
X0382393Y0108807D01*
X0382437Y0108849D01*
X0382483Y0108887D01*
X0382532Y0108923D01*
X0382583Y0108956D01*
X0382635Y0108985D01*
X0382690Y0109012D01*
X0382745Y0109035D01*
X0382802Y0109055D01*
X0382861Y0109071D01*
X0382920Y0109084D01*
X0382979Y0109093D01*
X0383040Y0109098D01*
X0383100Y0109100D01*
X0390100Y0109100D01*
X0390160Y0109098D01*
X0390221Y0109093D01*
X0390280Y0109084D01*
X0390339Y0109071D01*
X0390398Y0109055D01*
X0390455Y0109035D01*
X0390510Y0109012D01*
X0390565Y0108985D01*
X0390617Y0108956D01*
X0390668Y0108923D01*
X0390717Y0108887D01*
X0390763Y0108849D01*
X0390807Y0108807D01*
X0390849Y0108763D01*
X0390887Y0108717D01*
X0390923Y0108668D01*
X0390956Y0108617D01*
X0390985Y0108565D01*
X0391012Y0108510D01*
X0391035Y0108455D01*
X0391055Y0108398D01*
X0391071Y0108339D01*
X0391084Y0108280D01*
X0391093Y0108221D01*
X0391098Y0108160D01*
X0391100Y0108100D01*
X0391100Y0106600D01*
X0390600Y0106100D01*
X0390600Y0087100D01*
X0391100Y0086600D01*
X0391100Y0085100D01*
X0391098Y0085040D01*
X0391093Y0084979D01*
X0391084Y0084920D01*
X0391071Y0084861D01*
X0391055Y0084802D01*
X0391035Y0084745D01*
X0391012Y0084690D01*
X0390985Y0084635D01*
X0390956Y0084583D01*
X0390923Y0084532D01*
X0390887Y0084483D01*
X0390849Y0084437D01*
X0390807Y0084393D01*
X0390763Y0084351D01*
X0390717Y0084313D01*
X0390668Y0084277D01*
X0390617Y0084244D01*
X0390565Y0084215D01*
X0390510Y0084188D01*
X0390455Y0084165D01*
X0390398Y0084145D01*
X0390339Y0084129D01*
X0390280Y0084116D01*
X0390221Y0084107D01*
X0390160Y0084102D01*
X0390100Y0084100D01*
X0383100Y0084100D01*
X0383040Y0084102D01*
X0382979Y0084107D01*
X0382920Y0084116D01*
X0382861Y0084129D01*
X0382802Y0084145D01*
X0382745Y0084165D01*
X0382690Y0084188D01*
X0382635Y0084215D01*
X0382583Y0084244D01*
X0382532Y0084277D01*
X0382483Y0084313D01*
X0382437Y0084351D01*
X0382393Y0084393D01*
X0382351Y0084437D01*
X0382313Y0084483D01*
X0382277Y0084532D01*
X0382244Y0084583D01*
X0382215Y0084635D01*
X0382188Y0084690D01*
X0382165Y0084745D01*
X0382145Y0084802D01*
X0382129Y0084861D01*
X0382116Y0084920D01*
X0382107Y0084979D01*
X0382102Y0085040D01*
X0382100Y0085100D01*
X0382100Y0086600D01*
X0376600Y0083100D02*
X0376600Y0110100D01*
X0376598Y0110160D01*
X0376593Y0110221D01*
X0376584Y0110280D01*
X0376571Y0110339D01*
X0376555Y0110398D01*
X0376535Y0110455D01*
X0376512Y0110510D01*
X0376485Y0110565D01*
X0376456Y0110617D01*
X0376423Y0110668D01*
X0376387Y0110717D01*
X0376349Y0110763D01*
X0376307Y0110807D01*
X0376263Y0110849D01*
X0376217Y0110887D01*
X0376168Y0110923D01*
X0376117Y0110956D01*
X0376065Y0110985D01*
X0376010Y0111012D01*
X0375955Y0111035D01*
X0375898Y0111055D01*
X0375839Y0111071D01*
X0375780Y0111084D01*
X0375721Y0111093D01*
X0375660Y0111098D01*
X0375600Y0111100D01*
X0367600Y0111100D01*
X0367540Y0111098D01*
X0367479Y0111093D01*
X0367420Y0111084D01*
X0367361Y0111071D01*
X0367302Y0111055D01*
X0367245Y0111035D01*
X0367190Y0111012D01*
X0367135Y0110985D01*
X0367083Y0110956D01*
X0367032Y0110923D01*
X0366983Y0110887D01*
X0366937Y0110849D01*
X0366893Y0110807D01*
X0366851Y0110763D01*
X0366813Y0110717D01*
X0366777Y0110668D01*
X0366744Y0110617D01*
X0366715Y0110565D01*
X0366688Y0110510D01*
X0366665Y0110455D01*
X0366645Y0110398D01*
X0366629Y0110339D01*
X0366616Y0110280D01*
X0366607Y0110221D01*
X0366602Y0110160D01*
X0366600Y0110100D01*
X0366600Y0083100D01*
X0366602Y0083040D01*
X0366607Y0082979D01*
X0366616Y0082920D01*
X0366629Y0082861D01*
X0366645Y0082802D01*
X0366665Y0082745D01*
X0366688Y0082690D01*
X0366715Y0082635D01*
X0366744Y0082583D01*
X0366777Y0082532D01*
X0366813Y0082483D01*
X0366851Y0082437D01*
X0366893Y0082393D01*
X0366937Y0082351D01*
X0366983Y0082313D01*
X0367032Y0082277D01*
X0367083Y0082244D01*
X0367135Y0082215D01*
X0367190Y0082188D01*
X0367245Y0082165D01*
X0367302Y0082145D01*
X0367361Y0082129D01*
X0367420Y0082116D01*
X0367479Y0082107D01*
X0367540Y0082102D01*
X0367600Y0082100D01*
X0375600Y0082100D01*
X0375660Y0082102D01*
X0375721Y0082107D01*
X0375780Y0082116D01*
X0375839Y0082129D01*
X0375898Y0082145D01*
X0375955Y0082165D01*
X0376010Y0082188D01*
X0376065Y0082215D01*
X0376117Y0082244D01*
X0376168Y0082277D01*
X0376217Y0082313D01*
X0376263Y0082351D01*
X0376307Y0082393D01*
X0376349Y0082437D01*
X0376387Y0082483D01*
X0376423Y0082532D01*
X0376456Y0082583D01*
X0376485Y0082635D01*
X0376512Y0082690D01*
X0376535Y0082745D01*
X0376555Y0082802D01*
X0376571Y0082861D01*
X0376584Y0082920D01*
X0376593Y0082979D01*
X0376598Y0083040D01*
X0376600Y0083100D01*
X0390100Y0071100D02*
X0391600Y0071100D01*
X0392100Y0070600D01*
X0411100Y0070600D01*
X0411600Y0071100D01*
X0413100Y0071100D01*
X0413160Y0071098D01*
X0413221Y0071093D01*
X0413280Y0071084D01*
X0413339Y0071071D01*
X0413398Y0071055D01*
X0413455Y0071035D01*
X0413510Y0071012D01*
X0413565Y0070985D01*
X0413617Y0070956D01*
X0413668Y0070923D01*
X0413717Y0070887D01*
X0413763Y0070849D01*
X0413807Y0070807D01*
X0413849Y0070763D01*
X0413887Y0070717D01*
X0413923Y0070668D01*
X0413956Y0070617D01*
X0413985Y0070565D01*
X0414012Y0070510D01*
X0414035Y0070455D01*
X0414055Y0070398D01*
X0414071Y0070339D01*
X0414084Y0070280D01*
X0414093Y0070221D01*
X0414098Y0070160D01*
X0414100Y0070100D01*
X0414100Y0063100D01*
X0414098Y0063040D01*
X0414093Y0062979D01*
X0414084Y0062920D01*
X0414071Y0062861D01*
X0414055Y0062802D01*
X0414035Y0062745D01*
X0414012Y0062690D01*
X0413985Y0062635D01*
X0413956Y0062583D01*
X0413923Y0062532D01*
X0413887Y0062483D01*
X0413849Y0062437D01*
X0413807Y0062393D01*
X0413763Y0062351D01*
X0413717Y0062313D01*
X0413668Y0062277D01*
X0413617Y0062244D01*
X0413565Y0062215D01*
X0413510Y0062188D01*
X0413455Y0062165D01*
X0413398Y0062145D01*
X0413339Y0062129D01*
X0413280Y0062116D01*
X0413221Y0062107D01*
X0413160Y0062102D01*
X0413100Y0062100D01*
X0411600Y0062100D01*
X0411100Y0062600D01*
X0392100Y0062600D01*
X0391600Y0062100D01*
X0390100Y0062100D01*
X0390040Y0062102D01*
X0389979Y0062107D01*
X0389920Y0062116D01*
X0389861Y0062129D01*
X0389802Y0062145D01*
X0389745Y0062165D01*
X0389690Y0062188D01*
X0389635Y0062215D01*
X0389583Y0062244D01*
X0389532Y0062277D01*
X0389483Y0062313D01*
X0389437Y0062351D01*
X0389393Y0062393D01*
X0389351Y0062437D01*
X0389313Y0062483D01*
X0389277Y0062532D01*
X0389244Y0062583D01*
X0389215Y0062635D01*
X0389188Y0062690D01*
X0389165Y0062745D01*
X0389145Y0062802D01*
X0389129Y0062861D01*
X0389116Y0062920D01*
X0389107Y0062979D01*
X0389102Y0063040D01*
X0389100Y0063100D01*
X0389100Y0070100D01*
X0389102Y0070160D01*
X0389107Y0070221D01*
X0389116Y0070280D01*
X0389129Y0070339D01*
X0389145Y0070398D01*
X0389165Y0070455D01*
X0389188Y0070510D01*
X0389215Y0070565D01*
X0389244Y0070617D01*
X0389277Y0070668D01*
X0389313Y0070717D01*
X0389351Y0070763D01*
X0389393Y0070807D01*
X0389437Y0070849D01*
X0389483Y0070887D01*
X0389532Y0070923D01*
X0389583Y0070956D01*
X0389635Y0070985D01*
X0389690Y0071012D01*
X0389745Y0071035D01*
X0389802Y0071055D01*
X0389861Y0071071D01*
X0389920Y0071084D01*
X0389979Y0071093D01*
X0390040Y0071098D01*
X0390100Y0071100D01*
X0387600Y0060100D02*
X0394100Y0060100D01*
X0395100Y0059100D01*
X0395100Y0056600D01*
X0395100Y0049100D01*
X0393600Y0050600D02*
X0393600Y0056600D01*
X0395100Y0056600D01*
X0382600Y0060100D02*
X0369100Y0060100D01*
X0368100Y0059100D01*
X0368100Y0034100D01*
X0369100Y0033100D01*
X0382600Y0033100D01*
X0387600Y0033100D02*
X0394100Y0033100D01*
X0395100Y0034100D01*
X0395100Y0036600D01*
X0395100Y0044100D01*
X0393600Y0042600D02*
X0393600Y0036600D01*
X0395100Y0036600D01*
X0381600Y0040600D02*
X0381600Y0043600D01*
X0383100Y0045100D01*
X0384600Y0045100D01*
X0387600Y0045100D01*
X0387600Y0048100D01*
X0384600Y0048100D01*
X0383100Y0048100D01*
X0381600Y0049600D01*
X0381600Y0052600D01*
X0378600Y0052600D01*
X0378600Y0049600D01*
X0377100Y0048100D01*
X0375600Y0048100D01*
X0372600Y0048100D01*
X0372600Y0045100D01*
X0375600Y0045100D01*
X0377100Y0045100D01*
X0378600Y0043600D01*
X0378600Y0040600D01*
X0381600Y0040600D01*
X0384600Y0045100D02*
X0384600Y0048100D01*
X0375600Y0048100D02*
X0375600Y0045100D01*
X0400600Y0036600D02*
X0400605Y0036993D01*
X0400619Y0037385D01*
X0400643Y0037777D01*
X0400677Y0038168D01*
X0400720Y0038559D01*
X0400773Y0038948D01*
X0400836Y0039335D01*
X0400907Y0039721D01*
X0400989Y0040106D01*
X0401079Y0040488D01*
X0401180Y0040867D01*
X0401289Y0041245D01*
X0401408Y0041619D01*
X0401535Y0041990D01*
X0401672Y0042358D01*
X0401818Y0042723D01*
X0401973Y0043084D01*
X0402136Y0043441D01*
X0402308Y0043794D01*
X0402489Y0044142D01*
X0402679Y0044486D01*
X0402876Y0044826D01*
X0403082Y0045160D01*
X0403296Y0045489D01*
X0403519Y0045813D01*
X0403749Y0046131D01*
X0403986Y0046444D01*
X0404232Y0046750D01*
X0404485Y0047051D01*
X0404745Y0047345D01*
X0405012Y0047633D01*
X0405286Y0047914D01*
X0405567Y0048188D01*
X0405855Y0048455D01*
X0406149Y0048715D01*
X0406450Y0048968D01*
X0406756Y0049214D01*
X0407069Y0049451D01*
X0407387Y0049681D01*
X0407711Y0049904D01*
X0408040Y0050118D01*
X0408374Y0050324D01*
X0408714Y0050521D01*
X0409058Y0050711D01*
X0409406Y0050892D01*
X0409759Y0051064D01*
X0410116Y0051227D01*
X0410477Y0051382D01*
X0410842Y0051528D01*
X0411210Y0051665D01*
X0411581Y0051792D01*
X0411955Y0051911D01*
X0412333Y0052020D01*
X0412712Y0052121D01*
X0413094Y0052211D01*
X0413479Y0052293D01*
X0413865Y0052364D01*
X0414252Y0052427D01*
X0414641Y0052480D01*
X0415032Y0052523D01*
X0415423Y0052557D01*
X0415815Y0052581D01*
X0416207Y0052595D01*
X0416600Y0052600D01*
X0416993Y0052595D01*
X0417385Y0052581D01*
X0417777Y0052557D01*
X0418168Y0052523D01*
X0418559Y0052480D01*
X0418948Y0052427D01*
X0419335Y0052364D01*
X0419721Y0052293D01*
X0420106Y0052211D01*
X0420488Y0052121D01*
X0420867Y0052020D01*
X0421245Y0051911D01*
X0421619Y0051792D01*
X0421990Y0051665D01*
X0422358Y0051528D01*
X0422723Y0051382D01*
X0423084Y0051227D01*
X0423441Y0051064D01*
X0423794Y0050892D01*
X0424142Y0050711D01*
X0424486Y0050521D01*
X0424826Y0050324D01*
X0425160Y0050118D01*
X0425489Y0049904D01*
X0425813Y0049681D01*
X0426131Y0049451D01*
X0426444Y0049214D01*
X0426750Y0048968D01*
X0427051Y0048715D01*
X0427345Y0048455D01*
X0427633Y0048188D01*
X0427914Y0047914D01*
X0428188Y0047633D01*
X0428455Y0047345D01*
X0428715Y0047051D01*
X0428968Y0046750D01*
X0429214Y0046444D01*
X0429451Y0046131D01*
X0429681Y0045813D01*
X0429904Y0045489D01*
X0430118Y0045160D01*
X0430324Y0044826D01*
X0430521Y0044486D01*
X0430711Y0044142D01*
X0430892Y0043794D01*
X0431064Y0043441D01*
X0431227Y0043084D01*
X0431382Y0042723D01*
X0431528Y0042358D01*
X0431665Y0041990D01*
X0431792Y0041619D01*
X0431911Y0041245D01*
X0432020Y0040867D01*
X0432121Y0040488D01*
X0432211Y0040106D01*
X0432293Y0039721D01*
X0432364Y0039335D01*
X0432427Y0038948D01*
X0432480Y0038559D01*
X0432523Y0038168D01*
X0432557Y0037777D01*
X0432581Y0037385D01*
X0432595Y0036993D01*
X0432600Y0036600D01*
X0432595Y0036207D01*
X0432581Y0035815D01*
X0432557Y0035423D01*
X0432523Y0035032D01*
X0432480Y0034641D01*
X0432427Y0034252D01*
X0432364Y0033865D01*
X0432293Y0033479D01*
X0432211Y0033094D01*
X0432121Y0032712D01*
X0432020Y0032333D01*
X0431911Y0031955D01*
X0431792Y0031581D01*
X0431665Y0031210D01*
X0431528Y0030842D01*
X0431382Y0030477D01*
X0431227Y0030116D01*
X0431064Y0029759D01*
X0430892Y0029406D01*
X0430711Y0029058D01*
X0430521Y0028714D01*
X0430324Y0028374D01*
X0430118Y0028040D01*
X0429904Y0027711D01*
X0429681Y0027387D01*
X0429451Y0027069D01*
X0429214Y0026756D01*
X0428968Y0026450D01*
X0428715Y0026149D01*
X0428455Y0025855D01*
X0428188Y0025567D01*
X0427914Y0025286D01*
X0427633Y0025012D01*
X0427345Y0024745D01*
X0427051Y0024485D01*
X0426750Y0024232D01*
X0426444Y0023986D01*
X0426131Y0023749D01*
X0425813Y0023519D01*
X0425489Y0023296D01*
X0425160Y0023082D01*
X0424826Y0022876D01*
X0424486Y0022679D01*
X0424142Y0022489D01*
X0423794Y0022308D01*
X0423441Y0022136D01*
X0423084Y0021973D01*
X0422723Y0021818D01*
X0422358Y0021672D01*
X0421990Y0021535D01*
X0421619Y0021408D01*
X0421245Y0021289D01*
X0420867Y0021180D01*
X0420488Y0021079D01*
X0420106Y0020989D01*
X0419721Y0020907D01*
X0419335Y0020836D01*
X0418948Y0020773D01*
X0418559Y0020720D01*
X0418168Y0020677D01*
X0417777Y0020643D01*
X0417385Y0020619D01*
X0416993Y0020605D01*
X0416600Y0020600D01*
X0416207Y0020605D01*
X0415815Y0020619D01*
X0415423Y0020643D01*
X0415032Y0020677D01*
X0414641Y0020720D01*
X0414252Y0020773D01*
X0413865Y0020836D01*
X0413479Y0020907D01*
X0413094Y0020989D01*
X0412712Y0021079D01*
X0412333Y0021180D01*
X0411955Y0021289D01*
X0411581Y0021408D01*
X0411210Y0021535D01*
X0410842Y0021672D01*
X0410477Y0021818D01*
X0410116Y0021973D01*
X0409759Y0022136D01*
X0409406Y0022308D01*
X0409058Y0022489D01*
X0408714Y0022679D01*
X0408374Y0022876D01*
X0408040Y0023082D01*
X0407711Y0023296D01*
X0407387Y0023519D01*
X0407069Y0023749D01*
X0406756Y0023986D01*
X0406450Y0024232D01*
X0406149Y0024485D01*
X0405855Y0024745D01*
X0405567Y0025012D01*
X0405286Y0025286D01*
X0405012Y0025567D01*
X0404745Y0025855D01*
X0404485Y0026149D01*
X0404232Y0026450D01*
X0403986Y0026756D01*
X0403749Y0027069D01*
X0403519Y0027387D01*
X0403296Y0027711D01*
X0403082Y0028040D01*
X0402876Y0028374D01*
X0402679Y0028714D01*
X0402489Y0029058D01*
X0402308Y0029406D01*
X0402136Y0029759D01*
X0401973Y0030116D01*
X0401818Y0030477D01*
X0401672Y0030842D01*
X0401535Y0031210D01*
X0401408Y0031581D01*
X0401289Y0031955D01*
X0401180Y0032333D01*
X0401079Y0032712D01*
X0400989Y0033094D01*
X0400907Y0033479D01*
X0400836Y0033865D01*
X0400773Y0034252D01*
X0400720Y0034641D01*
X0400677Y0035032D01*
X0400643Y0035423D01*
X0400619Y0035815D01*
X0400605Y0036207D01*
X0400600Y0036600D01*
X0427100Y0032100D02*
X0430100Y0032100D01*
X0428600Y0033600D02*
X0428600Y0030600D01*
X0456600Y0049100D02*
X0459100Y0046600D01*
X0464100Y0046600D01*
X0466600Y0049100D01*
X0466600Y0054100D01*
X0464100Y0056600D01*
X0466600Y0059100D01*
X0466600Y0064100D01*
X0464100Y0066600D01*
X0459100Y0066600D01*
X0456600Y0064100D01*
X0456600Y0059100D01*
X0459100Y0056600D01*
X0464100Y0056600D01*
X0459100Y0056600D02*
X0456600Y0054100D01*
X0456600Y0049100D01*
X0459100Y0066600D02*
X0456600Y0069100D01*
X0456600Y0074100D01*
X0459100Y0076600D01*
X0456600Y0079100D01*
X0456600Y0084100D01*
X0459100Y0086600D01*
X0456600Y0089100D01*
X0456600Y0094100D01*
X0459100Y0096600D01*
X0464100Y0096600D01*
X0466600Y0094100D01*
X0466600Y0089100D01*
X0464100Y0086600D01*
X0466600Y0084100D01*
X0466600Y0079100D01*
X0464100Y0076600D01*
X0466600Y0074100D01*
X0466600Y0069100D01*
X0464100Y0066600D01*
X0464100Y0076600D02*
X0459100Y0076600D01*
X0441600Y0078600D02*
X0431600Y0078600D01*
X0431600Y0094600D01*
X0441600Y0094600D01*
X0441600Y0078600D01*
X0436600Y0084100D02*
X0436600Y0086600D01*
X0439100Y0086600D01*
X0436600Y0086600D02*
X0434100Y0086600D01*
X0436600Y0086600D02*
X0434100Y0090600D01*
X0439100Y0090600D01*
X0436600Y0086600D01*
X0436600Y0092600D01*
X0456600Y0099100D02*
X0456600Y0104100D01*
X0459100Y0106600D01*
X0456600Y0109100D01*
X0456600Y0114100D01*
X0459100Y0116600D01*
X0464100Y0116600D01*
X0466600Y0114100D01*
X0466600Y0109100D01*
X0464100Y0106600D01*
X0466600Y0104100D01*
X0466600Y0099100D01*
X0464100Y0096600D01*
X0459100Y0096600D02*
X0456600Y0099100D01*
X0459100Y0106600D02*
X0464100Y0106600D01*
X0464100Y0086600D02*
X0459100Y0086600D01*
X0371600Y0097900D02*
X0371600Y0102600D01*
X0336600Y0074100D02*
X0336600Y0069100D01*
X0339100Y0071600D02*
X0334100Y0071600D01*
X0320100Y0049100D02*
X0313100Y0049100D01*
X0313040Y0049098D01*
X0312979Y0049093D01*
X0312920Y0049084D01*
X0312861Y0049071D01*
X0312802Y0049055D01*
X0312745Y0049035D01*
X0312690Y0049012D01*
X0312635Y0048985D01*
X0312583Y0048956D01*
X0312532Y0048923D01*
X0312483Y0048887D01*
X0312437Y0048849D01*
X0312393Y0048807D01*
X0312351Y0048763D01*
X0312313Y0048717D01*
X0312277Y0048668D01*
X0312244Y0048617D01*
X0312215Y0048565D01*
X0312188Y0048510D01*
X0312165Y0048455D01*
X0312145Y0048398D01*
X0312129Y0048339D01*
X0312116Y0048280D01*
X0312107Y0048221D01*
X0312102Y0048160D01*
X0312100Y0048100D01*
X0312100Y0046600D01*
X0312600Y0046100D01*
X0312600Y0027100D01*
X0312100Y0026600D01*
X0312100Y0025100D01*
X0312102Y0025040D01*
X0312107Y0024979D01*
X0312116Y0024920D01*
X0312129Y0024861D01*
X0312145Y0024802D01*
X0312165Y0024745D01*
X0312188Y0024690D01*
X0312215Y0024635D01*
X0312244Y0024583D01*
X0312277Y0024532D01*
X0312313Y0024483D01*
X0312351Y0024437D01*
X0312393Y0024393D01*
X0312437Y0024351D01*
X0312483Y0024313D01*
X0312532Y0024277D01*
X0312583Y0024244D01*
X0312635Y0024215D01*
X0312690Y0024188D01*
X0312745Y0024165D01*
X0312802Y0024145D01*
X0312861Y0024129D01*
X0312920Y0024116D01*
X0312979Y0024107D01*
X0313040Y0024102D01*
X0313100Y0024100D01*
X0320100Y0024100D01*
X0320160Y0024102D01*
X0320221Y0024107D01*
X0320280Y0024116D01*
X0320339Y0024129D01*
X0320398Y0024145D01*
X0320455Y0024165D01*
X0320510Y0024188D01*
X0320565Y0024215D01*
X0320617Y0024244D01*
X0320668Y0024277D01*
X0320717Y0024313D01*
X0320763Y0024351D01*
X0320807Y0024393D01*
X0320849Y0024437D01*
X0320887Y0024483D01*
X0320923Y0024532D01*
X0320956Y0024583D01*
X0320985Y0024635D01*
X0321012Y0024690D01*
X0321035Y0024745D01*
X0321055Y0024802D01*
X0321071Y0024861D01*
X0321084Y0024920D01*
X0321093Y0024979D01*
X0321098Y0025040D01*
X0321100Y0025100D01*
X0321100Y0026600D01*
X0320600Y0027100D01*
X0320600Y0046100D01*
X0321100Y0046600D01*
X0321100Y0048100D01*
X0321098Y0048160D01*
X0321093Y0048221D01*
X0321084Y0048280D01*
X0321071Y0048339D01*
X0321055Y0048398D01*
X0321035Y0048455D01*
X0321012Y0048510D01*
X0320985Y0048565D01*
X0320956Y0048617D01*
X0320923Y0048668D01*
X0320887Y0048717D01*
X0320849Y0048763D01*
X0320807Y0048807D01*
X0320763Y0048849D01*
X0320717Y0048887D01*
X0320668Y0048923D01*
X0320617Y0048956D01*
X0320565Y0048985D01*
X0320510Y0049012D01*
X0320455Y0049035D01*
X0320398Y0049055D01*
X0320339Y0049071D01*
X0320280Y0049084D01*
X0320221Y0049093D01*
X0320160Y0049098D01*
X0320100Y0049100D01*
X0306100Y0048100D02*
X0306100Y0046600D01*
X0305600Y0046100D01*
X0305600Y0027100D01*
X0306100Y0026600D01*
X0306100Y0025100D01*
X0306098Y0025040D01*
X0306093Y0024979D01*
X0306084Y0024920D01*
X0306071Y0024861D01*
X0306055Y0024802D01*
X0306035Y0024745D01*
X0306012Y0024690D01*
X0305985Y0024635D01*
X0305956Y0024583D01*
X0305923Y0024532D01*
X0305887Y0024483D01*
X0305849Y0024437D01*
X0305807Y0024393D01*
X0305763Y0024351D01*
X0305717Y0024313D01*
X0305668Y0024277D01*
X0305617Y0024244D01*
X0305565Y0024215D01*
X0305510Y0024188D01*
X0305455Y0024165D01*
X0305398Y0024145D01*
X0305339Y0024129D01*
X0305280Y0024116D01*
X0305221Y0024107D01*
X0305160Y0024102D01*
X0305100Y0024100D01*
X0298100Y0024100D01*
X0298040Y0024102D01*
X0297979Y0024107D01*
X0297920Y0024116D01*
X0297861Y0024129D01*
X0297802Y0024145D01*
X0297745Y0024165D01*
X0297690Y0024188D01*
X0297635Y0024215D01*
X0297583Y0024244D01*
X0297532Y0024277D01*
X0297483Y0024313D01*
X0297437Y0024351D01*
X0297393Y0024393D01*
X0297351Y0024437D01*
X0297313Y0024483D01*
X0297277Y0024532D01*
X0297244Y0024583D01*
X0297215Y0024635D01*
X0297188Y0024690D01*
X0297165Y0024745D01*
X0297145Y0024802D01*
X0297129Y0024861D01*
X0297116Y0024920D01*
X0297107Y0024979D01*
X0297102Y0025040D01*
X0297100Y0025100D01*
X0297100Y0026600D01*
X0297600Y0027100D01*
X0297600Y0046100D01*
X0297100Y0046600D01*
X0297100Y0048100D01*
X0297102Y0048160D01*
X0297107Y0048221D01*
X0297116Y0048280D01*
X0297129Y0048339D01*
X0297145Y0048398D01*
X0297165Y0048455D01*
X0297188Y0048510D01*
X0297215Y0048565D01*
X0297244Y0048617D01*
X0297277Y0048668D01*
X0297313Y0048717D01*
X0297351Y0048763D01*
X0297393Y0048807D01*
X0297437Y0048849D01*
X0297483Y0048887D01*
X0297532Y0048923D01*
X0297583Y0048956D01*
X0297635Y0048985D01*
X0297690Y0049012D01*
X0297745Y0049035D01*
X0297802Y0049055D01*
X0297861Y0049071D01*
X0297920Y0049084D01*
X0297979Y0049093D01*
X0298040Y0049098D01*
X0298100Y0049100D01*
X0305100Y0049100D01*
X0305160Y0049098D01*
X0305221Y0049093D01*
X0305280Y0049084D01*
X0305339Y0049071D01*
X0305398Y0049055D01*
X0305455Y0049035D01*
X0305510Y0049012D01*
X0305565Y0048985D01*
X0305617Y0048956D01*
X0305668Y0048923D01*
X0305717Y0048887D01*
X0305763Y0048849D01*
X0305807Y0048807D01*
X0305849Y0048763D01*
X0305887Y0048717D01*
X0305923Y0048668D01*
X0305956Y0048617D01*
X0305985Y0048565D01*
X0306012Y0048510D01*
X0306035Y0048455D01*
X0306055Y0048398D01*
X0306071Y0048339D01*
X0306084Y0048280D01*
X0306093Y0048221D01*
X0306098Y0048160D01*
X0306100Y0048100D01*
X0285100Y0031600D02*
X0258100Y0031600D01*
X0258040Y0031598D01*
X0257979Y0031593D01*
X0257920Y0031584D01*
X0257861Y0031571D01*
X0257802Y0031555D01*
X0257745Y0031535D01*
X0257690Y0031512D01*
X0257635Y0031485D01*
X0257583Y0031456D01*
X0257532Y0031423D01*
X0257483Y0031387D01*
X0257437Y0031349D01*
X0257393Y0031307D01*
X0257351Y0031263D01*
X0257313Y0031217D01*
X0257277Y0031168D01*
X0257244Y0031117D01*
X0257215Y0031065D01*
X0257188Y0031010D01*
X0257165Y0030955D01*
X0257145Y0030898D01*
X0257129Y0030839D01*
X0257116Y0030780D01*
X0257107Y0030721D01*
X0257102Y0030660D01*
X0257100Y0030600D01*
X0257100Y0022600D01*
X0257102Y0022540D01*
X0257107Y0022479D01*
X0257116Y0022420D01*
X0257129Y0022361D01*
X0257145Y0022302D01*
X0257165Y0022245D01*
X0257188Y0022190D01*
X0257215Y0022135D01*
X0257244Y0022083D01*
X0257277Y0022032D01*
X0257313Y0021983D01*
X0257351Y0021937D01*
X0257393Y0021893D01*
X0257437Y0021851D01*
X0257483Y0021813D01*
X0257532Y0021777D01*
X0257583Y0021744D01*
X0257635Y0021715D01*
X0257690Y0021688D01*
X0257745Y0021665D01*
X0257802Y0021645D01*
X0257861Y0021629D01*
X0257920Y0021616D01*
X0257979Y0021607D01*
X0258040Y0021602D01*
X0258100Y0021600D01*
X0285100Y0021600D01*
X0285160Y0021602D01*
X0285221Y0021607D01*
X0285280Y0021616D01*
X0285339Y0021629D01*
X0285398Y0021645D01*
X0285455Y0021665D01*
X0285510Y0021688D01*
X0285565Y0021715D01*
X0285617Y0021744D01*
X0285668Y0021777D01*
X0285717Y0021813D01*
X0285763Y0021851D01*
X0285807Y0021893D01*
X0285849Y0021937D01*
X0285887Y0021983D01*
X0285923Y0022032D01*
X0285956Y0022083D01*
X0285985Y0022135D01*
X0286012Y0022190D01*
X0286035Y0022245D01*
X0286055Y0022302D01*
X0286071Y0022361D01*
X0286084Y0022420D01*
X0286093Y0022479D01*
X0286098Y0022540D01*
X0286100Y0022600D01*
X0286100Y0030600D01*
X0286098Y0030660D01*
X0286093Y0030721D01*
X0286084Y0030780D01*
X0286071Y0030839D01*
X0286055Y0030898D01*
X0286035Y0030955D01*
X0286012Y0031010D01*
X0285985Y0031065D01*
X0285956Y0031117D01*
X0285923Y0031168D01*
X0285887Y0031217D01*
X0285849Y0031263D01*
X0285807Y0031307D01*
X0285763Y0031349D01*
X0285717Y0031387D01*
X0285668Y0031423D01*
X0285617Y0031456D01*
X0285565Y0031485D01*
X0285510Y0031512D01*
X0285455Y0031535D01*
X0285398Y0031555D01*
X0285339Y0031571D01*
X0285280Y0031584D01*
X0285221Y0031593D01*
X0285160Y0031598D01*
X0285100Y0031600D01*
X0277600Y0026600D02*
X0272900Y0026600D01*
X0270400Y0026600D02*
X0265600Y0026600D01*
X0221600Y0031100D02*
X0221600Y0040600D01*
X0181600Y0040600D01*
X0181600Y0031100D01*
X0181600Y0005100D01*
X0181600Y0004100D01*
X0221600Y0004100D01*
X0221600Y0005100D01*
X0221600Y0031100D01*
X0215100Y0031100D01*
X0208100Y0031100D02*
X0195100Y0031100D01*
X0188100Y0031100D02*
X0181600Y0031100D01*
X0205600Y0052100D02*
X0217100Y0051600D01*
X0205600Y0052100D02*
X0204600Y0053100D01*
X0204600Y0090100D01*
X0205600Y0091100D01*
X0217100Y0091600D01*
X0206000Y0089300D02*
X0206002Y0089363D01*
X0206008Y0089425D01*
X0206018Y0089487D01*
X0206031Y0089549D01*
X0206049Y0089609D01*
X0206070Y0089668D01*
X0206095Y0089726D01*
X0206124Y0089782D01*
X0206156Y0089836D01*
X0206191Y0089888D01*
X0206229Y0089937D01*
X0206271Y0089985D01*
X0206315Y0090029D01*
X0206363Y0090071D01*
X0206412Y0090109D01*
X0206464Y0090144D01*
X0206518Y0090176D01*
X0206574Y0090205D01*
X0206632Y0090230D01*
X0206691Y0090251D01*
X0206751Y0090269D01*
X0206813Y0090282D01*
X0206875Y0090292D01*
X0206937Y0090298D01*
X0207000Y0090300D01*
X0207063Y0090298D01*
X0207125Y0090292D01*
X0207187Y0090282D01*
X0207249Y0090269D01*
X0207309Y0090251D01*
X0207368Y0090230D01*
X0207426Y0090205D01*
X0207482Y0090176D01*
X0207536Y0090144D01*
X0207588Y0090109D01*
X0207637Y0090071D01*
X0207685Y0090029D01*
X0207729Y0089985D01*
X0207771Y0089937D01*
X0207809Y0089888D01*
X0207844Y0089836D01*
X0207876Y0089782D01*
X0207905Y0089726D01*
X0207930Y0089668D01*
X0207951Y0089609D01*
X0207969Y0089549D01*
X0207982Y0089487D01*
X0207992Y0089425D01*
X0207998Y0089363D01*
X0208000Y0089300D01*
X0207998Y0089237D01*
X0207992Y0089175D01*
X0207982Y0089113D01*
X0207969Y0089051D01*
X0207951Y0088991D01*
X0207930Y0088932D01*
X0207905Y0088874D01*
X0207876Y0088818D01*
X0207844Y0088764D01*
X0207809Y0088712D01*
X0207771Y0088663D01*
X0207729Y0088615D01*
X0207685Y0088571D01*
X0207637Y0088529D01*
X0207588Y0088491D01*
X0207536Y0088456D01*
X0207482Y0088424D01*
X0207426Y0088395D01*
X0207368Y0088370D01*
X0207309Y0088349D01*
X0207249Y0088331D01*
X0207187Y0088318D01*
X0207125Y0088308D01*
X0207063Y0088302D01*
X0207000Y0088300D01*
X0206937Y0088302D01*
X0206875Y0088308D01*
X0206813Y0088318D01*
X0206751Y0088331D01*
X0206691Y0088349D01*
X0206632Y0088370D01*
X0206574Y0088395D01*
X0206518Y0088424D01*
X0206464Y0088456D01*
X0206412Y0088491D01*
X0206363Y0088529D01*
X0206315Y0088571D01*
X0206271Y0088615D01*
X0206229Y0088663D01*
X0206191Y0088712D01*
X0206156Y0088764D01*
X0206124Y0088818D01*
X0206095Y0088874D01*
X0206070Y0088932D01*
X0206049Y0088991D01*
X0206031Y0089051D01*
X0206018Y0089113D01*
X0206008Y0089175D01*
X0206002Y0089237D01*
X0206000Y0089300D01*
X0191100Y0083100D02*
X0191100Y0081600D01*
X0190600Y0081100D01*
X0190600Y0062100D01*
X0191100Y0061600D01*
X0191100Y0060100D01*
X0191098Y0060040D01*
X0191093Y0059979D01*
X0191084Y0059920D01*
X0191071Y0059861D01*
X0191055Y0059802D01*
X0191035Y0059745D01*
X0191012Y0059690D01*
X0190985Y0059635D01*
X0190956Y0059583D01*
X0190923Y0059532D01*
X0190887Y0059483D01*
X0190849Y0059437D01*
X0190807Y0059393D01*
X0190763Y0059351D01*
X0190717Y0059313D01*
X0190668Y0059277D01*
X0190617Y0059244D01*
X0190565Y0059215D01*
X0190510Y0059188D01*
X0190455Y0059165D01*
X0190398Y0059145D01*
X0190339Y0059129D01*
X0190280Y0059116D01*
X0190221Y0059107D01*
X0190160Y0059102D01*
X0190100Y0059100D01*
X0183100Y0059100D01*
X0183040Y0059102D01*
X0182979Y0059107D01*
X0182920Y0059116D01*
X0182861Y0059129D01*
X0182802Y0059145D01*
X0182745Y0059165D01*
X0182690Y0059188D01*
X0182635Y0059215D01*
X0182583Y0059244D01*
X0182532Y0059277D01*
X0182483Y0059313D01*
X0182437Y0059351D01*
X0182393Y0059393D01*
X0182351Y0059437D01*
X0182313Y0059483D01*
X0182277Y0059532D01*
X0182244Y0059583D01*
X0182215Y0059635D01*
X0182188Y0059690D01*
X0182165Y0059745D01*
X0182145Y0059802D01*
X0182129Y0059861D01*
X0182116Y0059920D01*
X0182107Y0059979D01*
X0182102Y0060040D01*
X0182100Y0060100D01*
X0182100Y0061600D01*
X0182600Y0062100D01*
X0182600Y0081100D01*
X0182100Y0081600D01*
X0182100Y0083100D01*
X0182102Y0083160D01*
X0182107Y0083221D01*
X0182116Y0083280D01*
X0182129Y0083339D01*
X0182145Y0083398D01*
X0182165Y0083455D01*
X0182188Y0083510D01*
X0182215Y0083565D01*
X0182244Y0083617D01*
X0182277Y0083668D01*
X0182313Y0083717D01*
X0182351Y0083763D01*
X0182393Y0083807D01*
X0182437Y0083849D01*
X0182483Y0083887D01*
X0182532Y0083923D01*
X0182583Y0083956D01*
X0182635Y0083985D01*
X0182690Y0084012D01*
X0182745Y0084035D01*
X0182802Y0084055D01*
X0182861Y0084071D01*
X0182920Y0084084D01*
X0182979Y0084093D01*
X0183040Y0084098D01*
X0183100Y0084100D01*
X0190100Y0084100D01*
X0190160Y0084098D01*
X0190221Y0084093D01*
X0190280Y0084084D01*
X0190339Y0084071D01*
X0190398Y0084055D01*
X0190455Y0084035D01*
X0190510Y0084012D01*
X0190565Y0083985D01*
X0190617Y0083956D01*
X0190668Y0083923D01*
X0190717Y0083887D01*
X0190763Y0083849D01*
X0190807Y0083807D01*
X0190849Y0083763D01*
X0190887Y0083717D01*
X0190923Y0083668D01*
X0190956Y0083617D01*
X0190985Y0083565D01*
X0191012Y0083510D01*
X0191035Y0083455D01*
X0191055Y0083398D01*
X0191071Y0083339D01*
X0191084Y0083280D01*
X0191093Y0083221D01*
X0191098Y0083160D01*
X0191100Y0083100D01*
X0176100Y0083100D02*
X0176100Y0081600D01*
X0175600Y0081100D01*
X0175600Y0062100D01*
X0176100Y0061600D01*
X0176100Y0060100D01*
X0176098Y0060040D01*
X0176093Y0059979D01*
X0176084Y0059920D01*
X0176071Y0059861D01*
X0176055Y0059802D01*
X0176035Y0059745D01*
X0176012Y0059690D01*
X0175985Y0059635D01*
X0175956Y0059583D01*
X0175923Y0059532D01*
X0175887Y0059483D01*
X0175849Y0059437D01*
X0175807Y0059393D01*
X0175763Y0059351D01*
X0175717Y0059313D01*
X0175668Y0059277D01*
X0175617Y0059244D01*
X0175565Y0059215D01*
X0175510Y0059188D01*
X0175455Y0059165D01*
X0175398Y0059145D01*
X0175339Y0059129D01*
X0175280Y0059116D01*
X0175221Y0059107D01*
X0175160Y0059102D01*
X0175100Y0059100D01*
X0168100Y0059100D01*
X0168040Y0059102D01*
X0167979Y0059107D01*
X0167920Y0059116D01*
X0167861Y0059129D01*
X0167802Y0059145D01*
X0167745Y0059165D01*
X0167690Y0059188D01*
X0167635Y0059215D01*
X0167583Y0059244D01*
X0167532Y0059277D01*
X0167483Y0059313D01*
X0167437Y0059351D01*
X0167393Y0059393D01*
X0167351Y0059437D01*
X0167313Y0059483D01*
X0167277Y0059532D01*
X0167244Y0059583D01*
X0167215Y0059635D01*
X0167188Y0059690D01*
X0167165Y0059745D01*
X0167145Y0059802D01*
X0167129Y0059861D01*
X0167116Y0059920D01*
X0167107Y0059979D01*
X0167102Y0060040D01*
X0167100Y0060100D01*
X0167100Y0061600D01*
X0167600Y0062100D01*
X0167600Y0081100D01*
X0167100Y0081600D01*
X0167100Y0083100D01*
X0167102Y0083160D01*
X0167107Y0083221D01*
X0167116Y0083280D01*
X0167129Y0083339D01*
X0167145Y0083398D01*
X0167165Y0083455D01*
X0167188Y0083510D01*
X0167215Y0083565D01*
X0167244Y0083617D01*
X0167277Y0083668D01*
X0167313Y0083717D01*
X0167351Y0083763D01*
X0167393Y0083807D01*
X0167437Y0083849D01*
X0167483Y0083887D01*
X0167532Y0083923D01*
X0167583Y0083956D01*
X0167635Y0083985D01*
X0167690Y0084012D01*
X0167745Y0084035D01*
X0167802Y0084055D01*
X0167861Y0084071D01*
X0167920Y0084084D01*
X0167979Y0084093D01*
X0168040Y0084098D01*
X0168100Y0084100D01*
X0175100Y0084100D01*
X0175160Y0084098D01*
X0175221Y0084093D01*
X0175280Y0084084D01*
X0175339Y0084071D01*
X0175398Y0084055D01*
X0175455Y0084035D01*
X0175510Y0084012D01*
X0175565Y0083985D01*
X0175617Y0083956D01*
X0175668Y0083923D01*
X0175717Y0083887D01*
X0175763Y0083849D01*
X0175807Y0083807D01*
X0175849Y0083763D01*
X0175887Y0083717D01*
X0175923Y0083668D01*
X0175956Y0083617D01*
X0175985Y0083565D01*
X0176012Y0083510D01*
X0176035Y0083455D01*
X0176055Y0083398D01*
X0176071Y0083339D01*
X0176084Y0083280D01*
X0176093Y0083221D01*
X0176098Y0083160D01*
X0176100Y0083100D01*
X0350100Y0026100D02*
X0351600Y0026100D01*
X0352100Y0025600D01*
X0371100Y0025600D01*
X0371600Y0026100D01*
X0373100Y0026100D01*
X0373160Y0026098D01*
X0373221Y0026093D01*
X0373280Y0026084D01*
X0373339Y0026071D01*
X0373398Y0026055D01*
X0373455Y0026035D01*
X0373510Y0026012D01*
X0373565Y0025985D01*
X0373617Y0025956D01*
X0373668Y0025923D01*
X0373717Y0025887D01*
X0373763Y0025849D01*
X0373807Y0025807D01*
X0373849Y0025763D01*
X0373887Y0025717D01*
X0373923Y0025668D01*
X0373956Y0025617D01*
X0373985Y0025565D01*
X0374012Y0025510D01*
X0374035Y0025455D01*
X0374055Y0025398D01*
X0374071Y0025339D01*
X0374084Y0025280D01*
X0374093Y0025221D01*
X0374098Y0025160D01*
X0374100Y0025100D01*
X0374100Y0018100D01*
X0374098Y0018040D01*
X0374093Y0017979D01*
X0374084Y0017920D01*
X0374071Y0017861D01*
X0374055Y0017802D01*
X0374035Y0017745D01*
X0374012Y0017690D01*
X0373985Y0017635D01*
X0373956Y0017583D01*
X0373923Y0017532D01*
X0373887Y0017483D01*
X0373849Y0017437D01*
X0373807Y0017393D01*
X0373763Y0017351D01*
X0373717Y0017313D01*
X0373668Y0017277D01*
X0373617Y0017244D01*
X0373565Y0017215D01*
X0373510Y0017188D01*
X0373455Y0017165D01*
X0373398Y0017145D01*
X0373339Y0017129D01*
X0373280Y0017116D01*
X0373221Y0017107D01*
X0373160Y0017102D01*
X0373100Y0017100D01*
X0371600Y0017100D01*
X0371100Y0017600D01*
X0352100Y0017600D01*
X0351600Y0017100D01*
X0350100Y0017100D01*
X0350040Y0017102D01*
X0349979Y0017107D01*
X0349920Y0017116D01*
X0349861Y0017129D01*
X0349802Y0017145D01*
X0349745Y0017165D01*
X0349690Y0017188D01*
X0349635Y0017215D01*
X0349583Y0017244D01*
X0349532Y0017277D01*
X0349483Y0017313D01*
X0349437Y0017351D01*
X0349393Y0017393D01*
X0349351Y0017437D01*
X0349313Y0017483D01*
X0349277Y0017532D01*
X0349244Y0017583D01*
X0349215Y0017635D01*
X0349188Y0017690D01*
X0349165Y0017745D01*
X0349145Y0017802D01*
X0349129Y0017861D01*
X0349116Y0017920D01*
X0349107Y0017979D01*
X0349102Y0018040D01*
X0349100Y0018100D01*
X0349100Y0025100D01*
X0349102Y0025160D01*
X0349107Y0025221D01*
X0349116Y0025280D01*
X0349129Y0025339D01*
X0349145Y0025398D01*
X0349165Y0025455D01*
X0349188Y0025510D01*
X0349215Y0025565D01*
X0349244Y0025617D01*
X0349277Y0025668D01*
X0349313Y0025717D01*
X0349351Y0025763D01*
X0349393Y0025807D01*
X0349437Y0025849D01*
X0349483Y0025887D01*
X0349532Y0025923D01*
X0349583Y0025956D01*
X0349635Y0025985D01*
X0349690Y0026012D01*
X0349745Y0026035D01*
X0349802Y0026055D01*
X0349861Y0026071D01*
X0349920Y0026084D01*
X0349979Y0026093D01*
X0350040Y0026098D01*
X0350100Y0026100D01*
X0221600Y0005100D02*
X0181600Y0005100D01*
X0189600Y0010400D02*
X0189602Y0010489D01*
X0189608Y0010578D01*
X0189618Y0010667D01*
X0189632Y0010755D01*
X0189649Y0010842D01*
X0189671Y0010928D01*
X0189697Y0011014D01*
X0189726Y0011098D01*
X0189759Y0011181D01*
X0189795Y0011262D01*
X0189836Y0011342D01*
X0189879Y0011419D01*
X0189926Y0011495D01*
X0189977Y0011568D01*
X0190030Y0011639D01*
X0190087Y0011708D01*
X0190147Y0011774D01*
X0190210Y0011838D01*
X0190275Y0011898D01*
X0190343Y0011956D01*
X0190414Y0012010D01*
X0190487Y0012061D01*
X0190562Y0012109D01*
X0190639Y0012154D01*
X0190718Y0012195D01*
X0190799Y0012232D01*
X0190881Y0012266D01*
X0190965Y0012297D01*
X0191050Y0012323D01*
X0191136Y0012346D01*
X0191223Y0012364D01*
X0191311Y0012379D01*
X0191400Y0012390D01*
X0191489Y0012397D01*
X0191578Y0012400D01*
X0191667Y0012399D01*
X0191756Y0012394D01*
X0191844Y0012385D01*
X0191933Y0012372D01*
X0192020Y0012355D01*
X0192107Y0012335D01*
X0192193Y0012310D01*
X0192277Y0012282D01*
X0192360Y0012250D01*
X0192442Y0012214D01*
X0192522Y0012175D01*
X0192600Y0012132D01*
X0192676Y0012086D01*
X0192750Y0012036D01*
X0192822Y0011983D01*
X0192891Y0011927D01*
X0192958Y0011868D01*
X0193022Y0011806D01*
X0193083Y0011742D01*
X0193142Y0011674D01*
X0193197Y0011604D01*
X0193249Y0011532D01*
X0193298Y0011457D01*
X0193343Y0011381D01*
X0193385Y0011302D01*
X0193423Y0011222D01*
X0193458Y0011140D01*
X0193489Y0011056D01*
X0193517Y0010971D01*
X0193540Y0010885D01*
X0193560Y0010798D01*
X0193576Y0010711D01*
X0193588Y0010622D01*
X0193596Y0010534D01*
X0193600Y0010445D01*
X0193600Y0010355D01*
X0193596Y0010266D01*
X0193588Y0010178D01*
X0193576Y0010089D01*
X0193560Y0010002D01*
X0193540Y0009915D01*
X0193517Y0009829D01*
X0193489Y0009744D01*
X0193458Y0009660D01*
X0193423Y0009578D01*
X0193385Y0009498D01*
X0193343Y0009419D01*
X0193298Y0009343D01*
X0193249Y0009268D01*
X0193197Y0009196D01*
X0193142Y0009126D01*
X0193083Y0009058D01*
X0193022Y0008994D01*
X0192958Y0008932D01*
X0192891Y0008873D01*
X0192822Y0008817D01*
X0192750Y0008764D01*
X0192676Y0008714D01*
X0192600Y0008668D01*
X0192522Y0008625D01*
X0192442Y0008586D01*
X0192360Y0008550D01*
X0192277Y0008518D01*
X0192193Y0008490D01*
X0192107Y0008465D01*
X0192020Y0008445D01*
X0191933Y0008428D01*
X0191844Y0008415D01*
X0191756Y0008406D01*
X0191667Y0008401D01*
X0191578Y0008400D01*
X0191489Y0008403D01*
X0191400Y0008410D01*
X0191311Y0008421D01*
X0191223Y0008436D01*
X0191136Y0008454D01*
X0191050Y0008477D01*
X0190965Y0008503D01*
X0190881Y0008534D01*
X0190799Y0008568D01*
X0190718Y0008605D01*
X0190639Y0008646D01*
X0190562Y0008691D01*
X0190487Y0008739D01*
X0190414Y0008790D01*
X0190343Y0008844D01*
X0190275Y0008902D01*
X0190210Y0008962D01*
X0190147Y0009026D01*
X0190087Y0009092D01*
X0190030Y0009161D01*
X0189977Y0009232D01*
X0189926Y0009305D01*
X0189879Y0009381D01*
X0189836Y0009458D01*
X0189795Y0009538D01*
X0189759Y0009619D01*
X0189726Y0009702D01*
X0189697Y0009786D01*
X0189671Y0009872D01*
X0189649Y0009958D01*
X0189632Y0010045D01*
X0189618Y0010133D01*
X0189608Y0010222D01*
X0189602Y0010311D01*
X0189600Y0010400D01*
X0209600Y0010400D02*
X0209602Y0010489D01*
X0209608Y0010578D01*
X0209618Y0010667D01*
X0209632Y0010755D01*
X0209649Y0010842D01*
X0209671Y0010928D01*
X0209697Y0011014D01*
X0209726Y0011098D01*
X0209759Y0011181D01*
X0209795Y0011262D01*
X0209836Y0011342D01*
X0209879Y0011419D01*
X0209926Y0011495D01*
X0209977Y0011568D01*
X0210030Y0011639D01*
X0210087Y0011708D01*
X0210147Y0011774D01*
X0210210Y0011838D01*
X0210275Y0011898D01*
X0210343Y0011956D01*
X0210414Y0012010D01*
X0210487Y0012061D01*
X0210562Y0012109D01*
X0210639Y0012154D01*
X0210718Y0012195D01*
X0210799Y0012232D01*
X0210881Y0012266D01*
X0210965Y0012297D01*
X0211050Y0012323D01*
X0211136Y0012346D01*
X0211223Y0012364D01*
X0211311Y0012379D01*
X0211400Y0012390D01*
X0211489Y0012397D01*
X0211578Y0012400D01*
X0211667Y0012399D01*
X0211756Y0012394D01*
X0211844Y0012385D01*
X0211933Y0012372D01*
X0212020Y0012355D01*
X0212107Y0012335D01*
X0212193Y0012310D01*
X0212277Y0012282D01*
X0212360Y0012250D01*
X0212442Y0012214D01*
X0212522Y0012175D01*
X0212600Y0012132D01*
X0212676Y0012086D01*
X0212750Y0012036D01*
X0212822Y0011983D01*
X0212891Y0011927D01*
X0212958Y0011868D01*
X0213022Y0011806D01*
X0213083Y0011742D01*
X0213142Y0011674D01*
X0213197Y0011604D01*
X0213249Y0011532D01*
X0213298Y0011457D01*
X0213343Y0011381D01*
X0213385Y0011302D01*
X0213423Y0011222D01*
X0213458Y0011140D01*
X0213489Y0011056D01*
X0213517Y0010971D01*
X0213540Y0010885D01*
X0213560Y0010798D01*
X0213576Y0010711D01*
X0213588Y0010622D01*
X0213596Y0010534D01*
X0213600Y0010445D01*
X0213600Y0010355D01*
X0213596Y0010266D01*
X0213588Y0010178D01*
X0213576Y0010089D01*
X0213560Y0010002D01*
X0213540Y0009915D01*
X0213517Y0009829D01*
X0213489Y0009744D01*
X0213458Y0009660D01*
X0213423Y0009578D01*
X0213385Y0009498D01*
X0213343Y0009419D01*
X0213298Y0009343D01*
X0213249Y0009268D01*
X0213197Y0009196D01*
X0213142Y0009126D01*
X0213083Y0009058D01*
X0213022Y0008994D01*
X0212958Y0008932D01*
X0212891Y0008873D01*
X0212822Y0008817D01*
X0212750Y0008764D01*
X0212676Y0008714D01*
X0212600Y0008668D01*
X0212522Y0008625D01*
X0212442Y0008586D01*
X0212360Y0008550D01*
X0212277Y0008518D01*
X0212193Y0008490D01*
X0212107Y0008465D01*
X0212020Y0008445D01*
X0211933Y0008428D01*
X0211844Y0008415D01*
X0211756Y0008406D01*
X0211667Y0008401D01*
X0211578Y0008400D01*
X0211489Y0008403D01*
X0211400Y0008410D01*
X0211311Y0008421D01*
X0211223Y0008436D01*
X0211136Y0008454D01*
X0211050Y0008477D01*
X0210965Y0008503D01*
X0210881Y0008534D01*
X0210799Y0008568D01*
X0210718Y0008605D01*
X0210639Y0008646D01*
X0210562Y0008691D01*
X0210487Y0008739D01*
X0210414Y0008790D01*
X0210343Y0008844D01*
X0210275Y0008902D01*
X0210210Y0008962D01*
X0210147Y0009026D01*
X0210087Y0009092D01*
X0210030Y0009161D01*
X0209977Y0009232D01*
X0209926Y0009305D01*
X0209879Y0009381D01*
X0209836Y0009458D01*
X0209795Y0009538D01*
X0209759Y0009619D01*
X0209726Y0009702D01*
X0209697Y0009786D01*
X0209671Y0009872D01*
X0209649Y0009958D01*
X0209632Y0010045D01*
X0209618Y0010133D01*
X0209608Y0010222D01*
X0209602Y0010311D01*
X0209600Y0010400D01*
D11*
X0336600Y0093850D03*
D12*
X0369100Y0095400D02*
X0371600Y0095400D01*
X0374100Y0095400D01*
X0374100Y0097900D02*
X0371600Y0097900D01*
X0369100Y0097900D01*
X0380100Y0057500D02*
X0380100Y0056000D01*
X0373600Y0053600D02*
X0372600Y0054600D01*
X0370900Y0046600D02*
X0369400Y0046600D01*
X0373600Y0039100D02*
X0372600Y0038100D01*
X0380100Y0037200D02*
X0380100Y0035700D01*
X0272900Y0029100D02*
X0272900Y0026600D01*
X0272900Y0024100D01*
X0270400Y0024100D02*
X0270400Y0026600D01*
X0270400Y0029100D01*
D13*
X0436600Y0081100D03*
D14*
X0436600Y0074850D03*
X0436600Y0098350D03*
D15*
X0156600Y0006600D02*
X0056600Y0006600D01*
X0056600Y0131600D01*
X0056603Y0131842D01*
X0056612Y0132083D01*
X0056626Y0132324D01*
X0056647Y0132565D01*
X0056673Y0132805D01*
X0056705Y0133045D01*
X0056743Y0133284D01*
X0056786Y0133521D01*
X0056836Y0133758D01*
X0056891Y0133993D01*
X0056951Y0134227D01*
X0057018Y0134459D01*
X0057089Y0134690D01*
X0057167Y0134919D01*
X0057250Y0135146D01*
X0057338Y0135371D01*
X0057432Y0135594D01*
X0057531Y0135814D01*
X0057636Y0136032D01*
X0057745Y0136247D01*
X0057860Y0136460D01*
X0057980Y0136670D01*
X0058105Y0136876D01*
X0058235Y0137080D01*
X0058370Y0137281D01*
X0058510Y0137478D01*
X0058654Y0137672D01*
X0058803Y0137862D01*
X0058957Y0138048D01*
X0059115Y0138231D01*
X0059277Y0138410D01*
X0059444Y0138585D01*
X0059615Y0138756D01*
X0059790Y0138923D01*
X0059969Y0139085D01*
X0060152Y0139243D01*
X0060338Y0139397D01*
X0060528Y0139546D01*
X0060722Y0139690D01*
X0060919Y0139830D01*
X0061120Y0139965D01*
X0061324Y0140095D01*
X0061530Y0140220D01*
X0061740Y0140340D01*
X0061953Y0140455D01*
X0062168Y0140564D01*
X0062386Y0140669D01*
X0062606Y0140768D01*
X0062829Y0140862D01*
X0063054Y0140950D01*
X0063281Y0141033D01*
X0063510Y0141111D01*
X0063741Y0141182D01*
X0063973Y0141249D01*
X0064207Y0141309D01*
X0064442Y0141364D01*
X0064679Y0141414D01*
X0064916Y0141457D01*
X0065155Y0141495D01*
X0065395Y0141527D01*
X0065635Y0141553D01*
X0065876Y0141574D01*
X0066117Y0141588D01*
X0066358Y0141597D01*
X0066600Y0141600D01*
X0146600Y0141600D01*
X0137702Y0141506D02*
X0074710Y0141506D01*
X0074710Y0118671D01*
X0137702Y0118671D01*
X0137702Y0141506D01*
X0146600Y0141600D02*
X0146842Y0141597D01*
X0147083Y0141588D01*
X0147324Y0141574D01*
X0147565Y0141553D01*
X0147805Y0141527D01*
X0148045Y0141495D01*
X0148284Y0141457D01*
X0148521Y0141414D01*
X0148758Y0141364D01*
X0148993Y0141309D01*
X0149227Y0141249D01*
X0149459Y0141182D01*
X0149690Y0141111D01*
X0149919Y0141033D01*
X0150146Y0140950D01*
X0150371Y0140862D01*
X0150594Y0140768D01*
X0150814Y0140669D01*
X0151032Y0140564D01*
X0151247Y0140455D01*
X0151460Y0140340D01*
X0151670Y0140220D01*
X0151876Y0140095D01*
X0152080Y0139965D01*
X0152281Y0139830D01*
X0152478Y0139690D01*
X0152672Y0139546D01*
X0152862Y0139397D01*
X0153048Y0139243D01*
X0153231Y0139085D01*
X0153410Y0138923D01*
X0153585Y0138756D01*
X0153756Y0138585D01*
X0153923Y0138410D01*
X0154085Y0138231D01*
X0154243Y0138048D01*
X0154397Y0137862D01*
X0154546Y0137672D01*
X0154690Y0137478D01*
X0154830Y0137281D01*
X0154965Y0137080D01*
X0155095Y0136876D01*
X0155220Y0136670D01*
X0155340Y0136460D01*
X0155455Y0136247D01*
X0155564Y0136032D01*
X0155669Y0135814D01*
X0155768Y0135594D01*
X0155862Y0135371D01*
X0155950Y0135146D01*
X0156033Y0134919D01*
X0156111Y0134690D01*
X0156182Y0134459D01*
X0156249Y0134227D01*
X0156309Y0133993D01*
X0156364Y0133758D01*
X0156414Y0133521D01*
X0156457Y0133284D01*
X0156495Y0133045D01*
X0156527Y0132805D01*
X0156553Y0132565D01*
X0156574Y0132324D01*
X0156588Y0132083D01*
X0156597Y0131842D01*
X0156600Y0131600D01*
X0156600Y0006600D01*
X0137700Y0046600D02*
X0137700Y0118700D01*
X0137600Y0118700D01*
X0074700Y0118700D02*
X0074700Y0046600D01*
X0137600Y0046600D01*
X0335100Y0049846D02*
X0335100Y0033354D01*
X0340600Y0032727D02*
X0340600Y0031148D01*
X0340600Y0040473D02*
X0340600Y0042727D01*
X0335100Y0049846D02*
X0335299Y0049999D01*
X0335501Y0050147D01*
X0335706Y0050290D01*
X0335915Y0050428D01*
X0336127Y0050561D01*
X0336342Y0050689D01*
X0336560Y0050811D01*
X0336781Y0050929D01*
X0337005Y0051041D01*
X0337231Y0051148D01*
X0337460Y0051249D01*
X0337691Y0051345D01*
X0337925Y0051436D01*
X0338160Y0051521D01*
X0338398Y0051600D01*
X0338637Y0051673D01*
X0338878Y0051741D01*
X0339120Y0051803D01*
X0339364Y0051859D01*
X0339610Y0051910D01*
X0339856Y0051954D01*
X0340103Y0051993D01*
X0340351Y0052025D01*
X0340600Y0052052D01*
X0340600Y0050473D01*
X0340600Y0052052D02*
X0340855Y0052074D01*
X0341111Y0052089D01*
X0341367Y0052097D01*
X0341624Y0052100D01*
X0341880Y0052096D01*
X0342136Y0052086D01*
X0342392Y0052070D01*
X0342647Y0052048D01*
X0342902Y0052019D01*
X0343156Y0051984D01*
X0343409Y0051943D01*
X0343661Y0051896D01*
X0343911Y0051842D01*
X0344160Y0051783D01*
X0344408Y0051717D01*
X0344654Y0051646D01*
X0344899Y0051568D01*
X0345141Y0051485D01*
X0345381Y0051396D01*
X0345619Y0051300D01*
X0345855Y0051199D01*
X0346088Y0051093D01*
X0346318Y0050980D01*
X0346546Y0050862D01*
X0346770Y0050739D01*
X0346992Y0050610D01*
X0347210Y0050476D01*
X0347425Y0050336D01*
X0347636Y0050191D01*
X0347844Y0050041D01*
X0348048Y0049887D01*
X0348249Y0049727D01*
X0348445Y0049562D01*
X0348637Y0049393D01*
X0348826Y0049218D01*
X0349009Y0049040D01*
X0349189Y0048857D01*
X0349364Y0048669D01*
X0349534Y0048478D01*
X0349699Y0048282D01*
X0349860Y0048082D01*
X0350016Y0047879D01*
X0350166Y0047672D01*
X0350312Y0047461D01*
X0350453Y0047246D01*
X0350588Y0047029D01*
X0350718Y0046808D01*
X0350842Y0046584D01*
X0350961Y0046357D01*
X0351074Y0046127D01*
X0351182Y0045894D01*
X0351284Y0045659D01*
X0351380Y0045421D01*
X0351470Y0045182D01*
X0351555Y0044940D01*
X0351633Y0044696D01*
X0351633Y0038504D02*
X0351555Y0038262D01*
X0351471Y0038022D01*
X0351382Y0037784D01*
X0351287Y0037548D01*
X0351185Y0037314D01*
X0351079Y0037083D01*
X0350966Y0036855D01*
X0350849Y0036629D01*
X0350726Y0036406D01*
X0350597Y0036187D01*
X0350463Y0035970D01*
X0350324Y0035757D01*
X0350180Y0035547D01*
X0350031Y0035341D01*
X0349877Y0035139D01*
X0349718Y0034940D01*
X0349554Y0034745D01*
X0349385Y0034554D01*
X0349212Y0034368D01*
X0349035Y0034185D01*
X0348853Y0034007D01*
X0348667Y0033834D01*
X0348476Y0033665D01*
X0348282Y0033501D01*
X0348084Y0033341D01*
X0347882Y0033186D01*
X0347676Y0033037D01*
X0347467Y0032892D01*
X0347254Y0032752D01*
X0347038Y0032618D01*
X0346818Y0032489D01*
X0346596Y0032365D01*
X0346371Y0032246D01*
X0346143Y0032134D01*
X0345912Y0032026D01*
X0345679Y0031925D01*
X0345443Y0031829D01*
X0345205Y0031738D01*
X0344965Y0031654D01*
X0344723Y0031575D01*
X0344479Y0031502D01*
X0344233Y0031436D01*
X0343986Y0031375D01*
X0343738Y0031320D01*
X0343488Y0031271D01*
X0343237Y0031228D01*
X0342985Y0031192D01*
X0342733Y0031161D01*
X0342479Y0031137D01*
X0342226Y0031119D01*
X0341971Y0031107D01*
X0341717Y0031101D01*
X0341462Y0031101D01*
X0341208Y0031107D01*
X0340954Y0031120D01*
X0340700Y0031139D01*
X0340447Y0031164D01*
X0340194Y0031195D01*
X0339942Y0031232D01*
X0339692Y0031275D01*
X0339442Y0031324D01*
X0339193Y0031380D01*
X0338946Y0031441D01*
X0338701Y0031508D01*
X0338457Y0031581D01*
X0338215Y0031660D01*
X0337976Y0031745D01*
X0337738Y0031836D01*
X0337502Y0031933D01*
X0337269Y0032035D01*
X0337039Y0032143D01*
X0336811Y0032256D01*
X0336586Y0032375D01*
X0336364Y0032499D01*
X0336145Y0032629D01*
X0335929Y0032763D01*
X0335716Y0032903D01*
X0335507Y0033049D01*
X0335302Y0033199D01*
X0335100Y0033354D01*
X0388947Y0036484D02*
X0392350Y0036484D01*
X0392350Y0035350D02*
X0392350Y0037619D01*
X0390081Y0035350D02*
X0388947Y0036484D01*
X0389514Y0056350D02*
X0388947Y0056917D01*
X0388947Y0058051D01*
X0389514Y0058619D01*
X0390081Y0058619D01*
X0390649Y0058051D01*
X0391216Y0058619D01*
X0391783Y0058619D01*
X0392350Y0058051D01*
X0392350Y0056917D01*
X0391783Y0056350D01*
X0390649Y0057484D02*
X0390649Y0058051D01*
X0395852Y0096600D02*
X0395857Y0096986D01*
X0395871Y0097373D01*
X0395895Y0097758D01*
X0395928Y0098144D01*
X0395970Y0098528D01*
X0396022Y0098911D01*
X0396084Y0099292D01*
X0396155Y0099672D01*
X0396235Y0100050D01*
X0396324Y0100426D01*
X0396422Y0100800D01*
X0396530Y0101171D01*
X0396647Y0101540D01*
X0396773Y0101905D01*
X0396907Y0102268D01*
X0397051Y0102626D01*
X0397203Y0102982D01*
X0397364Y0103333D01*
X0397534Y0103680D01*
X0397712Y0104024D01*
X0397898Y0104362D01*
X0398092Y0104696D01*
X0398295Y0105025D01*
X0398506Y0105349D01*
X0398725Y0105668D01*
X0398951Y0105981D01*
X0399185Y0106289D01*
X0399427Y0106590D01*
X0399675Y0106886D01*
X0399932Y0107176D01*
X0400195Y0107459D01*
X0400464Y0107736D01*
X0400741Y0108005D01*
X0401024Y0108268D01*
X0401314Y0108525D01*
X0401610Y0108773D01*
X0401911Y0109015D01*
X0402219Y0109249D01*
X0402532Y0109475D01*
X0402851Y0109694D01*
X0403175Y0109905D01*
X0403504Y0110108D01*
X0403838Y0110302D01*
X0404176Y0110488D01*
X0404520Y0110666D01*
X0404867Y0110836D01*
X0405218Y0110997D01*
X0405574Y0111149D01*
X0405932Y0111293D01*
X0406295Y0111427D01*
X0406660Y0111553D01*
X0407029Y0111670D01*
X0407400Y0111778D01*
X0407774Y0111876D01*
X0408150Y0111965D01*
X0408528Y0112045D01*
X0408908Y0112116D01*
X0409289Y0112178D01*
X0409672Y0112230D01*
X0410056Y0112272D01*
X0410442Y0112305D01*
X0410827Y0112329D01*
X0411214Y0112343D01*
X0411600Y0112348D01*
X0411986Y0112343D01*
X0412373Y0112329D01*
X0412758Y0112305D01*
X0413144Y0112272D01*
X0413528Y0112230D01*
X0413911Y0112178D01*
X0414292Y0112116D01*
X0414672Y0112045D01*
X0415050Y0111965D01*
X0415426Y0111876D01*
X0415800Y0111778D01*
X0416171Y0111670D01*
X0416540Y0111553D01*
X0416905Y0111427D01*
X0417268Y0111293D01*
X0417626Y0111149D01*
X0417982Y0110997D01*
X0418333Y0110836D01*
X0418680Y0110666D01*
X0419024Y0110488D01*
X0419362Y0110302D01*
X0419696Y0110108D01*
X0420025Y0109905D01*
X0420349Y0109694D01*
X0420668Y0109475D01*
X0420981Y0109249D01*
X0421289Y0109015D01*
X0421590Y0108773D01*
X0421886Y0108525D01*
X0422176Y0108268D01*
X0422459Y0108005D01*
X0422736Y0107736D01*
X0423005Y0107459D01*
X0423268Y0107176D01*
X0423525Y0106886D01*
X0423773Y0106590D01*
X0424015Y0106289D01*
X0424249Y0105981D01*
X0424475Y0105668D01*
X0424694Y0105349D01*
X0424905Y0105025D01*
X0425108Y0104696D01*
X0425302Y0104362D01*
X0425488Y0104024D01*
X0425666Y0103680D01*
X0425836Y0103333D01*
X0425997Y0102982D01*
X0426149Y0102626D01*
X0426293Y0102268D01*
X0426427Y0101905D01*
X0426553Y0101540D01*
X0426670Y0101171D01*
X0426778Y0100800D01*
X0426876Y0100426D01*
X0426965Y0100050D01*
X0427045Y0099672D01*
X0427116Y0099292D01*
X0427178Y0098911D01*
X0427230Y0098528D01*
X0427272Y0098144D01*
X0427305Y0097758D01*
X0427329Y0097373D01*
X0427343Y0096986D01*
X0427348Y0096600D01*
X0427343Y0096214D01*
X0427329Y0095827D01*
X0427305Y0095442D01*
X0427272Y0095056D01*
X0427230Y0094672D01*
X0427178Y0094289D01*
X0427116Y0093908D01*
X0427045Y0093528D01*
X0426965Y0093150D01*
X0426876Y0092774D01*
X0426778Y0092400D01*
X0426670Y0092029D01*
X0426553Y0091660D01*
X0426427Y0091295D01*
X0426293Y0090932D01*
X0426149Y0090574D01*
X0425997Y0090218D01*
X0425836Y0089867D01*
X0425666Y0089520D01*
X0425488Y0089176D01*
X0425302Y0088838D01*
X0425108Y0088504D01*
X0424905Y0088175D01*
X0424694Y0087851D01*
X0424475Y0087532D01*
X0424249Y0087219D01*
X0424015Y0086911D01*
X0423773Y0086610D01*
X0423525Y0086314D01*
X0423268Y0086024D01*
X0423005Y0085741D01*
X0422736Y0085464D01*
X0422459Y0085195D01*
X0422176Y0084932D01*
X0421886Y0084675D01*
X0421590Y0084427D01*
X0421289Y0084185D01*
X0420981Y0083951D01*
X0420668Y0083725D01*
X0420349Y0083506D01*
X0420025Y0083295D01*
X0419696Y0083092D01*
X0419362Y0082898D01*
X0419024Y0082712D01*
X0418680Y0082534D01*
X0418333Y0082364D01*
X0417982Y0082203D01*
X0417626Y0082051D01*
X0417268Y0081907D01*
X0416905Y0081773D01*
X0416540Y0081647D01*
X0416171Y0081530D01*
X0415800Y0081422D01*
X0415426Y0081324D01*
X0415050Y0081235D01*
X0414672Y0081155D01*
X0414292Y0081084D01*
X0413911Y0081022D01*
X0413528Y0080970D01*
X0413144Y0080928D01*
X0412758Y0080895D01*
X0412373Y0080871D01*
X0411986Y0080857D01*
X0411600Y0080852D01*
X0411214Y0080857D01*
X0410827Y0080871D01*
X0410442Y0080895D01*
X0410056Y0080928D01*
X0409672Y0080970D01*
X0409289Y0081022D01*
X0408908Y0081084D01*
X0408528Y0081155D01*
X0408150Y0081235D01*
X0407774Y0081324D01*
X0407400Y0081422D01*
X0407029Y0081530D01*
X0406660Y0081647D01*
X0406295Y0081773D01*
X0405932Y0081907D01*
X0405574Y0082051D01*
X0405218Y0082203D01*
X0404867Y0082364D01*
X0404520Y0082534D01*
X0404176Y0082712D01*
X0403838Y0082898D01*
X0403504Y0083092D01*
X0403175Y0083295D01*
X0402851Y0083506D01*
X0402532Y0083725D01*
X0402219Y0083951D01*
X0401911Y0084185D01*
X0401610Y0084427D01*
X0401314Y0084675D01*
X0401024Y0084932D01*
X0400741Y0085195D01*
X0400464Y0085464D01*
X0400195Y0085741D01*
X0399932Y0086024D01*
X0399675Y0086314D01*
X0399427Y0086610D01*
X0399185Y0086911D01*
X0398951Y0087219D01*
X0398725Y0087532D01*
X0398506Y0087851D01*
X0398295Y0088175D01*
X0398092Y0088504D01*
X0397898Y0088838D01*
X0397712Y0089176D01*
X0397534Y0089520D01*
X0397364Y0089867D01*
X0397203Y0090218D01*
X0397051Y0090574D01*
X0396907Y0090932D01*
X0396773Y0091295D01*
X0396647Y0091660D01*
X0396530Y0092029D01*
X0396422Y0092400D01*
X0396324Y0092774D01*
X0396235Y0093150D01*
X0396155Y0093528D01*
X0396084Y0093908D01*
X0396022Y0094289D01*
X0395970Y0094672D01*
X0395928Y0095056D01*
X0395895Y0095442D01*
X0395871Y0095827D01*
X0395857Y0096214D01*
X0395852Y0096600D01*
D16*
X0261200Y0093900D03*
D17*
X0248100Y0111600D03*
X0220100Y0071600D03*
D18*
X0217600Y0054350D03*
X0217600Y0088850D03*
X0250600Y0094350D03*
X0250600Y0128850D03*
D19*
X0250600Y0116600D03*
X0250600Y0106600D03*
X0217600Y0076600D03*
X0217600Y0066600D03*
D20*
X0186600Y0057400D03*
X0171600Y0057400D03*
X0171600Y0085800D03*
X0186600Y0085800D03*
X0171600Y0107400D03*
X0171600Y0135800D03*
X0301600Y0100800D03*
X0301600Y0072400D03*
X0301600Y0050800D03*
X0316600Y0050800D03*
X0316600Y0022400D03*
X0301600Y0022400D03*
X0386600Y0082400D03*
X0386600Y0110800D03*
D21*
X0387400Y0066600D03*
X0415800Y0066600D03*
X0375800Y0021600D03*
X0347400Y0021600D03*
D22*
X0218600Y0111600D02*
X0217600Y0111600D01*
X0217600Y0121100D01*
X0218600Y0121100D01*
X0195600Y0121600D02*
X0194600Y0121600D01*
X0195600Y0121600D02*
X0195600Y0111600D01*
X0194600Y0111600D01*
D23*
X0105582Y0070404D02*
X0105582Y0065200D01*
X0107269Y0066067D02*
X0108137Y0065200D01*
X0109871Y0065200D01*
X0110739Y0066067D01*
X0110739Y0067802D01*
X0109871Y0068670D01*
X0108137Y0068670D01*
X0107269Y0067802D01*
X0107269Y0066067D01*
X0103848Y0068670D02*
X0105582Y0070404D01*
X0103848Y0068670D02*
X0102113Y0070404D01*
X0102113Y0065200D01*
X0100426Y0066935D02*
X0096956Y0066935D01*
X0096956Y0067802D02*
X0096956Y0066067D01*
X0097824Y0065200D01*
X0099559Y0065200D01*
X0100426Y0066935D02*
X0100426Y0067802D01*
X0099559Y0068670D01*
X0097824Y0068670D01*
X0096956Y0067802D01*
X0095270Y0065200D02*
X0093535Y0066935D01*
X0091800Y0065200D01*
X0091800Y0070404D01*
X0095270Y0070404D02*
X0095270Y0065200D01*
X0094402Y0062004D02*
X0091800Y0062004D01*
X0091800Y0056800D01*
X0094402Y0056800D01*
X0095270Y0057667D01*
X0095270Y0061137D01*
X0094402Y0062004D01*
X0096956Y0060270D02*
X0098691Y0062004D01*
X0098691Y0056800D01*
X0096956Y0056800D02*
X0100426Y0056800D01*
X0107269Y0056800D02*
X0107269Y0060270D01*
X0108137Y0060270D01*
X0109004Y0059402D01*
X0109871Y0060270D01*
X0110739Y0059402D01*
X0110739Y0056800D01*
X0112426Y0056800D02*
X0114160Y0056800D01*
X0113293Y0056800D02*
X0113293Y0060270D01*
X0112426Y0060270D01*
X0113293Y0062004D02*
X0113293Y0062872D01*
X0112426Y0065200D02*
X0115028Y0065200D01*
X0115895Y0066067D01*
X0115028Y0066935D01*
X0113293Y0066935D01*
X0112426Y0067802D01*
X0113293Y0068670D01*
X0115895Y0068670D01*
X0117582Y0066067D02*
X0118449Y0066067D01*
X0118449Y0065200D01*
X0117582Y0065200D01*
X0117582Y0066067D01*
X0120160Y0066067D02*
X0121028Y0065200D01*
X0123630Y0065200D01*
X0125317Y0066067D02*
X0126184Y0065200D01*
X0128786Y0065200D01*
X0125317Y0066067D02*
X0125317Y0067802D01*
X0126184Y0068670D01*
X0128786Y0068670D01*
X0123630Y0068670D02*
X0121028Y0068670D01*
X0120160Y0067802D01*
X0120160Y0066067D01*
X0121887Y0062872D02*
X0121887Y0062004D01*
X0121887Y0060270D02*
X0121887Y0056800D01*
X0121020Y0056800D02*
X0122754Y0056800D01*
X0119333Y0056800D02*
X0119333Y0059402D01*
X0118465Y0060270D01*
X0115863Y0060270D01*
X0115863Y0056800D01*
X0109004Y0056800D02*
X0109004Y0059402D01*
X0121020Y0060270D02*
X0121887Y0060270D01*
D24*
X0076600Y0031600D02*
X0061600Y0031600D01*
X0061600Y0011600D01*
X0076600Y0011600D01*
X0076600Y0031600D01*
X0091600Y0026600D02*
X0091600Y0006600D01*
X0121600Y0006600D01*
X0121600Y0026600D01*
X0091600Y0026600D01*
M02*
