%
M48
M72
T01C0.03150
T02C0.03200
T03C0.04000
T04C0.04400
T05C0.04700
T06C0.12900
%
T01
X401757Y96600
X421443Y96600
T02
X371600Y86600
X386600Y76600
X381600Y66600
X381600Y56600
X371600Y46600
X349100Y41600
X341600Y46600
X316600Y56600
X301600Y56600
X286600Y56600
X286600Y46600
X256600Y46600
X256600Y56600
X256600Y66600
X286600Y66600
X301600Y66600
X286600Y76600
X256600Y76600
X186600Y91600
X171600Y91600
X171600Y101600
X171600Y141600
X301600Y106600
X371600Y106600
X386600Y116600
X421600Y66600
X423600Y36600
X409600Y36600
X381600Y36600
X341600Y36600
X341600Y21600
X316600Y16600
X301600Y16600
X281600Y26600
X261600Y26600
X186600Y51600
X171600Y51600
X381600Y21600
T03
X461600Y51600
X461600Y61600
X461600Y71600
X461600Y81600
X461600Y91600
X461600Y101600
X461600Y111600
X336600Y101600
X336600Y81600
X256600Y101600
X256600Y111600
X256600Y121600
X215500Y129400
X197700Y129400
X151600Y111600
X151600Y101600
X151600Y91600
X151600Y81600
X151600Y71600
X151600Y61600
X151600Y51600
X151600Y41600
X211600Y61600
X211600Y71600
X211600Y81600
X215500Y103800
X197700Y103800
X61600Y101600
X61600Y111600
X21600Y111600
X21600Y101600
X21600Y91600
X21600Y81600
X21600Y71600
X21600Y61600
X21600Y51600
X61600Y51600
X61600Y41600
X61600Y61600
X61600Y71600
X61600Y81600
X61600Y91600
T04
X436600Y106600
X436600Y66600
T05
X211600Y24100
X191600Y24100
T06
X19100Y19100
X19100Y139100
X464100Y139100
X464100Y19100
M30
